<ttFont>
          <CharString index="0">
            rmoveto
            15 13 6 16 17 vvcurveto
            40 -39 42 -42 -21 -22 -10 -24 -18 vhcurveto
            -65 -87 -139 -187 -83 -110 rrcurveto
            -7 -10 -4 -11 -9 vvcurveto
            -15 8 -11 15 10 14 6 14 16 vhcurveto
            69 61 185 172 102 93 rrcurveto
            return
          </CharString>
          <CharString index="1">
            rmoveto
            0 192 -206 60 -63 vhcurveto
            -9 9 9 -4 8 hhcurveto
            10 7 7 10 4 -1 4 -2 5 hvcurveto
            -73 141 -68 139 -66 129 rrcurveto
            48 -25 -35 16 -25 hhcurveto
            -25 -36 -16 -48 -25 hvcurveto
            -66 -129 -67 -139 -73 -141 rrcurveto
            -2 -5 -1 -4 -4 vvcurveto
            -10 7 -7 10 8 9 4 9 9 vhcurveto
            60 63 192 206 0 vvcurveto
            return
          </CharString>
          <CharString index="2">
            -65 12 -93 6 98 vvcurveto
            703 vlineto
            -360 -26 -1 -26 rlineto
            -23 vlineto
            0 154 -14 13 -68 vhcurveto
            -81 callgsubr
            -1 -50 rlineto
            0 146 -13 13 -69 vhcurveto
            -90 callsubr
          </CharString>
          <CharString index="3">
            -58 callsubr
            -104 callgsubr
            return
          </CharString>
          <CharString index="4">
            -104 callsubr
            hintmask 10111000
            -50 callsubr
          </CharString>
          <CharString index="5">
            -102 callgsubr
            -34 callgsubr
            return
          </CharString>
          <CharString index="6">
            1816 -107 callsubr
            return
          </CharString>
          <CharString index="7">
            1490 -106 callgsubr
            return
          </CharString>
          <CharString index="8">
            -82 callgsubr
            -92 callsubr
          </CharString>
          <CharString index="9">
            1752 -106 callsubr
            return
          </CharString>
          <CharString index="10">
            351 196 179 228 291 198 -292 -373 -337 -182 -197 -239 -287 -205 289 380 vhcurveto
            -233 -83 rmoveto
            -413 323 -250 349 383 324 266 408 return
          </CharString>
          <CharString index="11">
            rmoveto
            -138 4 70 -109 173 hhcurveto
            169 77 112 135 hvcurveto
            -58 hlineto
            -5 -18 -10 -14 -12 -13 rrcurveto
            -46 -26 -44 -25 -91 hhcurveto
            -89 -41 24 45 -26 hvcurveto
            -14 13 -12 16 -8 18 rrcurveto
            return
          </CharString>
          <CharString index="12">
            240 114 104 147 178 111 -217 -254 -188 -83 -142 -176 -181 -110 233 224 vhcurveto
            -200 -59 rmoveto
            -282 226 -194 252 252 217 186 291 return
          </CharString>
          <CharString index="13">
            1089 -106 callgsubr
            return
          </CharString>
          <CharString index="14">
            rmoveto
            -95 callsubr
            return
          </CharString>
          <CharString index="15">
            -35 callsubr
            -90 callgsubr
          </CharString>
          <CharString index="16">
            -93 callsubr
            -63 callsubr
          </CharString>
          <CharString index="17">
            5 -27 3 -32 -42 vvcurveto
            -216 vlineto
            -232 41 -217 257 113 113 48 117 105 vhcurveto
            8 -160 328 47 rlineto
            0 3 36 17 vvcurveto
            endchar
          </CharString>
          <CharString index="18">
            33 -63 -72 20 -85 hhcurveto
            -201 -146 -130 -183 -115 62 -88 103 -58 hvcurveto
            -95 -55 -70 -58 -76 vvcurveto
            -60 46 -49 73 -30 vhcurveto
            -110 -81 -43 -71 -56 vvcurveto
            -79 128 -88 238 269 228 113 186 139 -122 72 -161 12 vhcurveto
            -252 18 -145 -15 69 vvcurveto
            49 40 10 31 24 vhcurveto
            -12 52 38 -6 38 hhcurveto
            172 182 107 211 88 -79 89 0 hvcurveto
            0 140 -26 53 -16 vhcurveto
            return
          </CharString>
          <CharString index="19">
            -69 callsubr
            hintmask 10100000
            -86 callsubr
          </CharString>
          <CharString index="20">
            -87 callgsubr
            vhcurveto
            return
          </CharString>
          <CharString index="21">
            -5 17 19 -2 21 hhcurveto
            19 17 2 5 13 hvcurveto
            -3 123 -20 73 166 vvcurveto
            5 606 rlineto
            52 6 48 9 42 vhcurveto
            18 108 119 12 59 27 rrcurveto
            19 0 18 -1 17 vhcurveto
            -526 hlineto
            -2 -21 -1 -16 -16 vvcurveto
            59 -30 126 3 20 -91 21 -49 5 -62 1 -62 6 -629 rcurveline
            -947 973 rlineto
            -349 hlineto
            -1 -52 78 -32 103 -4 75 -123 rlinecurve
            endchar
          </CharString>
          <CharString index="22">
            -89 callgsubr
            hintmask 11110100
            -68 callsubr
          </CharString>
          <CharString index="23">
            rmoveto
            18 -35 -62 24 -54 hhcurveto
            -41 -49 5 -73 -103 -223 -7 -23 -5 -22 -3 -22 rrcurveto
            -11 7 13 -5 14 hhcurveto
            20 16 18 31 25 35 62 88 115 151 31 65 rrcurveto
            -304 -1 rmoveto
            20 -35 -62 23 -54 hhcurveto
            -37 -49 -25 -107 -96 -189 -7 -23 -5 -22 -4 -24 rrcurveto
            -9 7 12 -5 13 hhcurveto
            19 16 24 30 26 36 52 71 140 166 32 66 rrcurveto
            return
          </CharString>
          <CharString index="24">
            -85 callgsubr
            -56 callsubr
          </CharString>
          <CharString index="25">
            rmoveto
            -23 -17 2 -16 hhcurveto
            -41 -42 -35 -62 -30 -52 -67 callsubr
            -58 -57 7 -3 -60 -44 callgsubr
            286 2 rcurveline
            31 29 -1 -2 26 -30 callgsubr
            return
          </CharString>
          <CharString index="26">
            rmoveto
            -61 -48 -49 -60 -61 48 -48 61 60 49 48 61 60 -49 49 -60 hvcurveto
            439 hmoveto
            return
          </CharString>
          <CharString index="27">
            1415 -100 callgsubr
            return
          </CharString>
          <CharString index="28">
            -78 callsubr
            -36 callsubr
            hvcurveto
            endchar
          </CharString>
          <CharString index="29">
            rmoveto
            -62 -79 -65 -29 -121 hhcurveto
            -207 -110 178 204 232 141 118 151 hvcurveto
            233 -145 -210 150 hhcurveto
            34 61 28 67 131 -151 58 -167 -297 -193 -213 -265 return
          </CharString>
          <CharString index="30">
            9 189 -49 7 rlineto
            -149 -79 -148 -74 -178 hhcurveto
            -323 -209 234 365 368 235 202 255 116 112 -41 -92 92 hvcurveto
            42 -42 37 -95 39 -39 47 2 rcurveline
            endchar
          </CharString>
          <CharString index="31">
            1717 -96 callsubr
            return
          </CharString>
          <CharString index="32">
            -60 -48 -49 -60 -61 48 -48 60 -67 callgsubr
            return
          </CharString>
          <CharString index="33">
            rmoveto
            178 3 157 104 206 vvcurveto
            172 -87 94 -106 -85 -55 -59 -78 -64 35 -44 63 -24 callgsubr
            -116 -21 -104 -34 vhcurveto
            -28 9 -17 9 -15 vhcurveto
            return
          </CharString>
          <CharString index="34">
            -64 callgsubr
            -99 -92 58 105 -20 vhcurveto
            -8 38 -13 27 -10 23 rrcurveto
            -11 -11 -1 -2 -9 hvcurveto
            -22 -2 -5 -244 rlineto
            return
          </CharString>
          <CharString index="35">
            2 -52 rlineto
            -25 callsubr
            472 -374 172 -476 hvcurveto
            -592 16 callgsubr
            73 -25 126 -14 15 -81 rlinecurve
            6 -37 4 -41 -43 vvcurveto
            endchar
          </CharString>
          <CharString index="36">
            rmoveto
            67 53 -55 -63 -64 -53 -55 -67 -67 -52 54 65 63 52 55 67 hvcurveto
            73 vmoveto
            -109 -86 -88 -103 -107 86 -86 109 109 86 89 104 103 -86 88 -109 hvcurveto
            return
          </CharString>
          <CharString index="37">
            rmoveto
            77 73 90 73 103 hhcurveto
            190 0 -161 -208 hvcurveto
            -223 vlineto
            -28 -1 -26 -4 -23 vhcurveto
            -12 -73 -95 -6 -51 -20 -8 callsubr
            493 hlineto
            0 return
          </CharString>
          <CharString index="38">
            rmoveto
            -148 -131 -8 -103 -29 vhcurveto
            -19 0 -18 2 -17 55 callsubr
            20 1 17 16 vvcurveto
            -64 33 -142 -17 -21 103 -10 39 -6 45 -1 51 -10 702 rcurveline
            800 -831 50 -52 54 -61 60 -74 rlinecurve
            return
          </CharString>
          <CharString index="39">
            29 -34 39 29 vvcurveto
            -63 callgsubr
          </CharString>
          <CharString index="40">
            -36 -74 -41 -26 -70 -11 -120 -18 -180 2 -159 -2 rrcurveto
            -34 -31 7 8 -25 hvcurveto
            22 36 25 37 27 36 765 1047 rcurveline
            21 vlineto
            1 2 0 2 2 vvcurveto
            13 -2 12 -11 5 vhcurveto
            -843 hlineto
            return
          </CharString>
          <CharString index="41">
            -18 callsubr
            -58 callgsubr
            20 17 33 15 -46 callsubr
            839 hlineto
            -398 -70 rlineto
            -3 -6 -1 -6 -5 48 callgsubr
          </CharString>
          <CharString index="42">
            -73 callsubr
            40 callsubr
            return
          </CharString>
          <CharString index="43">
            -29 callsubr
            -69 callgsubr
          </CharString>
          <CharString index="44">
            290 -216 179 -264 -248 -219 -187 -283 vhcurveto
            endchar
          </CharString>
          <CharString index="45">
            rmoveto
            -59 -50 -49 -60 -61 50 -48 59 -67 callgsubr
            return
          </CharString>
          <CharString index="46">
            -94 callsubr
            298 -249 -71 callgsubr
            return
          </CharString>
          <CharString index="47">
            36 -1043 rmoveto
            -98 -119 -9 -45 -38 callsubr
            496 hlineto
            1 17 0 16 17 vvcurveto
            -28 21 -99 -3 -12 67 rrcurveto
            -7 24 -3 29 32 vvcurveto
            698 vlineto
            -59 -6 -277 -80 -1 callsubr
            122 -33 30 -51 vhcurveto
            endchar
          </CharString>
          <CharString index="48">
            -199 -171 -96 -132 -85 56 -41 53 47 44 32 61 hvcurveto
            return
          </CharString>
          <CharString index="49">
            rmoveto
            -25 -28 -24 -54 -22 -47 -66 -139 -119 4 -161 -3 -181 -3 rcurveline
            return
          </CharString>
          <CharString index="50">
            -41 callgsubr
            vlineto
            204 -2 rlineto
            38 35 -2 -4 31 hvcurveto
            -53 callsubr
            15 78 10 48 callsubr
          </CharString>
          <CharString index="51">
            58 -164 -117 22 -158 hhcurveto
            -429 -366 -272 -417 -401 302 -263 456 191 191 51 70 134 hvcurveto
            endchar
          </CharString>
          <CharString index="52">
            -48 callsubr
            -51 -15 -55 -10 -65 -1 -194 1 rcurveline
            47 65 rlineto
            return
          </CharString>
          <CharString index="53">
            162 -61 -4 -273 -68 -3 -34 rlineto
            0 133 -33 26 -51 vhcurveto
            -542 vlineto
            -96 -65 -14 -90 -21 vhcurveto
            return
          </CharString>
          <CharString index="54">
            102 -14 35 -138 71 -87 rrcurveto
            16 16 0 1 16 hvcurveto
            -32 328 rlineto
            0 -124 -8 -11 vhcurveto
            -907 hlineto
            -74 -158 6 0 hvcurveto
            -25 -326 rlineto
            -1 17 15 0 14 hhcurveto
            71 87 37 137 106 return
          </CharString>
          <CharString index="55">
            vhcurveto
            89 -15 41 -27 -58 vvcurveto
            -20 -5 -22 -10 -26 vhcurveto
            -169 -448 -207 494 rlineto
            -7 22 -6 19 14 vvcurveto
            34 27 16 56 4 vhcurveto
            15 10 37 9 18 vvcurveto
            7 -5 25 0 vhcurveto
            -469 return
          </CharString>
          <CharString index="56">
            rmoveto
            170 -3 73 -45 -71 vvcurveto
            -105 -201 -45 -134 -83 -179 26 105 43 27 49 70 60 vhcurveto
            63 -7 57 -5 58 -1 rrcurveto
            return
          </CharString>
          <CharString index="57">
            38 39 -12 38 hhcurveto
            11 11 1 2 10 hvcurveto
            66 351 rlineto
            endchar
          </CharString>
          <CharString index="58">
            rmoveto
            128 -602 -128 vlineto
            return
          </CharString>
          <CharString index="59">
            34 125 -11 0 hvcurveto
            29 288 rlineto
            -17 -17 2 -17 hhcurveto
            -47 -47 -22 -123 -77 -23 return
          </CharString>
          <CharString index="60">
            -42 callgsubr
            hintmask 11111011
            -87 callsubr
            hintmask 11111101
            -19 callsubr
            return
          </CharString>
          <CharString index="61">
            49 11 rlinecurve
            53 11 30 12 15 vvcurveto
            -3 13 rlineto
            -394 hlineto
            -2 -5 -1 -5 -3 -42 129 39 -63 vvcurveto
            -2 0 -4 -2 -5 vhcurveto
            -350 -303 rlineto
            -62 return
          </CharString>
          <CharString index="62">
            rmoveto
            -68 -51 -79 -55 -107 hhcurveto
            -200 -96 197 181 194 104 175 164 64 63 -28 -46 52 hvcurveto
            75 -66 11 -81 -115 vvcurveto
            339 vmoveto
            return
          </CharString>
          <CharString index="63">
            rmoveto
            158 28 114 141 160 vvcurveto
            109 -63 97 -117 -76 -64 -51 -79 -135 134 51 57 -82 vhcurveto
            -105 -102 -35 -77 -43 vhcurveto
            return
          </CharString>
          <CharString index="64">
            -45 callsubr
            -36 callgsubr
            return
          </CharString>
          <CharString index="65">
            rmoveto
            33 46 40 51 24 51 97 208 92 209 108 203 103 192 114 184 111 187 78 132 rcurveline
            17 -27 -31 7 -32 hhcurveto
            -105 -72 -64 -181 -60 -112 -509 -954 rcurveline
            -26 -49 -15 -69 -18 -54 31 callsubr
            return
          </CharString>
          <CharString index="66">
            rmoveto
            56 -144 -137 26 -135 hhcurveto
            -459 -293 -305 -382 return
          </CharString>
          <CharString index="67">
            -52 callgsubr
            19 callsubr
            -8 callgsubr
            return
          </CharString>
          <CharString index="68">
            515 -24 callsubr
            -111 11 -65 40 121 vvcurveto
            endchar
          </CharString>
          <CharString index="69">
            -24 vhcurveto
            -16 0 -16 2 -18 vhcurveto
            return
          </CharString>
          <CharString index="70">
            1688 -62 callsubr
            return
          </CharString>
          <CharString index="71">
            -245 157 -223 286 153 158 69 139 43 return
          </CharString>
          <CharString index="72">
            181 -26 -138 125 -193 hhcurveto
            return
          </CharString>
          <CharString index="73">
            -5 -32 callsubr
            return
          </CharString>
          <CharString index="74">
            184 rlineto
            -57 hlineto
            -266 -76 -1 callsubr
            128 -32 29 -50 vhcurveto
            -508 vlineto
            -145 -62 11 -92 -27 vhcurveto
            return
          </CharString>
          <CharString index="75">
            -21 1353 -20 return
          </CharString>
          <CharString index="76">
            rmoveto
            76 46 41 85 76 62 -5 -102 88 hhcurveto
            61 25 91 28 51 -59 59 -83 -100 -78 -48 -141 -77 hvcurveto
            return
          </CharString>
          <CharString index="77">
            rmoveto
            -152 -120 5 -111 -39 vhcurveto
            -18 2 -36 0 vhcurveto
            953 hlineto
            return
          </CharString>
          <CharString index="78">
            rmoveto
            -278 -76 -1 callsubr
            138 -45 27 -44 vhcurveto
            return
          </CharString>
          <CharString index="79">
            324 9 -6 callgsubr
            return
          </CharString>
          <CharString index="80">
            -72 callgsubr
            hintmask 11001100
            2 callsubr
            hhcurveto
            hintmask 10111100
            -57 callgsubr
            return
          </CharString>
          <CharString index="81">
            -2 callgsubr
            73 -85 108 83 56 56 74 62 -34 38 -71 13 vhcurveto
            -41 7 -26 19 -19 27 rrcurveto
            104 95 31 84 6 callsubr
            endchar
          </CharString>
          <CharString index="82">
            719 hlineto
            478 245 321 337 return
          </CharString>
          <CharString index="83">
            -3 callsubr
            33 17 vvcurveto
            return
          </CharString>
          <CharString index="84">
            536 hlineto
            0 1 33 17 vvcurveto
            -62 21 -108 -8 -14 66 rrcurveto
            -10 35 -2 44 53 vvcurveto
            endchar
          </CharString>
          <CharString index="85">
            1 -11 callgsubr
            return
          </CharString>
          <CharString index="86">
            -501 hlineto
            -42 -56 0 26 -69 hvcurveto
            -21 -261 return
          </CharString>
          <CharString index="87">
            -3 callgsubr
            480 -21 return
          </CharString>
          <CharString index="88">
            -92 -61 -72 -76 hvcurveto
            return
          </CharString>
          <CharString index="89">
            rmoveto
            -76 -173 11 -43 vvcurveto
            -3 0 -2 3 -7 vhcurveto
            524 hlineto
            3 7 1 4 3 return
          </CharString>
          <CharString index="90">
            8 callsubr
            -58 8 -104 8 96 -19 callgsubr
          </CharString>
          <CharString index="91">
            -112 37 -33 -18 172 vvcurveto
            223 vlineto
            return
          </CharString>
          <CharString index="92">
            218 222 218 return
          </CharString>
          <CharString index="93">
            -21 -13 callgsubr
            return
          </CharString>
          <CharString index="94">
            -609 -20 callsubr
            return
          </CharString>
          <CharString index="95">
            -345 682 72 callgsubr
            236 219 vstem
            345 900 -62 callsubr
            endchar
          </CharString>
          <CharString index="96">
            vhcurveto
            2 -52 rlineto
            return
          </CharString>
          <CharString index="97">
            rmoveto
            -65 51 -51 65 64 52 51 65 64 -52 52 -64 -65 -51 -52 -64 vhcurveto
            return
          </CharString>
          <CharString index="98">
            1069 -49 callsubr
            return
          </CharString>
          <CharString index="99">
            rrcurveto
            -2 callsubr
            return
          </CharString>
          <CharString index="100">
            544 -34 callsubr
            return
          </CharString>
          <CharString index="101">
            rmoveto
            105 232 -44 58 vvcurveto
            1 -1 61 callsubr
            -666 hlineto
            -3 -9 -2 -5 -4 -54 228 38 -102 vvcurveto
            -1036 vlineto
            return
          </CharString>
          <CharString index="102">
            hlineto
            3 6 1 6 6 48 -178 return
          </CharString>
          <CharString index="103">
            233 913 233 return
          </CharString>
          <CharString index="104">
            hlineto
            0 2 return
          </CharString>
          <CharString index="105">
            -16 10 callgsubr
            return
          </CharString>
          <CharString index="106">
            -2 -35 rlineto
            0 return
          </CharString>
          <CharString index="107">
            -39 -123 23 53 hvcurveto
            28 20 25 30 vvcurveto
            47 -45 43 -46 -55 -49 -51 -55 -162 237 -37 123 return
          </CharString>
          <CharString index="108">
            hstemhm
            45 366 32 callsubr
            return
          </CharString>
          <CharString index="109">
            -72 -13 -30 -36 -43 return
          </CharString>
          <CharString index="110">
            hlineto
            -2 -11 0 -10 -8 vvcurveto
            -10 0 -9 2 -8 vhcurveto
            return
          </CharString>
          <CharString index="111">
            79 hlineto
            276 134 33 72 vhcurveto
            hintmask 11101010
            47 77 38 callsubr
            -43 25 return
          </CharString>
          <CharString index="112">
            -144 22 callgsubr
            899 -20 return
          </CharString>
          <CharString index="113">
            48 vhcurveto
            -6 26 -14 17 -16 13 rrcurveto
            return
          </CharString>
          <CharString index="114">
            253 -133 105 -174 -143 -92 -64 -94 -95 vhcurveto
            608 vlineto
            -72 -7 -286 -76 return
          </CharString>
          <CharString index="115">
            9 -155 rlineto
            67 hlineto
            267 44 rlineto
            55 vlineto
            return
          </CharString>
          <CharString index="116">
            215 767 238 return
          </CharString>
          <CharString index="117">
            hlineto
            0 -2 return
          </CharString>
          <CharString index="118">
            -56 193 49 -77 vvcurveto
            -6 -1 -7 -3 -9 vhcurveto
            -496 -462 rlineto
            -86 hlineto
            endchar
          </CharString>
          <CharString index="119">
            vvcurveto
            451 vlineto
            68 65 91 66 103 hhcurveto
            140 52 -105 -136 hvcurveto
            -363 vlineto
            return
          </CharString>
          <CharString index="120">
            -20 28 callgsubr
            hintmask 01111000
            return
          </CharString>
          <CharString index="121">
            282 9 callsubr
            return
          </CharString>
          <CharString index="122">
            197 -166 return
          </CharString>
          <CharString index="123">
            -34 0 vhcurveto
            return
          </CharString>
          <CharString index="124">
            22 callsubr
            1563 -25 callgsubr
            return
          </CharString>
          <CharString index="125">
            1104 rmoveto
            -68 53 -53 68 71 53 54 72 169 -290 19 -119 return
          </CharString>
          <CharString index="126">
            -7 -23 -59 -15 -58 hhcurveto
            return
          </CharString>
          <CharString index="127">
            17 -1 18 -1 17 vhcurveto
            return
          </CharString>
          <CharString index="128">
            vhcurveto
            536 hlineto
            return
          </CharString>
          <CharString index="129">
            155 1 -21 return
          </CharString>
          <CharString index="130">
            rrcurveto
            -16 1 return
          </CharString>
          <CharString index="131">
            -76 -61 -63 -72 41 callsubr
            72 -62 63 -77 hvcurveto
            return
          </CharString>
          <CharString index="132">
            hlineto
            -3 -10 -1 -6 -1 vvcurveto
            return
          </CharString>
          <CharString index="133">
            168 21 63 callgsubr
            return
          </CharString>
          <CharString index="134">
            -84 1 -21 662 284 return
          </CharString>
          <CharString index="135">
            -21 535 -20 hstem
            return
          </CharString>
          <CharString index="136">
            20 callgsubr
            118 71 37 18 39 62 callgsubr
            return
          </CharString>
          <CharString index="137">
            70 -66 vvcurveto
            -5 2 -6 3 -7 vhcurveto
            return
          </CharString>
          <CharString index="138">
            rrcurveto
            33 hlineto
            18 18 0 4 18 hvcurveto
            return
          </CharString>
          <CharString index="139">
            -206 206 return
          </CharString>
          <CharString index="140">
            21 -21 1297 -20 1 callsubr
            return
          </CharString>
          <CharString index="141">
            -5 -21 1276 351 25 callgsubr
            return
          </CharString>
          <CharString index="142">
            -378 rcurveline
            294 -383 23 -30 16 -16 22 -15 rlinecurve
            return
          </CharString>
          <CharString index="143">
            32 callgsubr
            1543 -20 9 callgsubr
            return
          </CharString>
          <CharString index="144">
            21 -21 983 314 1 callsubr
            return
          </CharString>
          <CharString index="145">
            -10 -29 hvcurveto
            -19 -14 -21 -27 vvcurveto
            return
          </CharString>
          <CharString index="146">
            365 -572 rcurveline
            -308 vlineto
            return
          </CharString>
          <CharString index="147">
            -44 78 21 callgsubr
            return
          </CharString>
          <CharString index="148">
            46 callgsubr
            77 62 64 72 return
          </CharString>
          <CharString index="149">
            21 59 callsubr
            hstem
            return
          </CharString>
          <CharString index="150">
            -78 -22 callsubr
            return
          </CharString>
          <CharString index="151">
            625 5 -21 37 -21 return
          </CharString>
          <CharString index="152">
            75 -22 callsubr
            return
          </CharString>
          <CharString index="153">
            -215 215 return
          </CharString>
          <CharString index="154">
            144 1 -21 29 -21 935 -20 473 -20 hstemhm
            return
          </CharString>
          <CharString index="155">
            116 -4 98 2 rrcurveto
            endchar
          </CharString>
          <CharString index="156">
            -7 25 -18 19 -27 rrcurveto
            -105 return
          </CharString>
          <CharString index="157">
            215 497 233 vstem
            return
          </CharString>
          <CharString index="158">
            81 2 callgsubr
            return
          </CharString>
          <CharString index="159">
            16 callgsubr
            rlineto
            return
          </CharString>
          <CharString index="160">
            215 vstem
            return
          </CharString>
          <CharString index="161">
            1 -21 879 338 -271 -20 hstemhm
            81 return
          </CharString>
          <CharString index="162">
            vhcurveto
            564 hlineto
            2 return
          </CharString>
          <CharString index="163">
            14 13 1 14 hhcurveto
            return
          </CharString>
          <CharString index="164">
            -349 -247 -21 1677 -20 hstem
            return
          </CharString>
          <CharString index="165">
            -209 -212 -21 1730 -20 hstemhm
            return
          </CharString>
          <CharString index="166">
            71 callsubr
            218 return
          </CharString>
          <CharString index="167">
            186 533 186 return
          </CharString>
          <CharString index="168">
            6 -3 10 vhcurveto
            return
          </CharString>
          <CharString index="169">
            -21 919 -20 return
          </CharString>
          <CharString index="170">
            -21 402 -21 return
          </CharString>
          <CharString index="171">
            -20 270 -20 hstemhm
            185 187 return
          </CharString>
          <CharString index="172">
            vvcurveto
            208 -122 178 -191 return
          </CharString>
          <CharString index="173">
            -410 39 -21 1050 -20 hstem
            return
          </CharString>
          <CharString index="174">
            -193 -21 1743 -20 hstem
            return
          </CharString>
          <CharString index="175">
            -68 1117 -21 474 -20 hstem
            return
          </CharString>
          <CharString index="176">
            hstem
            153 256 vstem
            279 return
          </CharString>
          <CharString index="177">
            -3 -8 -2 -6 -4 return
          </CharString>
          <CharString index="178">
            -21 53 callgsubr
            return
          </CharString>
        <CharString name=".notdef">
          190 endchar
        </CharString>
        <CharString name="A">
          -27 callgsubr
          hstem
          427 620 -45 callgsubr
          158 -440 rmoveto
          -79 -108 -31 -60 -18 -40 callgsubr
          -72 38 -64 -4 -37 90 rlinecurve
          -459 1101 rlineto
          38 -50 -45 9 -61 hhcurveto
          -18 -25 9 -41 -10 -27 -374 -958 rcurveline
          -15 -37 -13 -38 -18 -35 -41 -78 -64 12 -55 -45 rrcurveto
          -52 472 57 vlineto
          -19 4 rlineto
          -67 14 -105 21 79 vvcurveto
          78 96 224 20 55 vhcurveto
          451 hlineto
          22 -60 99 -245 -47 vvcurveto
          endchar
        </CharString>
        <CharString name="AE">
          930 -1 -21 43 -21 1323 -20 21 -20 hstemhm
          hintmask 11100000
          502 685 rmoveto
          243 445 86 -445 rlineto
          584 -47 rmoveto
          82 -2 68 -88 66 -84 rrcurveto
          19 19 1 1 20 hvcurveto
          -95 425 rlineto
          1 -21 -17 1 -16 hhcurveto
          -15 -58 -10 -91 -63 -15 rrcurveto
          -7 -42 -48 -3 -54 hhcurveto
          -263 hlineto
          -39 162 -43 165 -35 163 rrcurveto
          17 58 63 5 75 hhcurveto
          100 hlineto
          108 88 -5 -19 88 hvcurveto
          87 -24 13 -135 82 -53 rrcurveto
          17 17 1 1 17 hvcurveto
          -56 323 rlineto
          2 -32 -25 1 -25 hhcurveto
          -12 -21 -10 -6 -26 hhcurveto
          -738 hlineto
          hintmask 11010000
          19 -51 -52 0 -49 hhcurveto
          -15 -15 -10 -26 -30 -59 rrcurveto
          23 -17 12 -25 -34 vvcurveto
          -36 -14 -48 -31 -58 vhcurveto
          -148 -273 -150 -270 -149 -271 -52 -94 -85 -17 -53 -29 rrcurveto
          -1 -9 -1 -9 -9 -8 1 -8 -9 vvcurveto
          480 hlineto
          2 25 rlineto
          1 10 2 10 10 vvcurveto
          -87 28 -106 3 92 vvcurveto
          59 44 60 34 61 vhcurveto
          138 251 rlineto
          384 hlineto
          67 -368 rlineto
          -18 5 -15 -15 vvcurveto
          -91 -92 -29 -89 -21 vhcurveto
          -2 -16 1 -20 -16 vvcurveto
          957 hlineto
          34 5 -22 23 hhcurveto
          24 27 1 1 28 hvcurveto
          56 342 rlineto
          2 -21 -17 1 -16 hhcurveto
          -86 -69 1 -132 -97 -23 rrcurveto
          -23 -54 -54 -5 -74 hhcurveto
          -130 -3 -44 1 -34 -1 -30 8 rlinecurve
          -57 15 -11 74 -23 89 -82 382 rcurveline
          endchar
        </CharString>
        <CharString name="Aacute">
          -27 callgsubr
          640 -20 hstem
          1065 -101 callsubr
          -639 -1196 -105 callgsubr
        </CharString>
        <CharString name="Abreve">
          -27 callgsubr
          413 -20 hstem
          348 -76 callsubr
          21 -1097 -105 callgsubr
        </CharString>
        <CharString name="Acircumflex">
          -27 callgsubr
          669 -20 hstem
          689 -98 callsubr
          -263 -1132 -105 callgsubr
        </CharString>
        <CharString name="Adieresis">
          -27 callgsubr
          166 218 hstemhm
          360 -15 callsubr
          vstemhm
          469 1688 -81 callsubr
          hintmask 11111000
          -75 callsubr
          -482 -1068 -105 callgsubr
        </CharString>
        <CharString name="Agrave">
          -27 callgsubr
          640 -20 hstem
          313 -79 callgsubr
          113 -1196 -105 callgsubr
        </CharString>
        <CharString name="Amacron">
          -27 callgsubr
          294 -20 hstem
          896 -16 callgsubr
          133 -850 -105 callgsubr
        </CharString>
        <CharString name="Aogonek">
          330 -360 63 callsubr
          1324 -20 hstem
          596 -10 -91 callgsubr
          -169 630 -105 callgsubr
        </CharString>
        <CharString name="Aring">
          -27 callgsubr
          502 -20 hstem
          522 239 vstem
          641 1733 -71 callsubr
          -215 -1186 -105 callgsubr
        </CharString>
        <CharString name="Atilde">
          -27 callgsubr
          166 243 hstem
          429 -50 callgsubr
          35 -860 -105 callgsubr
        </CharString>
        <CharString name="B">
          344 -14 callgsubr
          hstemhm
          279 215 548 184 -184 250 hintmask 11101000
          279 221 rmoveto
          -126 -121 -15 -95 -28 -11 callsubr
          720 hlineto
          219 288 81 268 225 -239 86 -188 9 hvcurveto
          hintmask 11110000
          172 29 189 73 204 vvcurveto
          317 -360 10 -233 vhcurveto
          -568 52 callsubr
          155 -63 61 48 -213 vvcurveto
          240 -393 rmoveto
          212 311 -3 -291 -159 -125 -90 -151 hvcurveto
          -162 hlineto
          -91 -19 118 69 hvcurveto
          268 vlineto
          30 0 36 25 22 vhcurveto
          -25 597 rmoveto
          46 hlineto
          209 -1 278 -2 -281 vvcurveto
          -194 -152 -49 -168 vhcurveto
          -133 hlineto
          -26 -35 13 17 -19 hvcurveto
          endchar
        </CharString>
        <CharString name="C">
          14 callgsubr
          hstem
          111 234 vstem
          1279 1245 -83 callgsubr
        </CharString>
        <CharString name="CR">
          328 endchar
        </CharString>
        <CharString name="Cacute">
          14 callgsubr
          637 -20 hstem
          111 234 vstem
          1097 -101 callsubr
          182 -571 -83 callgsubr
        </CharString>
        <CharString name="Ccaron">
          14 callgsubr
          562 -20 hstem
          110 234 vstem
          805 -100 callsubr
          473 -245 -83 callgsubr
        </CharString>
        <CharString name="Ccedilla">
          402 33 callgsubr
          110 234 440 163 hintmask 11011110
          762 -11 -88 callgsubr
          516 1256 -41 callsubr
          hvcurveto
          hintmask 11101110
          -35 callgsubr
          vhcurveto
          -77 callsubr
        </CharString>
        <CharString name="Cdotaccent">
          14 callgsubr
          163 72 callgsubr
          110 234 267 219 vstem
          720 -37 callsubr
          558 -443 -83 callgsubr
        </CharString>
        <CharString name="D">
          561 -12 callgsubr
          14 callsubr
          vstem
          665 1225 -73 callgsubr
        </CharString>
        <CharString name="DZcaron">
          1846 43 callgsubr
          1869 -20 hstemhm
          281 9 callsubr
          hintmask 00111100
          2317 -100 callsubr
          488 -1133 -82 callsubr
          hintmask 01011100
          56 callgsubr
          hintmask 10011100
          57 callgsubr
          hintmask 01011100
          56 callsubr
          -2081 1234 -80 callgsubr
          hintmask 00111100
          -72 callsubr
        </CharString>
        <CharString name="Dcaron">
          561 21 -21 1869 -20 hstem
          281 9 callsubr
          vstem
          864 -100 callsubr
          -200 -265 -73 callgsubr
        </CharString>
        <CharString name="Dcroat">
          384 21 -21 1225 194 hstem
          14 callsubr
          vstem
          936 1419 rmoveto
          -493 -118 493 hlineto
          -271 -76 -73 callgsubr
        </CharString>
        <CharString name="Dzcaron">
          1453 22 callgsubr
          899 -20 589 -20 hstemhm
          14 callsubr
          hintmask 01111100
          2122 -61 callsubr
          hintmask 10111100
          -55 callsubr
          -1257 1099 -80 callgsubr
          hintmask 01111100
          -72 callsubr
        </CharString>
        <CharString name="E">
          -28 callsubr
          hstemhm
          271 215 hintmask 01110000
          1236 342 rmoveto
          -34 -36 -15 -48 -22 -43 rrcurveto
          -131 -65 -158 -14 -130 hhcurveto
          -98 hlineto
          -151 -77 18 216 hvcurveto
          337 327 vlineto
          119 57 -80 -102 38 hvcurveto
          57 3 rlineto
          429 -57 vlineto
          -15 -27 rlineto
          -116 -63 -17 -31 -158 hhcurveto
          -288 406 hlineto
          34 1 35 3 34 vhcurveto
          8 66 63 1 73 hhcurveto
          96 150 0 -28 85 hvcurveto
          96 -32 -9 -118 63 -62 -22 callgsubr
          -13 1 -12 -36 -36 -10 -36 hhcurveto
          -1020 52 callsubr
          155 -61 58 35 -201 vvcurveto
          -757 vlineto
          -241 -69 102 -144 -79 vhcurveto
          2 -49 rlineto
          1026 hlineto
          hintmask 10110000
          39 37 -12 39 hhcurveto
          11 10 1 2 11 hvcurveto
          66 351 rlineto
          endchar
        </CharString>
        <CharString name="Eacute">
          -28 callsubr
          652 13 callsubr
          1054 -101 callsubr
          181 -1472 -103 callsubr
        </CharString>
        <CharString name="Ecaron">
          -28 callsubr
          577 -20 hstemhm
          271 215 hintmask 01111000
          763 -100 callsubr
          473 -1146 -103 callsubr
        </CharString>
        <CharString name="Ecircumflex">
          -28 callsubr
          681 13 callsubr
          678 -98 callsubr
          557 -1408 -103 callsubr
        </CharString>
        <CharString name="Edieresis">
          -28 callsubr
          178 218 28 callgsubr
          -136 -15 callsubr
          hintmask 01110110
          458 -70 callgsubr
          338 -1344 -58 callsubr
          hintmask 01111010
          -104 callgsubr
          hintmask 10111010
          -50 callsubr
        </CharString>
        <CharString name="Egrave">
          -28 callsubr
          652 13 callsubr
          302 -79 callgsubr
          933 -1472 -103 callsubr
        </CharString>
        <CharString name="Emacron">
          -28 callsubr
          306 13 callsubr
          979 -16 callgsubr
          858 -1126 -103 callsubr
        </CharString>
        <CharString name="Eng">
          446 -312 186 147 -21 1176 -20 hstem
          47 301 486 377 vstem
          1211 1026 rmoveto
          122 245 -39 50 vvcurveto
          1 -1 61 callsubr
          -546 hlineto
          70 callsubr
          vvcurveto
          -1 -54 231 38 -102 vvcurveto
          -635 vlineto
          -693 771 rlineto
          -372 hlineto
          -4 -18 rlineto
          36 -60 190 30 -106 vvcurveto
          -865 vlineto
          -29 -123 -212 55 -67 vvcurveto
          -9 1 -7 3 -6 21 callsubr
          5 12 1 4 4 vvcurveto
          -1 76 -225 -82 -5 136 -28 802 rcurveline
          817 -873 rlineto
          -251 -71 -65 -40 -27 -20 27 21 39 -38 24 -39 -52 -30 -32 -39 -48 77 -67 84 100 116 95 334 vhcurveto
          endchar
        </CharString>
        <CharString name="Eogonek">
          324 -372 -21 402 -6 callgsubr
          28 callgsubr
          hintmask 10111000
          585 -22 -91 callgsubr
          650 366 -104 callsubr
          hintmask 11011000
          -50 callsubr
        </CharString>
        <CharString name="Eth">
          559 -12 callgsubr
          14 callsubr
          vstem
          665 1225 -80 callgsubr
          -17 1 -17 1 -18 vhcurveto
          -25 callsubr
          162 -46 139 -122 128 hvcurveto
          166 -154 -198 49 -330 hhcurveto
          -592 hlineto
          -1 -19 -1 -17 -15 vvcurveto
          74 -25 125 -14 15 -81 rrcurveto
          6 -37 4 -41 -43 vvcurveto
          409 -430 -49 callsubr
          endchar
        </CharString>
        <CharString name="Euro">
          143 -1 -21 502 309 500 -20 hstem
          838 549 rmoveto
          15 -73 -84 6 -119 hhcurveto
          -176 hlineto
          -2 29 -1 30 29 vvcurveto
          41 408 vlineto
          52 17 14 18 5 33 rrcurveto
          15 -78 -89 7 -123 hhcurveto
          -183 hlineto
          264 26 108 160 152 hhcurveto
          127 95 -93 -180 57 hvcurveto
          124 hlineto
          -18 82 -23 80 -27 75 rrcurveto
          71 -101 -104 41 -111 hhcurveto
          -288 -166 -233 -267 -47 hvcurveto
          -47 hlineto
          -68 -22 -6 -26 -26 11 -17 38 -15 hvcurveto
          76 hlineto
          -2 -22 0 -24 -22 vvcurveto
          -20 1 -21 1 -20 vhcurveto
          -68 hlineto
          -49 -16 -14 -22 -3 -31 rrcurveto
          -18 12 23 -3 59 hhcurveto
          52 hlineto
          -288 46 185 -214 274 hhcurveto
          202 135 127 104 49 hvcurveto
          -116 32 rlineto
          -80 -35 -95 -98 -127 hhcurveto
          -176 -106 181 236 -34 hvcurveto
          372 hlineto
          52 17 15 18 4 34 rrcurveto
          endchar
        </CharString>
        <CharString name="F">
          238 21 -21 1305 -20 hstem
          281 53 callsubr
          1075 901 rmoveto
          -59 2 -32 -53 -12 -83 -69 -18 rlinecurve
          -16 -61 -66 -4 -67 -66 -67 4 -80 hhcurveto
          427 vlineto
          69 13 3 68 vhcurveto
          192 hlineto
          71 72 0 -10 70 hvcurveto
          114 -17 19 -138 67 -74 45 2 rcurveline
          310 -168 vlineto
          -334 -334 -3 -333 hhcurveto
          -51 vlineto
          160 -58 63 38 -210 vvcurveto
          -760 vlineto
          -221 -75 76 -142 -64 -11 callsubr
          674 52 hlineto
          -152 54 -92 -70 222 vvcurveto
          399 249 vlineto
          162 23 -12 -182 88 hvcurveto
          19 19 1 2 19 hvcurveto
          endchar
        </CharString>
        <CharString name="G">
          522 -34 callsubr
          hstem
          91 239 815 220 vstem
          1365 463 -83 callsubr
        </CharString>
        <CharString name="Gbreve">
          522 34 callsubr
          90 239 236 493 86 220 hintmask 11011110
          565 -76 callsubr
          742 -1254 -85 callgsubr
          hintmask 10111110
          -56 callsubr
        </CharString>
        <CharString name="Gcommaaccent">
          522 36 callgsubr
          90 239 323 -23 callgsubr
          173 220 hintmask 11111101
          652 -317 -47 callsubr
          712 780 -83 callsubr
        </CharString>
        <CharString name="Gdotaccent">
          522 -34 callsubr
          163 72 callgsubr
          90 239 373 219 223 220 vstem
          811 -37 callsubr
          553 -1225 -83 callsubr
        </CharString>
        <CharString name="H">
          659 -12 callgsubr
          275 215 714 53 callsubr
          1204 625 rmoveto
          -373 vlineto
          -214 -79 81 -124 -67 -11 callsubr
          629 52 hlineto
          -158 55 -55 -52 212 vvcurveto
          763 vlineto
          203 58 -38 155 55 52 callgsubr
          -627 52 callsubr
          128 -63 75 53 -194 vvcurveto
          -335 -714 325 vlineto
          216 80 -67 141 64 52 callgsubr
          -643 52 callsubr
          141 -63 70 57 -207 vvcurveto
          -773 vlineto
          -222 -61 73 -151 -64 vhcurveto
          -17 2 -18 1 -17 vhcurveto
          644 29 callgsubr
          rlineto
          -143 58 -79 -68 213 vvcurveto
          370 vlineto
          endchar
        </CharString>
        <CharString name="Hbar">
          588 21 -21 576 349 251 -20 hstemhm
          64 420 46 callsubr
          -215 439 223 425 46 callsubr
          -215 422 hintmask 1110101000000000
          69 1176 rmoveto
          -3 -10 -1 -6 -1 -59 204 31 -101 vvcurveto
          -900 vlineto
          hintmask 1111001000000000
          -116 -205 30 callsubr
          635 hlineto
          hintmask 1110011000000000
          3 9 1 5 3 vvcurveto
          hintmask 1111000100000000
          56 -224 -52 103 vvcurveto
          452 657 -446 vlineto
          hintmask 1111001000000000
          -116 -210 30 callsubr
          623 hlineto
          hintmask 1111000010000000
          3 9 1 5 3 vvcurveto
          hintmask 1111001000000000
          56 -207 -52 103 vvcurveto
          906 vlineto
          102 204 -28 54 vvcurveto
          2 -2 61 callsubr
          -619 25 callsubr
          hintmask 1111000100000000
          -59 209 34 -104 vvcurveto
          -105 -657 105 vlineto
          109 221 -40 59 vvcurveto
          2 -2 61 callsubr
          -216 -540 rmoveto
          171 657 -171 vlineto
          endchar
        </CharString>
        <CharString name="I">
          -12 callgsubr
          276 53 callsubr
          491 1081 rmoveto
          136 130 0 96 33 52 callgsubr
          -663 52 callsubr
          123 -73 103 106 -254 vvcurveto
          -752 vlineto
          -258 -75 99 -147 -67 vhcurveto
          -52 665 vlineto
          2 53 rlineto
          -153 55 -77 -62 214 vvcurveto
          endchar
        </CharString>
        <CharString name="IJ">
          456 -333 211 143 -14 callsubr
          hstem
          276 215 549 53 callsubr
          815 1302 -47 callgsubr
          -990 -221 -103 callgsubr
        </CharString>
        <CharString name="Iacute">
          21 -21 1944 26 callgsubr
          761 -101 callsubr
          -271 -735 -103 callgsubr
        </CharString>
        <CharString name="Ibreve">
          21 -21 1717 -20 hstemhm
          139 493 -356 215 hintmask 11100000
          139 -76 callsubr
          hintmask 11010000
          295 -636 -103 callgsubr
        </CharString>
        <CharString name="Icircumflex">
          21 -21 1973 26 callgsubr
          385 -98 callsubr
          105 -671 -103 callgsubr
        </CharString>
        <CharString name="Idieresis">
          42 callsubr
          56 218 1 215 6 218 vstem
          165 -70 callgsubr
          -114 -607 -103 callgsubr
        </CharString>
        <CharString name="Idot">
          42 callsubr
          276 53 callsubr
          385 -37 callsubr
          106 -607 -103 callgsubr
        </CharString>
        <CharString name="Igrave">
          21 -21 1944 26 callgsubr
          9 -79 callgsubr
          481 -735 -103 callgsubr
        </CharString>
        <CharString name="Imacron">
          21 -21 1598 26 callgsubr
          686 -16 callgsubr
          406 -389 -103 callgsubr
        </CharString>
        <CharString name="Iogonek">
          -360 -21 402 -14 callsubr
          hstem
          276 53 callsubr
          294 -10 -91 callgsubr
          197 1091 -103 callgsubr
        </CharString>
        <CharString name="Itilde">
          21 71 callsubr
          243 hstem
          275 53 callsubr
          125 -50 callgsubr
          403 -399 -103 callgsubr
        </CharString>
        <CharString name="J">
          -310 -333 211 1424 -20 hstem
          274 53 callsubr
          49 1302 rmoveto
          -3 -52 rlineto
          155 -55 73 54 -214 vvcurveto
          -1029 vlineto
          -96 -7 -161 -72 vhcurveto
          -78 18 129 -104 hhcurveto
          -50 -39 -33 -52 -97 124 -29 76 278 69 274 229 hvcurveto
          874 vlineto
          216 85 -70 142 61 vhcurveto
          51 vlineto
          endchar
        </CharString>
        <CharString name="Jcircumflex">
          -310 -333 211 2095 -20 hstem
          274 53 callsubr
          329 -98 callsubr
          -280 -450 -47 callgsubr
          endchar
        </CharString>
        <CharString name="K">
          532 -14 callgsubr
          hstemhm
          46 442 46 callsubr
          237 229 -229 349 hintmask 11010100
          488 1166 -6 callsubr
          hintmask 11101000
          -56 callgsubr
          hintmask 11010100
          11 callsubr
        </CharString>
        <CharString name="Kcommaaccent">
          532 -13 callsubr
          1302 -20 hstemhm
          46 442 46 callsubr
          0 278 -166 -23 callgsubr
          -194 229 -229 349 hintmask 1111100100000000
          600 -291 rmoveto
          hintmask 1111001000000000
          -81 57 -67 109 vhcurveto
          hintmask 1111100010000000
          -87 callsubr
          hintmask 1111010100000000
          -19 callsubr
          -112 1457 -6 callsubr
          hintmask 1111100001000000
          -56 callgsubr
          hintmask 1111010000100000
          11 callsubr
        </CharString>
        <CharString name="L">
          237 10 -21 32 -14 callsubr
          hstemhm
          276 216 hintmask 01110000
          276 240 rmoveto
          -152 -121 4 -110 -38 vhcurveto
          2 -54 rlineto
          953 hlineto
          hintmask 10110000
          73 73 -5 -6 73 hvcurveto
          63 353 -60 2 -34 -36 -18 -48 -22 -43 rlinecurve
          -126 -66 -117 -17 -123 -44 -45 2 -44 hhcurveto
          -189 -28 48 188 hvcurveto
          728 vlineto
          223 79 -75 153 62 vhcurveto
          52 -676 vlineto
          -2 -51 rlineto
          164 -52 66 51 -216 vvcurveto
          endchar
        </CharString>
        <CharString name="Lacute">
          237 22 callgsubr
          1944 -20 hstemhm
          275 216 hintmask 01110000
          1039 -101 callsubr
          -764 -1576 -30 callsubr
          hintmask 10110000
          -86 callgsubr
        </CharString>
        <CharString name="Lcaron">
          237 22 callgsubr
          1327 -20 hstemhm
          275 216 1025 333 hintmask 01111000
          1514 748 -74 callsubr
          -1239 -508 -30 callsubr
          hintmask 10111000
          -86 callgsubr
        </CharString>
        <CharString name="Lcommaaccent">
          237 -620 -3 callgsubr
          491 -14 callsubr
          hstemhm
          276 216 12 -23 callgsubr
          hintmask 11111100
          504 -302 -38 callgsubr
          hintmask 11111100
          -19 callsubr
          -228 542 -30 callsubr
          -86 callgsubr
        </CharString>
        <CharString name="Ldot">
          85 22 callgsubr
          461 296 545 -20 hstemhm
          276 216 126 306 hintmask 01111100
          618 609 -9 callgsubr
          -342 -369 -30 callsubr
          hintmask 10111100
          -86 callgsubr
        </CharString>
        <CharString name="Lslash">
          236 -5 -21 47 -21 1176 -20 hstemhm
          276 215 -215 450 hintmask 11110000
          489 623 rmoveto
          229 93 rlineto
          83 34 30 12 25 vvcurveto
          26 -15 18 -28 -23 -32 -9 -20 -50 vhcurveto
          -477 -193 rlineto
          -83 -32 -27 -20 -23 vvcurveto
          -25 19 -18 20 21 31 10 23 56 vhcurveto
          248 520 rmoveto
          hintmask 11101000
          114 235 -69 68 vvcurveto
          5 -1 7 -3 7 vhcurveto
          -670 25 callsubr
          49 -69 179 57 -109 vvcurveto
          -896 vlineto
          hintmask 11110000
          -116 -230 72 -76 vvcurveto
          -7 1 -7 3 -8 vhcurveto
          836 hlineto
          62 52 -13 -13 45 hvcurveto
          4 2 2 4 2 hvcurveto
          28 361 rlineto
          -19 -2 5 -3 hhcurveto
          -26 -23 -73 -66 -16 hvcurveto
          -29 -115 -35 -22 -86 -3 -306 -11 rcurveline
          -35 -10 39 41 hvcurveto
          endchar
        </CharString>
        <CharString name="M">
          898 -12 callgsubr
          1616 1082 rmoveto
          106 84 28 83 28 vhcurveto
          18 6 -2 52 rlineto
          -412 hlineto
          -2 -225 -299 -591 -104 -219 -136 348 -225 320 -86 367 rrcurveto
          -389 52 callsubr
          80 -42 105 10 -123 vvcurveto
          -42 -3 -45 -4 -41 vhcurveto
          -76 -748 -13 -126 -97 -4 -93 -38 rlinecurve
          2 -52 rlineto
          484 29 callgsubr
          rlineto
          -100 36 -91 13 131 vvcurveto
          263 42 271 23 263 vhcurveto
          139 -351 220 -321 116 -357 rrcurveto
          79 hlineto
          114 368 208 337 133 363 62 -844 rcurveline
          -13 vlineto
          -112 -110 -19 -84 -28 -11 callsubr
          623 29 callgsubr
          -40 31 -105 -24 -20 58 rlinecurve
          -38 42 -13 57 -5 55 rrcurveto
          endchar
        </CharString>
        <CharString name="N">
          44 callsubr
          1302 70 callgsubr
          46 54 rmoveto
          -18 0 -18 2 -18 55 callsubr
          18 1 17 18 vvcurveto
          -76 39 -124 -27 -27 107 rrcurveto
          -11 44 -6 46 45 vvcurveto
          702 vlineto
          790 -831 58 -60 54 -63 52 -64 rlinecurve
          hintmask 10100000
          -5 18 20 -2 19 hhcurveto
          16 17 1 6 16 hvcurveto
          -3 121 -20 119 122 vvcurveto
          202 3 202 2 202 vhcurveto
          2 225 31 -17 178 81 rrcurveto
          54 -527 vlineto
          -2 -18 -1 -17 -18 vvcurveto
          76 -38 96 19 33 -99 rrcurveto
          20 -58 7 -54 -61 vvcurveto
          -629 vlineto
          -941 973 rlineto
          -349 -52 hlineto
          110 -45 74 3 71 -117 rrcurveto
          -852 vlineto
          -13 -147 -121 -7 -111 -31 rrcurveto
          endchar
        </CharString>
        <CharString name="NULL">
          -1036 endchar
        </CharString>
        <CharString name="Nacute">
          44 callsubr
          1944 70 callgsubr
          1205 -101 callsubr
          -926 -1577 -88 callsubr
        </CharString>
        <CharString name="Ncaron">
          44 callsubr
          1869 70 callgsubr
          914 -100 callsubr
          -634 -1251 -88 callsubr
        </CharString>
        <CharString name="Ncommaaccent">
          625 -625 -20 callsubr
          37 -14 callsubr
          hstemhm
          670 -23 callgsubr
          hintmask 11011100
          670 -307 -42 callgsubr
          hintmask 11011010
          -87 callsubr
          hintmask 11011100
          -19 callsubr
          -390 546 -69 callsubr
          hintmask 11101100
          -86 callsubr
        </CharString>
        <CharString name="Ntilde">
          44 callsubr
          1470 243 hstemhm
          hintmask 01100000
          569 -50 callgsubr
          -252 -1241 -88 callsubr
        </CharString>
        <CharString name="O">
          -7 callsubr
          hstem
          100 -4 callsubr
          vstem
          333 720 -93 callgsubr
        </CharString>
        <CharString name="OE">
          1055 -8 -21 49 -21 1323 -20 hstem
          91 234 vstem
          325 718 rmoveto
          313 161 193 239 161 107 -6 -9 69 vhcurveto
          3 -346 2 -376 -386 vvcurveto
          -12 -22 -109 -9 -167 hhcurveto
          -313 -131 341 297 hvcurveto
          829 hmoveto
          202 -5 160 115 vvcurveto
          30 77 5 34 vhcurveto
          163 -2 192 4 117 -21 109 -20 1 -141 60 -61 rrcurveto
          16 17 1 2 18 hvcurveto
          327 vlineto
          2 -40 -34 1 -33 hhcurveto
          -18 -98 -49 -3 -146 -67 -88 1 -122 hhcurveto
          -503 hlineto
          -380 -302 -244 -402 -367 252 -290 415 hvcurveto
          1052 hlineto
          46 34 -28 42 hhcurveto
          9 8 3 5 20 hvcurveto
          52 341 rlineto
          2 -24 -18 0 -17 hhcurveto
          -81 -68 -5 -138 -115 -25 -56 -12 -60 -7 -65 -1 -135 -2 -135 0 -136 -1 rrcurveto
          -15 -4 19 18 hvcurveto
          1 157 0 171 209 vvcurveto
          362 hlineto
          45 39 -6 -8 35 hvcurveto
          64 -14 27 -93 28 -64 rrcurveto
          21 21 1 2 21 hvcurveto
          434 vlineto
          2 -24 -20 0 -19 hhcurveto
          -29 -59 -16 -89 -67 -16 -131 -14 -190 1 -169 -1 rrcurveto
          endchar
        </CharString>
        <CharString name="Oacute">
          13 callgsubr
          1165 -101 callsubr
          -833 -1096 -93 callgsubr
        </CharString>
        <CharString name="Obreve">
          544 34 callsubr
          100 233 210 493 210 233 cntrmask 00001110
          hintmask 11011110
          543 -76 callsubr
          -267 -997 -94 callgsubr
          vhcurveto
          hintmask 10111110
          -62 callgsubr
        </CharString>
        <CharString name="Ocircumflex">
          -7 callsubr
          666 -20 hstem
          100 -4 callsubr
          vstem
          792 -98 callsubr
          -459 -1032 -93 callgsubr
        </CharString>
        <CharString name="Odieresis">
          -7 callsubr
          163 72 callgsubr
          100 233 130 -15 callsubr
          125 233 vstem
          572 -70 callgsubr
          -678 -968 -93 callgsubr
        </CharString>
        <CharString name="Ograve">
          13 callgsubr
          413 -79 callgsubr
          -81 -1096 -93 callgsubr
        </CharString>
        <CharString name="Ohungarumlaut">
          -7 callsubr
          591 -20 hstem
          99 -4 callsubr
          vstem
          1239 1856 -84 callsubr
          -603 -1135 -93 callgsubr
        </CharString>
        <CharString name="Omacron">
          544 -5 -21 1276 348 -271 -20 hstemhm
          99 -4 callsubr
          hintmask 11011000
          1090 -16 callgsubr
          -156 -750 -94 callgsubr
          vhcurveto
          hintmask 10111000
          -62 callgsubr
        </CharString>
        <CharString name="Oslash">
          543 -115 -21 131 -32 callsubr
          106 -20 hstem
          101 -4 callsubr
          vstem
          1117 1046 rmoveto
          80 -115 50 -163 -182 vvcurveto
          -338 -182 -197 -239 -103 -93 42 78 -72 vhcurveto
          201 351 188 285 170 239 rrcurveto
          -638 -799 rmoveto
          -87 110 -58 175 191 vvcurveto
          336 194 191 230 109 102 -45 -78 76 vhcurveto
          77 114 rmoveto
          59 -99 -108 27 -121 hhcurveto
          -378 -315 -267 -419 -247 105 -171 176 -118 hvcurveto
          -67 -110 -16 -22 -15 -23 -13 -21 rlinecurve
          12 -29 23 -25 24 -11 66 32 34 73 48 88 rrcurveto
          -57 84 100 -26 110 hhcurveto
          383 325 265 409 232 -103 188 -161 121 hvcurveto
          55 88 27 37 25 42 -13 23 -16 23 -38 11 -81 -30 -8 -63 -45 -79 rrcurveto
          endchar
        </CharString>
        <CharString name="Otilde">
          544 -5 -21 1276 353 67 callgsubr
          100 -4 callsubr
          hintmask 10111100
          532 1480 -27 callsubr
          -161 -760 rmoveto
          hintmask 11001100
          -97 callsubr
          vhcurveto
          hintmask 10111100
          -62 callgsubr
        </CharString>
        <CharString name="P">
          258 -12 callgsubr
          274 216 518 233 vstem
          274 222 rmoveto
          -126 -116 -16 -96 -28 vhcurveto
          3 -52 rlineto
          650 29 callgsubr
          rlineto
          -164 65 -63 -84 242 vvcurveto
          952 vlineto
          3 32 33 2 32 hhcurveto
          198 223 -71 -236 -255 -164 -38 -213 hvcurveto
          -15 hlineto
          -18 -26 -2 -16 -45 175 -21 33 247 214 120 271 353 -410 10 -270 hvcurveto
          -496 52 callsubr
          146 -62 65 46 -204 vvcurveto
          endchar
        </CharString>
        <CharString name="Q">
          544 -293 -21 1641 -20 hstem
          100 234 912 233 vstem
          334 729 rmoveto
          323 189 198 235 290 198 -297 -366 -354 -194 -182 -229 -269 -220 263 415 vhcurveto
          1244 -942 rmoveto
          -282 25 -119 50 -265 127 rrcurveto
          317 62 250 244 356 vvcurveto
          412 -313 264 -374 -377 -315 -266 -420 -355 226 -215 312 -82 vhcurveto
          94 -62 229 -122 105 -49 rrcurveto
          -49 102 82 -21 136 hhcurveto
          75 78 12 17 51 hvcurveto
          endchar
        </CharString>
        <CharString name="R">
          60 callgsubr
          1303 -20 hstem
          278 50 callsubr
          1269 -26 rmoveto
          59 59 10 14 58 hvcurveto
          56 vlineto
          -92 25 -77 40 -63 74 -124 145 -113 158 -117 151 rrcurveto
          174 25 190 98 200 vvcurveto
          332 -440 1 -248 vhcurveto
          -461 hlineto
          -2 -52 rlineto
          140 -62 66 42 -196 vvcurveto
          -758 vlineto
          -255 -74 102 -132 -72 -11 callsubr
          633 29 callgsubr
          rlineto
          -131 62 -85 -78 215 vvcurveto
          385 vlineto
          63 -4 81 -6 19 -19 43 -65 rlinecurve
          -198 132 159 -370 279 hhcurveto
          -776 1253 rmoveto
          22 hlineto
          199 276 -1 -268 -248 -253 -3 -192 -3 hvcurveto
          -18 -18 -1 -16 hhcurveto
          endchar
        </CharString>
        <CharString name="Racute">
          60 callgsubr
          1944 -20 hstem
          278 50 callsubr
          1135 -101 callsubr
          -579 -1184 -92 callgsubr
        </CharString>
        <CharString name="Rcaron">
          60 callgsubr
          1869 -20 hstem
          277 50 callsubr
          843 -100 callsubr
          -288 -858 -92 callgsubr
        </CharString>
        <CharString name="Rcommaaccent">
          377 -635 -20 callsubr
          47 -21 1303 -20 hstemhm
          277 215 107 -23 callgsubr
          71 233 hintmask 1111111010000000
          599 -317 -42 callgsubr
          hintmask 1111110110000000
          -87 callsubr
          hintmask 1111111010000000
          -19 callsubr
          -44 949 -92 callgsubr
        </CharString>
        <CharString name="S">
          106 -34 callsubr
          hstem
          137 51 callgsubr
          120 77 rmoveto
          -67 110 195 -36 136 hhcurveto
          230 250 105 265 hvcurveto
          393 -717 80 258 vvcurveto
          123 145 52 102 138 125 -63 -136 47 vhcurveto
          12 -34 9 -36 17 -32 rrcurveto
          62 hlineto
          -13 285 rlineto
          60 -117 -133 33 -131 hhcurveto
          -210 -240 -90 -246 hvcurveto
          -374 709 -74 -275 vvcurveto
          -144 -147 -66 -125 -160 -149 79 160 -48 vhcurveto
          -11 36 -8 37 -19 32 -59 -2 rcurveline
          endchar
        </CharString>
        <CharString name="Sacute">
          106 -34 callsubr
          637 -20 hstem
          137 51 callgsubr
          952 -101 callsubr
          -841 -1739 rmoveto
          -98 callgsubr
        </CharString>
        <CharString name="Scaron">
          106 -34 callsubr
          562 -20 hstem
          136 51 callgsubr
          660 -100 callsubr
          -550 -1413 rmoveto
          -98 callgsubr
        </CharString>
        <CharString name="Scedilla">
          106 33 callgsubr
          136 187 316 163 43 195 hintmask 11011111
          617 -11 -88 callgsubr
          -507 88 rmoveto
          hintmask 11101111
          -98 callgsubr
        </CharString>
        <CharString name="Scommaaccent">
          106 36 callgsubr
          136 187 93 -23 callgsubr
          110 195 hintmask 11111101
          416 -317 -47 callsubr
          -306 394 rmoveto
          -98 callgsubr
        </CharString>
        <CharString name="T">
          359 21 -21 1310 -20 hstem
          586 53 callsubr
          586 241 rmoveto
          -146 -117 -6 -108 -37 -11 callsubr
          662 hlineto
          2 17 0 18 17 vvcurveto
          -137 17 -89 11 161 vvcurveto
          987 19 vlineto
          44 45 1 45 hhcurveto
          52 52 -1 -8 51 hvcurveto
          102 -15 47 -151 59 -73 rrcurveto
          48 hlineto
          -32 329 rlineto
          -10 -152 -153 -2 -153 -195 -195 4 -194 hhcurveto
          -77 -78 3 3 -77 hvcurveto
          -25 -326 rlineto
          46 hlineto
          61 74 47 148 106 16 rrcurveto
          7 47 50 1 49 hhcurveto
          146 hlineto
          endchar
        </CharString>
        <CharString name="Tbar">
          144 21 -21 1193 -20 hstemhm
          241 444 46 callsubr
          hintmask 11010000
          888 699 rmoveto
          -632 -72 632 hlineto
          -848 245 rmoveto
          -3 9 5 -1 3 hhcurveto
          21 22 56 45 16 hvcurveto
          29 84 28 57 66 2 231 8 rcurveline
          -990 vlineto
          hintmask 11100000
          -118 -229 73 -67 vvcurveto
          -7 1 -6 3 -5 vhcurveto
          670 hlineto
          3 9 1 5 3 61 -234 -57 103 vvcurveto
          996 vlineto
          273 -8 65 -3 23 -52 27 -88 rlinecurve
          -44 13 23 -57 18 hhcurveto
          6 6 1 3 6 hvcurveto
          -45 321 rlineto
          -28 hlineto
          -16 -50 -14 -27 hhcurveto
          -754 -6 rlineto
          7 -44 -31 11 -41 -6 -16 -2 -14 hhcurveto
          endchar
        </CharString>
        <CharString name="Tcaron">
          359 21 -21 1869 -20 hstem
          586 53 callsubr
          784 -100 callsubr
          -198 -1249 -41 callgsubr
          204 vlineto
          38 -2 35 -2 31 -4 -53 callsubr
          14 78 11 48 callsubr
        </CharString>
        <CharString name="Tcommaaccent">
          359 -400 -21 442 -21 1310 -20 hstemhm
          586 215 -38 163 hintmask 11101000
          741 15 -88 callgsubr
          hintmask 11110000
          -155 226 -57 callsubr
        </CharString>
        <CharString name="Thorn">
          258 21 -21 957 345 hstem
          273 216 517 234 vstem
          489 957 rmoveto
          221 296 -5 -298 -200 -162 -79 -179 -59 -58 2 3 -59 hvcurveto
          -216 -166 rmoveto
          -127 -116 -3 -91 -32 -11 callsubr
          649 hlineto
          2 51 -11 3 -10 2 -10 2 rlinecurve
          -172 40 -27 7 203 vvcurveto
          -5 76 77 -3 76 hhcurveto
          235 287 85 283 348 -396 17 -276 hvcurveto
          -79 39 hlineto
          138 116 4 98 36 52 callgsubr
          -633 -51 hlineto
          124 -66 81 71 -208 vvcurveto
          endchar
        </CharString>
        <CharString name="U">
          23 callgsubr
          1328 -20 hstem
          244 53 callsubr
          29 1302 rmoveto
          -3 -51 64 -23 126 -10 18 -79 rlinecurve
          9 -37 1 -40 -38 -118 -5 -121 -121 vvcurveto
          -88 3 -88 9 -87 vhcurveto
          -300 33 261 -127 276 hhcurveto
          526 56 356 384 hvcurveto
          103 -4 105 100 vvcurveto
          43 4 44 12 41 vhcurveto
          27 88 118 -22 65 34 -2 52 rcurveline
          -539 -51 hlineto
          177 -61 56 46 -230 vvcurveto
          -393 vlineto
          -291 -97 -240 -332 -333 -96 221 293 vhcurveto
          427 vlineto
          228 65 -61 167 60 52 callgsubr
          endchar
        </CharString>
        <CharString name="Uacute">
          23 callgsubr
          1970 0 callgsubr
          1201 -101 callsubr
          -1173 -514 -107 callgsubr
        </CharString>
        <CharString name="Ubreve">
          23 callgsubr
          1743 -20 hstem
          244 215 120 493 vstem
          579 -76 callsubr
          -607 -415 -107 callgsubr
        </CharString>
        <CharString name="Ucircumflex">
          23 callgsubr
          1999 0 callgsubr
          825 -98 callsubr
          -797 -450 -107 callgsubr
        </CharString>
        <CharString name="Udieresis">
          23 callgsubr
          1496 72 callgsubr
          244 215 38 -15 callsubr
          vstem
          606 -70 callgsubr
          -1016 -386 -107 callgsubr
        </CharString>
        <CharString name="Ugrave">
          23 callgsubr
          1970 0 callgsubr
          449 -79 callgsubr
          -421 -514 -107 callgsubr
        </CharString>
        <CharString name="Uhungarumlaut">
          23 callgsubr
          1924 0 callgsubr
          1275 1856 -84 callsubr
          -943 -553 -107 callgsubr
        </CharString>
        <CharString name="Umacron">
          23 callgsubr
          1624 0 callgsubr
          1126 -16 callgsubr
          -496 -168 -107 callgsubr
        </CharString>
        <CharString name="Uogonek">
          603 -386 63 callsubr
          1328 0 callgsubr
          732 -36 -91 callgsubr
          -704 1338 -107 callgsubr
        </CharString>
        <CharString name="Uring">
          23 callgsubr
          1880 -20 hstem
          243 215 172 390 vstem
          825 1781 -71 callsubr
          -797 -552 -107 callgsubr
        </CharString>
        <CharString name="V">
          369 2 -21 1321 -20 hstem
          402 1138 rmoveto
          73 133 14 52 17 vhcurveto
          20 -5 20 -1 20 vhcurveto
          -589 hlineto
          -2 -57 106 -32 43 -16 49 -109 rlinecurve
          167 -368 164 -367 161 -370 rrcurveto
          -2 14 13 0 14 hhcurveto
          17 32 8 0 0 222 570 116 274 hvcurveto
          41 96 48 206 98 46 43 20 47 19 39 27 rrcurveto
          18 -1 19 -2 18 vhcurveto
          -516 hlineto
          -2 -11 -1 -11 -11 vvcurveto
          -10 1 -10 2 -9 vhcurveto
          76 -24 121 1 -103 vvcurveto
          -138 -244 -511 -79 -214 vhcurveto
          -92 235 -285 587 65 vvcurveto
          endchar
        </CharString>
        <CharString name="W">
          880 0 -21 23 -21 1321 -20 hstemhm
          1355 331 hintmask 10110000
          375 1182 rmoveto
          88 177 -53 65 vvcurveto
          6 -4 9 -1 5 vhcurveto
          -643 hlineto
          -7 -22 65 -64 118 16 40 -104 rlinecurve
          123 -321 118 -324 121 -322 rrcurveto
          -42 16 31 -140 56 hhcurveto
          19 14 4 18 9 hvcurveto
          37 73 22 97 27 78 259 745 rcurveline
          284 -827 18 -52 13 -66 25 -48 rlinecurve
          hintmask 01110000
          -17 9 16 -3 18 hhcurveto
          14 23 3 17 5 hvcurveto
          299 991 16 55 15 56 19 54 rlinecurve
          36 102 238 -22 54 vvcurveto
          5 -3 -10 6 -5 hhcurveto
          -517 hlineto
          -6 -20 6 -11 rlineto
          56 -30 145 19 -73 vvcurveto
          -52 -229 -679 -33 -101 vhcurveto
          -31 90 -230 711 32 86 192 -63 71 vvcurveto
          4 -5 12 -1 4 vhcurveto
          -642 hlineto
          -1 -3 -6 -14 -3 vvcurveto
          -22 159 -46 26 -22 vhcurveto
          17 -40 15 -41 17 -40 -269 -718 rcurveline
          -62 171 -228 637 21 vvcurveto
          endchar
        </CharString>
        <CharString name="X">
          427 -12 callgsubr
          1053 1029 rmoveto
          29 37 28 32 26 28 75 82 123 25 42 17 rrcurveto
          17 0 18 -2 17 vhcurveto
          -513 3 callsubr
          90 -18 56 -45 -53 vvcurveto
          -34 -12 -20 -50 -62 vhcurveto
          -183 -226 -233 307 rlineto
          -10 20 -7 14 15 vvcurveto
          54 78 36 77 16 vhcurveto
          20 callsubr
          -642 hlineto
          -2 -23 0 -17 -16 vvcurveto
          68 -26 101 -14 83 -109 359 -469 rcurveline
          -313 -376 -27 -33 -25 -29 -22 -25 rlinecurve
          -66 -71 -107 -21 -54 -21 rrcurveto
          -18 0 -17 2 -17 vhcurveto
          521 hlineto
          1 11 0 10 9 vvcurveto
          9 0 9 -1 9 vhcurveto
          -81 16 -83 21 50 vvcurveto
          38 40 64 39 48 vhcurveto
          223 271 263 -349 rlineto
          14 -19 6 -26 -15 vvcurveto
          -58 -81 -29 -75 -17 vhcurveto
          -18 0 -17 2 -17 vhcurveto
          652 hlineto
          1 19 1 17 16 vvcurveto
          -18 7 -41 10 -31 9 -80 22 -35 37 -75 99 -371 489 rcurveline
          endchar
        </CharString>
        <CharString name="Y">
          294 -12 callgsubr
          1341 1250 rmoveto
          -2 52 rlineto
          -500 hlineto
          -1 -11 -1 -9 -9 vvcurveto
          2 -27 rlineto
          52 -16 113 -19 -71 vvcurveto
          -103 -233 -326 -27 -44 vhcurveto
          -45 71 -240 343 61 vvcurveto
          69 108 30 53 9 52 callgsubr
          -620 -51 hlineto
          58 -13 106 -53 33 -51 39 callsubr
          -229 -95 96 -123 -69 -11 callsubr
          646 29 callgsubr
          rlineto
          -128 59 -89 -70 205 vvcurveto
          337 vlineto
          328 503 58 89 73 31 90 37 rlinecurve
          endchar
        </CharString>
        <CharString name="Yacute">
          294 21 -21 1944 -20 hstem
          560 53 callsubr
          1045 -101 callsubr
          58 -730 -66 callgsubr
        </CharString>
        <CharString name="Ydieresis">
          294 42 callsubr
          340 218 2 215 5 218 vstem
          449 -70 callgsubr
          215 -602 -66 callgsubr
        </CharString>
        <CharString name="Z">
          249 11 -21 31 -21 1307 70 callgsubr
          1209 357 rmoveto
          -56 2 -43 -44 -34 -58 -29 -54 rlinecurve
          -37 -69 -31 -30 -79 -12 rrcurveto
          -16 -104 -109 -2 -107 hhcurveto
          -139 hlineto
          -31 -30 6 9 -29 hvcurveto
          23 38 25 35 26 36 765 1047 rcurveline
          1 27 rlineto
          11 -1 14 -12 5 vhcurveto
          -329 -329 5 -328 hhcurveto
          -32 hlineto
          -27 -332 rlineto
          -2 18 17 -1 18 hhcurveto
          31 44 23 49 26 47 rrcurveto
          112 62 82 1 111 hhcurveto
          146 250 0 0 0 -63 -91 -11 -15 hvcurveto
          -780 -1076 4 -43 rlineto
          897 hlineto
          hintmask 10100000
          47 48 -10 49 hhcurveto
          41 hlineto
          endchar
        </CharString>
        <CharString name="Zacute">
          249 43 callgsubr
          1944 -20 hstemhm
          hintmask 00110000
          1012 -101 callsubr
          197 -1459 -82 callsubr
          hintmask 01010000
          56 callgsubr
          hintmask 10010000
          57 callgsubr
          hintmask 01010000
          56 callsubr
          endchar
        </CharString>
        <CharString name="Zcaron">
          249 43 callgsubr
          1869 -20 hstemhm
          hintmask 00110000
          720 -100 callsubr
          488 -1133 rmoveto
          -23 -17 2 -16 hhcurveto
          -39 -40 -34 -58 -29 -51 -1 -2 -2 -3 -1 -2 -67 callsubr
          -48 -46 5 -49 hhcurveto
          -10 -11 0 -1 -11 -44 callgsubr
          rrcurveto
          286 hlineto
          1 12 12 0 11 hhcurveto
          18 17 -1 -1 16 -30 callgsubr
          hintmask 01010000
          56 callgsubr
          hintmask 10010000
          57 callgsubr
          hintmask 01010000
          56 callsubr
          endchar
        </CharString>
        <CharString name="Zdotaccent">
          249 11 -21 22 -21 30 59 callsubr
          hstemhm
          526 219 hintmask 00111000
          635 -37 callsubr
          573 -1331 -82 callsubr
          hintmask 01011000
          56 callgsubr
          hintmask 10011000
          57 callgsubr
          hintmask 01011000
          56 callsubr
          endchar
        </CharString>
        <CharString name="a">
          -20 callgsubr
          -31 callgsubr
          hintmask 11101000
          621 200 rmoveto
          -57 -58 -76 -50 -84 hhcurveto
          -79 -45 49 78 141 239 59 103 35 hvcurveto
          59 vmoveto
          -172 -45 -367 -57 -234 vvcurveto
          -131 109 -67 121 123 107 60 89 82 vhcurveto
          -88 5 61 -61 89 hhcurveto
          102 48 60 83 50 hvcurveto
          -42 45 rlineto
          -23 -18 -38 -46 -32 hhcurveto
          -38 -9 113 112 hvcurveto
          95 6 95 27 vvcurveto
          256 -35 129 -290 vhcurveto
          hintmask 11011000
          -131 -239 -60 -168 -65 39 -61 70 54 37 40 53 hvcurveto
          hintmask 11101000
          35 -34 27 35 vvcurveto
          59 113 31 46 159 24 -113 -130 vhcurveto
          endchar
        </CharString>
        <CharString name="aacute">
          -20 callgsubr
          617 -1 callgsubr
          859 -99 callgsubr
          -238 -1215 -85 callsubr
        </CharString>
        <CharString name="abreve">
          -20 callgsubr
          -74 348 116 -20 hstemhm
          81 15 callsubr
          200 -76 493 -109 187 hintmask 10110010
          236 -76 callgsubr
          hintmask 11011001
          327 -1116 -102 callsubr
          hintmask 11010101
          -59 callsubr
          hintmask 10111001
          -68 callsubr
        </CharString>
        <CharString name="acircumflex">
          -20 callgsubr
          646 -1 callgsubr
          483 -97 callgsubr
          138 -1151 -85 callsubr
        </CharString>
        <CharString name="acute">
          68 callsubr
          650 1442 -107 callsubr
          endchar
        </CharString>
        <CharString name="adieresis">
          -20 callgsubr
          143 218 -15 callgsubr
          -159 -15 callsubr
          -191 191 hintmask 11100110
          263 -77 callgsubr
          hintmask 11110001
          -81 -1087 -102 callsubr
          hintmask 11101010
          -59 callsubr
          hintmask 11110001
          -68 callsubr
        </CharString>
        <CharString name="ae">
          411 1 -21 598 348 -2 -20 hstemhm
          69 193 351 191 hintmask 11011000
          805 544 rmoveto
          181 2 64 127 143 hhcurveto
          113 51 -84 -154 19 hvcurveto
          -24 -14 -29 -11 -30 -6 rrcurveto
          -457 -398 rmoveto
          -47 -63 -108 -46 -90 hhcurveto
          -75 -59 40 73 124 63 33 214 65 hvcurveto
          23 7 27 6 28 6 1 -84 7 -95 32 -82 rrcurveto
          725 369 rmoveto
          205 -125 167 -208 -147 -92 -63 -72 -51 vhcurveto
          hintmask 10111000
          82 -41 -83 51 -149 hhcurveto
          -117 -266 -48 -165 hvcurveto
          hintmask 11011000
          -51 39 -82 49 50 66 66 25 vhcurveto
          26 -35 28 37 vvcurveto
          68 136 24 40 124 41 -102 -128 vhcurveto
          -121 vlineto
          -252 -68 -292 -12 -249 vvcurveto
          -125 99 -67 129 128 152 54 98 113 vhcurveto
          -95 81 104 -57 146 hhcurveto
          143 156 63 136 54 hvcurveto
          -8 12 -10 9 -11 8 rrcurveto
          -51 -74 -67 -29 -121 hhcurveto
          -222 -57 106 228 hvcurveto
          24 vlineto
          endchar
        </CharString>
        <CharString name="agrave">
          -20 callgsubr
          617 -1 callgsubr
          107 -80 callsubr
          514 -1215 -85 callsubr
        </CharString>
        <CharString name="amacron">
          -20 callgsubr
          -74 345 -31 callgsubr
          hintmask 10110100
          784 -9 callsubr
          439 -869 -102 callgsubr
          hintmask 11001100
          -34 callgsubr
          -59 callsubr
          hintmask 10110100
          -68 callsubr
        </CharString>
        <CharString name="ampersand">
          432 -26 191 -172 -21 hstemhm
          73 193 -2 163 hintmask 10010000
          984 886 rmoveto
          -1 -11 -1 -9 -8 vvcurveto
          -10 1 -8 1 -8 vhcurveto
          59 -19 67 -29 -43 vvcurveto
          -13 -4 -16 -8 -20 vhcurveto
          -27 -121 -45 -114 -57 -100 -131 152 -131 172 -105 118 rrcurveto
          186 112 104 66 108 381 -628 -125 -299 vvcurveto
          -82 46 -90 101 -112 vhcurveto
          hintmask 10100000
          -226 -148 -112 -108 -183 vvcurveto
          -183 152 -162 263 160 117 51 127 131 vhcurveto
          hintmask 01100000
          -112 78 107 -68 99 hhcurveto
          112 103 90 213 51 hvcurveto
          -59 43 rlineto
          hintmask 10100000
          -110 -75 -60 -43 -55 hhcurveto
          -62 -54 54 77 -61 hvcurveto
          121 192 36 155 84 133 23 37 86 2 24 20 rrcurveto
          16 0 17 -1 18 vhcurveto
          -1127 -451 rmoveto
          96 60 81 131 90 vhcurveto
          102 -126 158 -202 128 -165 rrcurveto
          -77 -84 -64 -30 -86 hhcurveto
          -203 -142 154 179 hvcurveto
          hintmask 10010000
          161 669 rmoveto
          79 72 67 98 88 64 -99 -80 -87 -71 -66 -120 -69 vhcurveto
          -83 102 -48 84 69 vvcurveto
          endchar
        </CharString>
        <CharString name="aogonek">
          -51 -380 63 callsubr
          592 354 66 callgsubr
          342 187 hintmask 11110100
          452 -30 -91 callgsubr
          168 230 -89 callgsubr
          -68 callsubr
        </CharString>
        <CharString name="aring">
          -20 callgsubr
          -74 291 310 -20 66 callgsubr
          57 390 -105 187 hintmask 10111010
          530 1380 -71 callsubr
          hintmask 11011001
          90 -1253 -102 callsubr
          hintmask 11010110
          -59 callsubr
          29 -34 39 29 vvcurveto
          hintmask 10111001
          -63 callgsubr
        </CharString>
        <CharString name="asciicircum">
          156 743 -21 670 -20 hstem
          653 1369 rmoveto
          15 -24 -28 8 -28 hhcurveto
          -32 -25 -26 -32 -19 -35 -94 -170 -133 -219 -75 -173 rrcurveto
          -12 30 32 -4 32 hhcurveto
          114 148 90 167 102 156 97 -155 88 -176 120 -140 rrcurveto
          32 33 4 12 30 hvcurveto
          -88 201 -142 235 -111 195 rrcurveto
          endchar
        </CharString>
        <CharString name="asciitilde">
          -178 583 268 hstem
          757 846 rmoveto
          -76 -3 -30 -52 -82 -104 -173 133 -142 hhcurveto
          -153 -52 -120 -135 -12 hvcurveto
          91 hlineto
          69 8 36 48 73 110 159 -130 162 hhcurveto
          134 67 108 155 hvcurveto
          endchar
        </CharString>
        <CharString name="asterisk">
          182 316 -21 1014 -20 hstem
          515 185 vstem
          700 1221 rmoveto
          50 -41 38 -50 -47 -47 -33 -50 -128 35 -150 17 -128 vhcurveto
          33 -64 -267 156 -59 hhcurveto
          -52 -39 -48 -50 -42 32 -36 41 -9 hvcurveto
          380 -83 rlineto
          -50 -56 -232 -218 -78 vvcurveto
          -50 47 -44 50 35 31 21 30 15 vhcurveto
          174 349 173 -349 rlineto
          -30 15 32 -21 34 hhcurveto
          50 47 44 50 78 -232 218 -50 56 hvcurveto
          380 83 rlineto
          41 9 32 36 42 vvcurveto
          50 -39 48 -52 -59 -267 -156 -33 -64 vhcurveto
          16 126 34 149 126 vvcurveto
          endchar
        </CharString>
        <CharString name="at">
          661 -91 -21 107 -21 1044 310 hstem
          64 213 1162 198 vstem
          947 1328 rmoveto
          -484 -399 -387 -488 -362 292 -203 340 103 102 18 31 97 hvcurveto
          7 73 rlineto
          -23 -80 -82 -13 -83 hhcurveto
          -323 -160 163 320 386 229 432 432 346 155 -290 -312 -111 -46 -381 -142 -62 -3 77 44 hvcurveto
          137 31 135 137 vvcurveto
          191 -55 155 -220 -289 -198 -276 -271 -178 94 -149 192 111 107 53 86 69 vhcurveto
          -98 22 63 -93 110 hhcurveto
          263 151 356 223 402 -312 216 -378 hvcurveto
          112 -589 rmoveto
          -127 -21 -128 -13 -126 vhcurveto
          -56 -65 -91 -51 -88 hhcurveto
          -137 -27 161 107 170 93 329 211 126 12 -189 -90 hvcurveto
          endchar
        </CharString>
        <CharString name="atilde">
          -20 callgsubr
          -74 350 -133 243 -31 callgsubr
          hintmask 11011010
          223 1079 -72 callgsubr
          hintmask 10101010
          2 callsubr
          hhcurveto
          hintmask 11011010
          -57 callgsubr
          436 -879 -102 callsubr
          hintmask 11010110
          -59 callsubr
          hintmask 10101010
          -68 callsubr
        </CharString>
        <CharString name="b">
          98 8 -21 939 -20 470 -20 hstem
          158 186 522 4 callgsubr
          344 665 rmoveto
          68 56 87 61 102 hhcurveto
          169 108 -157 -225 -154 -75 -193 -236 -200 -11 16 53 hvcurveto
          -186 hmoveto
          -134 111 -13 303 275 205 193 282 229 -148 235 -237 -132 -99 -69 -99 -92 vhcurveto
          618 vlineto
          -86 -9 -266 -79 -2 -34 rlineto
          0 140 -46 28 -45 vhcurveto
          endchar
        </CharString>
        <CharString name="backslash">
          -347 -96 -21 1519 -20 hstem
          17 1378 rmoveto
          135 -450 198 -430 152 -445 19 -56 21 -55 25 -54 rrcurveto
          -5 19 20 0 19 hhcurveto
          19 hlineto
          -5 59 -1 75 -21 55 -401 1070 rcurveline
          -33 87 -16 107 -70 66 rrcurveto
          -29 -28 -6 -18 -23 hvcurveto
          endchar
        </CharString>
        <CharString name="bar">
          -212 -294 -21 1782 -20 hstem
          354 1165 rmoveto
          -1448 vlineto
          28 -18 23 -13 33 -1 rrcurveto
          30 71 1 80 76 vvcurveto
          1332 vlineto
          73 -14 70 -15 72 vhcurveto
          -2 8 rlineto
          -4 hlineto
          -31 -31 -10 -26 -18 hvcurveto
          endchar
        </CharString>
        <CharString name="braceleft">
          58 callsubr
          376 198 -173 173 hintmask 11010000
          191 619 rmoveto
          97 -72 113 36 -177 vvcurveto
          hintmask 11100000
          -96 -25 -94 -96 vvcurveto
          -221 131 -119 217 -13 vhcurveto
          5 8 3 10 10 vvcurveto
          11 -3 10 -5 8 vhcurveto
          -98 16 -96 43 113 101 44 97 103 vvcurveto
          171 -112 117 -158 47 vhcurveto
          159 48 111 114 173 100 -42 95 99 vvcurveto
          121 83 43 109 15 vhcurveto
          3 8 2 10 9 vvcurveto
          10 -2 11 -3 9 vhcurveto
          -206 -13 -143 -112 -215 -96 28 -94 -96 vvcurveto
          -119 -71 -75 -119 -10 vhcurveto
          -16 -10 -6 -20 -18 vvcurveto
          endchar
        </CharString>
        <CharString name="braceright">
          58 callsubr
          253 171 -171 199 hintmask 11100000
          614 667 rmoveto
          -116 9 -74 72 118 vvcurveto
          hintmask 11010000
          98 28 95 98 vvcurveto
          215 -143 112 -205 13 vhcurveto
          -3 -9 -3 -11 -10 vvcurveto
          -9 2 -10 4 -8 vhcurveto
          108 -15 83 -45 -119 -99 -42 -95 -100 vvcurveto
          -172 110 -116 160 -47 vhcurveto
          -158 -47 -112 -117 -171 -103 44 -97 -101 vvcurveto
          -113 -94 -44 -99 -15 vhcurveto
          -8 -11 0 -12 -13 vvcurveto
          -7 3 -9 5 -5 vhcurveto
          222 14 125 122 224 vvcurveto
          hintmask 11100000
          91 -27 89 92 vvcurveto
          181 106 -32 107 71 vhcurveto
          18 -7 20 -16 10 vhcurveto
          endchar
        </CharString>
        <CharString name="bracketleft">
          -374 67 callsubr
          173 1449 rmoveto
          -386 11 -385 -386 -137 -5 -137 -137 vvcurveto
          -46 10 -34 54 vhcurveto
          142 142 -15 142 hhcurveto
          50 38 14 57 34 -39 53 -36 -122 -122 -5 -1 -122 hvcurveto
          -3 198 -2 198 198 283 18 282 283 vvcurveto
          392 hlineto
          48 47 19 56 54 -53 20 -46 hvcurveto
          -152 -153 -5 -152 hhcurveto
          -34 -53 -39 -36 hvcurveto
          endchar
        </CharString>
        <CharString name="bracketright">
          -372 67 callsubr
          -214 vmoveto
          142 142 15 142 hhcurveto
          63 16 49 102 hvcurveto
          105 -17 162 221 336 8 337 336 vvcurveto
          36 -53 39 -34 vhcurveto
          -152 -153 5 -152 hhcurveto
          -46 -53 -20 -54 -44 39 -31 42 hvcurveto
          406 hlineto
          1 -283 17 -282 -283 vvcurveto
          -198 -2 -199 -3 -198 vhcurveto
          -145 hlineto
          -50 -49 9 -50 hhcurveto
          -61 -86 -10 -79 -57 38 -14 50 hvcurveto
          endchar
        </CharString>
        <CharString name="breve">
          35 callgsubr
          914 rmoveto
          -154 4 85 -93 158 hhcurveto
          153 93 95 152 hvcurveto
          -58 hlineto
          -86 -24 -83 -30 -81 hhcurveto
          -88 -65 33 83 -37 hvcurveto
          endchar
        </CharString>
        <CharString name="brokenbar">
          -210 -208 -21 1608 -20 hstem
          355 160 rmoveto
          -357 vlineto
          -16 33 10 -16 40 hhcurveto
          34 57 1 90 65 57 4 71 72 vvcurveto
          99 -7 100 -32 61 vhcurveto
          -31 -35 -8 -28 -17 hvcurveto
          936 vmoveto
          -333 vlineto
          -99 2 -118 30 -86 vhcurveto
          34 24 10 22 25 hvcurveto
          508 vlineto
          49 -14 39 -18 44 vhcurveto
          -31 -35 -8 -28 -17 hvcurveto
          endchar
        </CharString>
        <CharString name="bullet">
          -300 336 -21 537 -20 hstem
          366 852 rmoveto
          -157 -100 -123 -140 -143 104 -131 159 157 99 120 138 146 -107 133 -155 hvcurveto
          endchar
        </CharString>
        <CharString name="c">
          27 callsubr
          hstem
          84 183 vstem
          849 211 -79 callsubr
        </CharString>
        <CharString name="c_k">
          998 4 -21 38 -21 604 298 427 -20 hstemhm
          75 206 430 174 222 206 hintmask 01111110
          708 774 rmoveto
          -28 -20 -25 -30 vvcurveto
          -53 36 -34 52 58 51 43 60 vhcurveto
          82 -79 108 117 vvcurveto
          147 108 64 129 vhcurveto
          64 -1105 hlineto
          -77 -173 12 -43 vvcurveto
          -4 2 -4 1 -4 vhcurveto
          524 hlineto
          1 4 3 6 4 1 callgsubr
          25 -32 238 -301 -13 vvcurveto
          -50 -116 26 -1 -38 vhcurveto
          5 -12 rlineto
          495 hlineto
          1 4 2 5 4 vvcurveto
          28 -152 23 -24 30 5 callgsubr
          rlineto
          35 30 150 27 24 vvcurveto
          4 -2 5 -1 4 vhcurveto
          -394 hlineto
          -1 -4 -2 -5 -4 -42 129 39 -63 vvcurveto
          -2 -11 -350 -303 rlineto
          -62 823 hlineto
          17 -86 -84 14 -88 hhcurveto
          -164 -180 -47 -198 -75 22 -74 28 -69 hvcurveto
          26 -58 -64 10 -63 hhcurveto
          -273 -228 -172 -288 hvcurveto
          hintmask 10111110
          -271 182 -188 272 113 122 28 79 85 vhcurveto
          1 4 5 10 4 vvcurveto
          9 0 14 -13 vhcurveto
          -53 -116 -36 -98 hhcurveto
          -223 -71 182 195 183 100 191 205 44 78 -14 -58 hvcurveto
          endchar
        </CharString>
        <CharString name="cacute">
          27 callsubr
          617 -20 hstem
          84 183 vstem
          864 -99 callgsubr
          -15 -1204 -79 callsubr
        </CharString>
        <CharString name="caron">
          -4 675 -21 399 -20 hstem
          599 674 rmoveto
          66 119 76 120 51 127 rrcurveto
          11 -7 -17 2 -12 hhcurveto
          -72 -46 -100 -136 -57 -69 -57 61 -125 153 -72 37 rrcurveto
          -12 -17 -2 -11 -7 hvcurveto
          31 -77 136 -261 58 -48 rrcurveto
          46 46 8 12 45 hvcurveto
          endchar
        </CharString>
        <CharString name="ccaron">
          27 callsubr
          542 -20 hstem
          83 183 vstem
          572 -94 callsubr
          276 -878 -79 callsubr
        </CharString>
        <CharString name="ccedilla">
          -84 39 callgsubr
          647 284 hstemhm
          83 183 285 163 hintmask 10111100
          529 -5 -88 callgsubr
          319 216 -78 callsubr
          hvcurveto
          hintmask 11011100
          -36 callsubr
          vhcurveto
          endchar
        </CharString>
        <CharString name="cdotaccent">
          27 callsubr
          143 72 callgsubr
          83 183 112 219 vstem
          487 -17 callgsubr
          361 -1076 -79 callsubr
        </CharString>
        <CharString name="cedilla">
          -345 -404 -21 436 -20 hstem
          380 163 vstem
          358 11 -88 callgsubr
          endchar
        </CharString>
        <CharString name="cent">
          13 -232 -21 892 284 -1 -20 321 -20 hstemhm
          125 186 hintmask 11011000
          485 165 rmoveto
          -117 57 -57 110 184 vvcurveto
          226 142 104 158 vhcurveto
          -215 -1047 rmoveto
          -43 15 24 -9 27 hhcurveto
          27 44 23 52 15 128 rrcurveto
          9 hlineto
          22 21 3 7 25 hvcurveto
          118 3 150 66 35 92 6 16 6 15 4 16 -9 9 -10 8 -13 6 rrcurveto
          -57 -57 -76 -33 -90 hhcurveto
          -36 -32 4 13 -37 hvcurveto
          128 691 rlineto
          -55 127 -96 -136 122 hhcurveto
          47 42 36 60 97 -89 64 -130 20 hvcurveto
          29 181 10 61 1 29 1 34 rlinecurve
          2 -18 -17 0 -16 hhcurveto
          -18 -27 -21 -39 -8 -50 rrcurveto
          hintmask 10111000
          -30 -185 rlineto
          hintmask 11011000
          -11 -10 1 -10 hhcurveto
          -312 -159 -247 -229 -223 129 -168 194 -50 hvcurveto
          endchar
        </CharString>
        <CharString name="circumflex">
          -4 1089 -21 503 -20 hstem
          508 1350 rmoveto
          -39 36 217 -243 25 hhcurveto
          10 7 7 10 11 -188 370 -22 41 hvcurveto
          31 -17 -29 33 -39 hhcurveto
          -39 -29 -32 -32 -18 hvcurveto
          -22 -40 -187 -371 -11 vvcurveto
          -10 7 -7 10 25 217 243 39 36 vhcurveto
          endchar
        </CharString>
        <CharString name="colon">
          -446 -20 271 517 271 hstem
          157 276 vstem
          294 251 rmoveto
          -76 -61 -62 -73 41 callsubr
          73 -62 62 -77 hvcurveto
          788 vmoveto
          24 callsubr
          endchar
        </CharString>
        <CharString name="comma">
          -473 -247 -21 579 -20 hstem
          118 333 vstem
          116 -268 -74 callsubr
          endchar
        </CharString>
        <CharString name="commaaccent">
          -43 callgsubr
        </CharString>
        <CharString name="copyright">
          471 -23 305 773 259 hstem
          73 398 vstem
          1350 627 rmoveto
          -327 -258 -259 -320 -359 -251 273 352 316 242 267 344 362 240 -280 -342 vhcurveto
          85 19 rmoveto
          395 -324 273 -357 -359 -322 -281 -387 -391 324 -278 356 377 305 281 388 vhcurveto
          -355 434 rmoveto
          -64 hlineto
          -20 -8 -7 -6 -12 -49 -70 42 -114 hhcurveto
          -245 -15 -201 -180 -254 vvcurveto
          -259 195 -183 258 141 155 64 107 55 vhcurveto
          -7 6 -9 7 -10 3 rrcurveto
          -70 -86 -70 -40 -131 hhcurveto
          -207 -123 142 254 223 123 154 181 158 89 -83 -134 49 hvcurveto
          10 8 0 2 12 hvcurveto
          endchar
        </CharString>
        <CharString name="currency">
          152 254 -21 961 -20 hstem
          331 721 rmoveto
          144 119 118 144 156 107 -124 -152 -145 -119 -117 -144 -157 -106 123 153 vhcurveto
          486 323 rmoveto
          43 -69 -73 22 -81 hhcurveto
          -80 -77 -25 -42 -68 hvcurveto
          -36 45 -53 73 -50 30 -34 -20 -30 -29 -24 -31 32 -55 60 -48 41 -49 rrcurveto
          -55 -73 -29 -80 -92 vvcurveto
          -94 29 -78 57 -74 vhcurveto
          -43 -48 -49 -48 -36 -54 20 -34 29 -28 33 -22 62 35 36 59 44 55 rrcurveto
          -41 68 76 -23 79 hhcurveto
          81 77 22 44 68 hvcurveto
          36 -44 53 -73 48 -29 34 20 30 28 23 32 -31 55 -60 48 -41 49 rrcurveto
          56 74 28 77 93 vvcurveto
          92 -30 81 -56 72 vhcurveto
          42 48 51 48 34 54 -20 34 -28 30 -34 21 -60 -37 -37 -59 -43 -54 rrcurveto
          endchar
        </CharString>
        <CharString name="d">
          47 callsubr
          80 60 callsubr
          hintmask 10111100
          799 222 -43 callsubr
          hintmask 01111100
          8 callsubr
          -3 -3 1 -4 hhcurveto
          -59 8 -93 12 91 -19 callgsubr
        </CharString>
        <CharString name="dagger">
          15 -204 -21 842 279 416 -20 hstem
          440 164 vstem
          424 1312 rmoveto
          -22 -30 0 -22 -9 40 -22 6 -52 hvcurveto
          50 -406 -317 45 rlineto
          5 -32 25 45 -31 hhcurveto
          -42 -8 -59 -54 hvcurveto
          -37 4 -35 -11 vvcurveto
          -30 4 -53 41 34 -26 48 4 31 vhcurveto
          317 45 -56 -832 rlineto
          -4 -54 -38 -18 -12 vvcurveto
          -19 40 -4 10 1 204 0 0 vhcurveto
          10 40 4 19 12 -38 18 -4 54 hvcurveto
          -57 832 322 -44 rlineto
          -4 32 -24 -48 33 hhcurveto
          40 8 62 55 hvcurveto
          36 -3 33 9 vvcurveto
          31 -4 52 -42 -32 26 -45 -5 -33 vhcurveto
          -323 -45 50 406 rlineto
          6 52 40 22 9 vvcurveto
          22 -30 0 -22 vhcurveto
          endchar
        </CharString>
        <CharString name="dcaron">
          47 callsubr
          79 60 callsubr
          397 333 hintmask 10111110
          1379 797 -74 callsubr
          -581 -575 -43 callsubr
          hintmask 01111110
          -17 callsubr
        </CharString>
        <CharString name="degree">
          -333 824 -21 484 -20 hstem
          106 487 vstem
          593 1045 rmoveto
          132 -107 110 -135 -137 -108 -110 -132 -134 108 -108 137 135 107 111 131 vhcurveto
          -50 hmoveto
          -102 -85 -88 -106 -106 -86 85 105 100 86 88 106 106 85 -88 -100 vhcurveto
          endchar
        </CharString>
        <CharString name="dieresis">
          85 1083 72 callgsubr
          229 -15 callsubr
          vstem
          338 1301 -95 callgsubr
          endchar
        </CharString>
        <CharString name="divide">
          226 125 237 526 238 hstem
          510 242 vstem
          630 888 rmoveto
          67 55 56 62 63 -55 57 -67 -66 -54 -57 -63 -65 54 -53 66 hvcurveto
          -763 vmoveto
          67 55 55 63 63 -55 56 -67 -66 -54 -56 -63 -65 54 -53 66 hvcurveto
          -492 574 rmoveto
          -8 -30 -24 -33 -57 vvcurveto
          -29 35 52 -2 50 300 289 3 291 hhcurveto
          30 30 2 44 44 vvcurveto
          15 -35 -40 16 -62 -307 -287 -1 -286 hhcurveto
          endchar
        </CharString>
        <CharString name="dollar">
          36 -207 -21 1650 -20 hstemhm
          95 441 -87 482 -174 174 hintmask 11101000
          439 -141 rmoveto
          -56 1 24 -31 20 hhcurveto
          22 30 23 80 hvcurveto
          98 vlineto
          hintmask 11010000
          211 11 184 97 238 vvcurveto
          136 -47 74 -189 112 vhcurveto
          -154 91 3 211 3 110 3 83 rlinecurve
          107 -16 98 -54 22 -105 rrcurveto
          -33 7 24 -52 26 hhcurveto
          6 9 2 3 12 hvcurveto
          -30 257 -80 35 -100 23 -100 5 rlinecurve
          1 25 0 25 27 vvcurveto
          122 -17 22 -28 -40 -8 -37 -100 -24 0 -29 1 -32 vhcurveto
          hintmask 11101000
          -195 -13 -170 -91 -210 vvcurveto
          -123 68 -99 147 -83 vhcurveto
          hintmask 11010000
          139 -79 rlineto
          -457 vlineto
          -145 27 -129 87 -16 123 rrcurveto
          35 -5 -14 54 -25 hhcurveto
          -3 -7 -2 -3 -11 hvcurveto
          -21 -286 96 -59 135 -39 137 -8 rlinecurve
          97 478 rmoveto
          hintmask 11101000
          155 -88 64 -46 -96 vvcurveto
          -127 -101 -59 -120 vhcurveto
          161 1 138 1 117 vhcurveto
          -84 333 rmoveto
          -95 57 rlineto
          -75 45 -32 49 54 vvcurveto
          85 97 55 105 8 vhcurveto
          endchar
        </CharString>
        <CharString name="dotaccent">
          -12 callsubr
        </CharString>
        <CharString name="dotaccentcmb">
          -12 callsubr
        </CharString>
        <CharString name="dotlessi">
          32 callgsubr
          912 -20 9 callgsubr
          219 181 -96 callgsubr
        </CharString>
        <CharString name="dotlessj">
          71 callgsubr
          1226 -20 hstem
          201 4 callgsubr
          201 88 -26 callgsubr
        </CharString>
        <CharString name="dslash">
          151 1 -21 29 -21 858 263 -186 -20 473 -20 hstemhm
          80 60 callsubr
          hintmask 10101110
          1121 981 -49 callsubr
          280 -759 -45 callsubr
          hintmask 10011110
          -36 callgsubr
          hintmask 01101110
          -17 callsubr
        </CharString>
        <CharString name="e">
          43 callsubr
          hstem
          82 176 vstem
          266 585 -99 callsubr
        </CharString>
        <CharString name="eacute">
          -78 -5 callgsubr
          81 176 vstem
          862 -99 callgsubr
          -597 -830 -99 callsubr
        </CharString>
        <CharString name="ecaron">
          43 callsubr
          562 -20 hstem
          82 176 vstem
          571 -94 callsubr
          -305 -504 -99 callsubr
        </CharString>
        <CharString name="ecircumflex">
          43 callsubr
          666 -20 hstem
          81 176 vstem
          486 -97 callgsubr
          -221 -766 -99 callsubr
        </CharString>
        <CharString name="edieresis">
          43 callsubr
          163 218 hstemhm
          81 176 -100 -15 callsubr
          hintmask 11101100
          266 -77 callgsubr
          -440 -702 -82 callgsubr
          -35 callsubr
          hintmask 11110100
          -90 callgsubr
        </CharString>
        <CharString name="egrave">
          -78 -5 callgsubr
          81 176 vstem
          110 -80 callsubr
          155 -830 -99 callsubr
        </CharString>
        <CharString name="eight">
          -23 -7 -21 1235 -20 hstem
          137 178 420 200 vstem
          82 275 rmoveto
          -168 159 -135 248 347 99 152 140 208 -145 108 -148 93 vhcurveto
          113 86 86 79 134 vvcurveto
          98 -85 137 -240 -246 -133 -116 -148 -140 99 -97 113 -83 vhcurveto
          -140 -94 -127 -101 -153 vvcurveto
          422 -234 rmoveto
          -191 -99 92 144 106 121 81 139 88 hvcurveto
          20 -13 rlineto
          127 -82 114 -73 -107 vvcurveto
          -107 -52 -129 -179 vhcurveto
          -189 956 rmoveto
          92 72 55 129 158 39 -82 -84 -97 -72 -60 -115 -75 vhcurveto
          -116 71 -95 72 108 vvcurveto
          endchar
        </CharString>
        <CharString name="ellipsis">
          772 -20 271 hstem
          166 275 327 275 326 275 vstem
          303 251 rmoveto
          24 callgsubr
          602 hmoveto
          24 callgsubr
          601 hmoveto
          17 callgsubr
        </CharString>
        <CharString name="emacron">
          -78 54 callsubr
          176 hintmask 11010000
          787 -9 callsubr
          80 -484 -82 callgsubr
          hintmask 10110000
          -92 callsubr
        </CharString>
        <CharString name="emdash">
          613 456 -21 90 -20 hstem
          40 503 rmoveto
          -30 24 -38 34 vhcurveto
          1156 hlineto
          118 119 0 20 117 hvcurveto
          39 -24 20 -32 11 vhcurveto
          -1159 hlineto
          -118 -118 -2 -20 -117 hvcurveto
          endchar
        </CharString>
        <CharString name="endash">
          -107 456 -21 90 -20 hstem
          40 505 rmoveto
          -30 23 -40 35 vhcurveto
          612 hlineto
          60 63 2 16 56 hvcurveto
          39 -23 20 -35 13 vhcurveto
          -563 hlineto
          -76 -78 -1 -19 -74 hvcurveto
          endchar
        </CharString>
        <CharString name="eng">
          175 -296 179 138 -21 902 -20 hstemhm
          216 206 161 494 -196 196 hintmask 11110100
          881 82 rmoveto
          -244 -60 -62 -40 vhcurveto
          -71 62 107 -114 hhcurveto
          hintmask 11111000
          -43 -32 -17 -64 -52 81 -46 97 141 175 97 318 hvcurveto
          344 vlineto
          280 -113 159 -220 -165 -102 -99 -71 -55 vhcurveto
          -20 148 -368 -38 rlineto
          70 callsubr
          -45 187 38 -85 vvcurveto
          -606 vlineto
          -88 -87 33 -73 -43 vhcurveto
          -3 -2 -2 -3 -5 vvcurveto
          -7 4 -7 1 -4 vhcurveto
          550 hlineto
          3 6 1 6 6 48 -188 -38 92 vvcurveto
          520 vlineto
          80 54 95 113 113 hhcurveto
          hintmask 11110100
          190 7 -162 -240 hvcurveto
          endchar
        </CharString>
        <CharString name="eogonek">
          -78 -380 -21 402 -11 callgsubr
          hstem
          81 176 vstem
          393 -30 -91 callgsubr
          -128 615 -99 callsubr
        </CharString>
        <CharString name="equal">
          -191 395 334 hstem
          578 729 rmoveto
          3 callgsubr
          -242 vmoveto
          3 callgsubr
          endchar
        </CharString>
        <CharString name="eth">
          38 -1 -21 948 -20 474 -20 hstem
          65 200 528 197 vstem
          929 1262 rmoveto
          37 -5 -41 7 -37 hhcurveto
          -170 -88 -79 74 -98 49 -100 39 rlinecurve
          -47 -33 75 -52 77 -59 60 -69 rlinecurve
          -64 -33 -94 -26 -50 -53 6 -21 14 -19 19 -11 73 33 70 37 74 30 60 -78 43 -91 19 -96 -3 -2 rcurveline
          53 -62 -84 36 -82 hhcurveto
          -272 -166 -225 -258 -256 203 -209 257 294 171 255 274 238 -87 243 -169 171 hvcurveto
          47 25 117 40 31 38 rrcurveto
          -664 -772 rmoveto
          164 51 195 199 111 119 -107 -104 30 vhcurveto
          18 -60 0 -87 -63 vvcurveto
          -166 -62 -205 -200 -195 -71 280 153 vhcurveto
          endchar
        </CharString>
        <CharString name="exclam">
          -469 -29 245 1096 -20 69 callsubr
          1312 rmoveto
          -77 -49 -29 -82 -192 70 -365 25 -194 hvcurveto
          -23 3 -2 -71 34 hhcurveto
          29 2 91 19 3 hvcurveto
          27 181 65 376 176 vvcurveto
          79 -57 34 -73 vhcurveto
          -117 -1220 rmoveto
          -67 54 -54 67 67 57 53 68 68 -56 56 -68 -68 -53 -57 -67 vhcurveto
          endchar
        </CharString>
        <CharString name="exclamdown">
          -469 -8 -21 1096 245 69 callsubr
          -29 rmoveto
          73 57 34 79 176 -65 376 -27 181 hvcurveto
          19 -3 -2 91 -29 hhcurveto
          -34 2 -71 -23 -3 hvcurveto
          -25 -194 -70 -365 -192 vvcurveto
          -82 49 -29 77 vhcurveto
          -117 1220 rmoveto
          -67 53 -57 68 68 56 56 68 68 -57 53 -67 -67 -54 -54 -67 vhcurveto
          endchar
        </CharString>
        <CharString name="f">
          -389 21 -21 899 -20 261 234 hstem
          207 190 vstem
          627 818 rmoveto
          81 -230 122 vlineto
          228 41 53 86 vhcurveto
          105 -22 -162 108 hhcurveto
          60 34 39 51 93 -109 51 -133 -226 -129 -143 -260 -5 hvcurveto
          -70 -1 -20 -2 -64 hhcurveto
          -69 -81 158 -603 hlineto
          -40 -6 -34 -15 -28 vhcurveto
          -15 -51 -92 9 -37 -21 rrcurveto
          -15 1 -16 1 -19 vhcurveto
          546 hlineto
          1 19 0 16 15 vvcurveto
          -52 21 -107 -10 -17 51 rrcurveto
          -18 39 -4 47 61 vvcurveto
          559 vlineto
          endchar
        </CharString>
        <CharString name="five">
          -126 -360 305 923 -20 hstem
          60 175 431 200 vstem
          404 303 rmoveto
          172 90 -110 -166 -158 -92 -173 -177 0 callsubr
          230 216 142 248 247 -169 125 -237 -100 -98 -26 -52 -85 vhcurveto
          409 545 vlineto
          36 135 rlineto
          -657 -625 hlineto
          -13 15 -9 11 -1 vhcurveto
          7 83 76 76 118 hhcurveto
          endchar
        </CharString>
        <CharString name="florin">
          -84 -330 195 1305 197 hstem
          265 863 rmoveto
          -17 -69 rlineto
          186 hlineto
          -159 -802 rlineto
          -89 -18 -31 -160 -91 -62 4 122 -81 hhcurveto
          -47 -37 -36 -47 -91 105 -21 71 262 94 277 214 42 hvcurveto
          125 633 rlineto
          194 hlineto
          17 69 rlineto
          -194 hlineto
          74 15 33 357 119 66 -24 -124 86 hhcurveto
          47 40 37 48 85 -96 27 -69 -268 -82 -289 -215 -44 hvcurveto
          endchar
        </CharString>
        <CharString name="foundryicon">
          215 93 -21 1163 -20 hstem
          604 375 rmoveto
          121 162 -303 55 hhcurveto
          20 13 14 20 hvcurveto
          139 -94 139 138 vvcurveto
          104 51 57 91 86 71 rrcurveto
          15 12 82 46 14 vvcurveto
          34 -53 8 -57 vhcurveto
          -54 -58 -7 -23 hhcurveto
          -67 -67 0 6 -67 hvcurveto
          -25 109 -39 119 112 vvcurveto
          19 -30 28 -19 -49 -38 -120 -40 -16 vhcurveto
          -94 -235 -190 8 rlineto
          3 -73 -77 19 -72 hhcurveto
          -19 -20 -7 -23 -48 87 -30 32 -27 hvcurveto
          29 -24 190 -166 -25 -53 -124 -248 -78 vvcurveto
          -22 17 -4 18 9 286 235 25 30 vhcurveto
          endchar
        </CharString>
        <CharString name="four">
          -115 -262 -21 304 -21 867 -20 hstemhm
          500 367 vstemhm
          500 -168 rmoveto
          -87 -179 40 -52 15 callgsubr
          -8 vhcurveto
          538 hlineto
          3 5 1 6 5 44 -173 -34 84 vvcurveto
          173 147 vlineto
          8 7 26 27 29 -7 31 -23 hvcurveto
          hintmask 11110000
          -133 754 hlineto
          -106 -60 -9 -8 -38 hvcurveto
          -474 -803 14 -47 rlineto
          471 hlineto
          113 vmoveto
          -374 hlineto
          374 600 rlineto
          endchar
        </CharString>
        <CharString name="foursuperior">
          -174 393 303 618 -20 hstem
          440 164 vstem
          440 484 rmoveto
          -68 -148 35 -48 vvcurveto
          -2 0 -4 2 -4 vhcurveto
          462 hlineto
          3 5 0 10 4 33 -155 -33 68 vvcurveto
          130 159 vlineto
          9 16 rlineto
          5 9 5 12 12 vvcurveto
          24 -16 19 -63 vhcurveto
          -99 612 hlineto
          -23 -40 -4 -3 -39 hvcurveto
          -70 -6 -383 -625 11 -66 rlineto
          380 hlineto
          86 vmoveto
          -286 hlineto
          286 488 rlineto
          endchar
        </CharString>
        <CharString name="g">
          40 callgsubr
          755 -20 hstem
          110 178 349 175 vstem
          560 1 -74 callgsubr
        </CharString>
        <CharString name="gbreve">
          40 callgsubr
          681 348 25 callgsubr
          110 178 -26 493 -118 175 hintmask 11101010
          262 -76 callgsubr
          241 -1315 -51 callsubr
          hintmask 11101101
          -61 callgsubr
          hintmask 11011101
          -89 callsubr
          endchar
        </CharString>
        <CharString name="gcommaaccent">
          -71 -330 -21 83 269 0 170 721 168 -134 -20 689 -20 hstemhm
          110 178 57 320 -28 175 hintmask 1101011010000000
          560 1 -68 callgsubr
          hintmask 1010111010000000
          -89 callsubr
          -309 834 rmoveto
          hintmask 1011011100000000
          -26 callsubr
        </CharString>
        <CharString name="gdotaccent">
          40 callgsubr
          755 -20 163 72 callgsubr
          110 178 111 219 19 175 vstem
          508 -17 callgsubr
          52 -1286 -74 callgsubr
        </CharString>
        <CharString name="germandbls">
          164 0 215 -211 -21 1339 -20 hstemhm
          197 186 457 181 -85 187 hintmask 10111000
          197 252 rmoveto
          -35 -3 -31 -6 -30 vhcurveto
          -14 -81 -94 10 -41 -33 rrcurveto
          -17 0 -17 2 -18 vhcurveto
          459 hlineto
          2 17 0 17 16 vvcurveto
          -18 32 -68 -24 -9 58 rrcurveto
          -20 31 -4 42 60 vvcurveto
          617 vlineto
          38 1 37 2 37 vhcurveto
          173 9 77 95 129 hhcurveto
          128 111 -81 -145 -139 -71 -95 -172 -17 hvcurveto
          -8 -17 -5 -22 -23 vvcurveto
          24 -11 27 -12 28 -10 rrcurveto
          hintmask 10110100
          180 -42 93 -135 -188 vvcurveto
          -143 -70 -107 -74 -20 -19 5 9 -8 vhcurveto
          11 -70 74 131 -108 hhcurveto
          -45 -37 -35 -47 hvcurveto
          hintmask 01110100
          -84 79 -66 126 237 122 202 180 182 -134 166 -225 28 vhcurveto
          3 vlineto
          hintmask 10111000
          170 49 87 82 151 vvcurveto
          179 -171 117 -231 -125 -92 -35 -66 -72 vhcurveto
          -120 -110 17 -145 -42 -104 rrcurveto
          -11 -11 -15 -1 -15 hhcurveto
          -10 hlineto
          -37 10 -31 -24 hvcurveto
          90 hlineto
          endchar
        </CharString>
        <CharString name="grave">
          68 callsubr
          252 1442 -100 callgsubr
          endchar
        </CharString>
        <CharString name="greater">
          66 callsubr
          147 18 rmoveto
          36 19 11 30 21 hvcurveto
          339 494 -87 115 -210 328 -108 72 rlinecurve
          -33 -40 -21 -38 hvcurveto
          70 -154 170 -167 107 -135 rrcurveto
          -52 -73 -277 -335 -76 vvcurveto
          -27 16 -24 29 vhcurveto
          endchar
        </CharString>
        <CharString name="guillemotleft">
          -242 84 -21 884 -20 hstem
          228 507 rmoveto
          68 128 119 179 34 108 rrcurveto
          12 -9 -15 13 -29 hhcurveto
          -15 -14 -17 -26 -18 -22 -301 35 callsubr
          22 11 11 11 9 hvcurveto
          -35 116 -113 176 -66 130 rrcurveto
          465 301 rmoveto
          9 17 11 29 5 18 rrcurveto
          13 -9 -16 13 -28 hhcurveto
          -55 -69 -154 -203 -87 -119 244 -335 rcurveline
          21 -29 14 -17 21 -13 rrcurveto
          21 11 10 11 9 hvcurveto
          -5 23 -5 20 -11 23 -149 307 rcurveline
          endchar
        </CharString>
        <CharString name="guillemotright">
          -242 84 -21 883 -20 hstem
          352 85 rmoveto
          -13 11 13 -9 18 hhcurveto
          26 19 21 37 callgsubr
          160 68 callgsubr
          -17 -12 hvcurveto
          43 -140 110 -152 68 -122 -72 -135 -97 -138 -45 -149 rrcurveto
          -268 49 rmoveto
          -13 11 12 -9 18 hhcurveto
          76 56 185 285 39 54 -98 128 -91 141 -107 121 rrcurveto
          -21 -19 -8 -17 -13 hvcurveto
          27 -117 100 -149 51 -99 -54 -109 -92 -140 -24 -124 rrcurveto
          endchar
        </CharString>
        <CharString name="guilsinglleft">
          65 callgsubr
          427 872 rmoveto
          10 21 16 32 7 21 rrcurveto
          13 -9 -16 13 -29 hhcurveto
          -13 -15 -19 -24 -18 -23 -300 35 callsubr
          21 11 11 11 9 hvcurveto
          -7 26 -9 23 -14 26 -184 347 rcurveline
          endchar
        </CharString>
        <CharString name="guilsinglright">
          65 callgsubr
          87 110 rmoveto
          -13 11 12 -9 18 hhcurveto
          27 19 20 37 callgsubr
          161 68 callgsubr
          -18 -12 hvcurveto
          42 -135 114 -163 65 -116 -65 -121 -111 -162 -37 -139 rrcurveto
          endchar
        </CharString>
        <CharString name="h">
          152 21 63 callgsubr
          470 -20 hstem
          188 187 451 4 callgsubr
          1012 568 rmoveto
          7 callsubr
          rlineto
          -35 vlineto
          36 -5 113 -57 22 -32 rrcurveto
          -931 vlineto
          -118 -63 -56 -112 -9 vhcurveto
          -2 callsubr
          533 hlineto
          0 1 34 16 vvcurveto
          -123 12 -51 50 121 12 callsubr
          -148 -52 30 -106 -46 vhcurveto
          -2 callsubr
          492 -3 callsubr
          34 16 vvcurveto
          -97 9 -55 58 104 vvcurveto
          endchar
        </CharString>
        <CharString name="hbar">
          204 21 -21 818 270 -162 -20 470 -20 hstemhm
          1 374 -187 187 451 186 hintmask 11011010
          603 960 -49 callsubr
          1011 -392 rmoveto
          hintmask 10111010
          7 callsubr
          -1 -35 rlineto
          hintmask 11010110
          0 143 -48 29 -46 vhcurveto
          -931 vlineto
          -47 -8 -46 -26 -31 vhcurveto
          -13 -48 -105 12 -23 -23 -8 callsubr
          533 hlineto
          0 1 34 16 vvcurveto
          -47 21 -105 -1 -13 67 rrcurveto
          -5 27 -4 32 37 12 callsubr
          -27 -4 -27 -5 -24 vhcurveto
          -13 -63 -94 -4 -42 -19 -8 callsubr
          492 -3 callsubr
          34 16 vvcurveto
          -33 22 -93 -5 -14 66 rrcurveto
          -8 25 -4 30 33 vvcurveto
          endchar
        </CharString>
        <CharString name="hungarumlaut">
          69 callgsubr
          821 1028 rmoveto
          24 -46 -53 18 -52 hhcurveto
          -27 -32 -123 -352 -4 -28 rrcurveto
          -11 7 14 -5 13 hhcurveto
          29 24 220 316 22 46 rrcurveto
          -304 -1 rmoveto
          26 -45 -54 17 -52 hhcurveto
          -37 -49 -129 -317 -8 -48 rrcurveto
          -10 8 12 -4 12 hhcurveto
          40 34 230 304 23 47 rrcurveto
          endchar
        </CharString>
        <CharString name="hyphen">
          -264 423 -21 128 -20 hstem
          691 402 -49 callsubr
          endchar
        </CharString>
        <CharString name="i">
          -454 21 34 callgsubr
          hintmask 11100000
          177 1224 -10 callsubr
          hintmask 11010000
          -60 callsubr
        </CharString>
        <CharString name="iacute">
          36 callsubr
          679 -99 callgsubr
          -460 -1234 -96 callgsubr
        </CharString>
        <CharString name="ibreve">
          32 callgsubr
          1316 -20 hstemhm
          56 493 -331 186 hintmask 11100000
          56 -76 callgsubr
          hintmask 11010000
          105 -1135 -96 callgsubr
        </CharString>
        <CharString name="icircumflex">
          32 callgsubr
          1572 -20 9 callgsubr
          303 -97 callgsubr
          -84 -1170 -96 callgsubr
        </CharString>
        <CharString name="idieresis">
          32 callgsubr
          1069 72 callgsubr
          -26 218 27 186 9 218 vstem
          83 -77 callgsubr
          -303 -1106 -96 callgsubr
        </CharString>
        <CharString name="igrave">
          36 callsubr
          -73 -80 callsubr
          292 -1234 -96 callgsubr
        </CharString>
        <CharString name="ij">
          86 -287 -21 329 34 callgsubr
          348 45 callgsubr
          hintmask 11110100
          747 11 callgsubr
          hintmask 11110010
          36 -1136 -18 callgsubr
          -606 514 -10 callsubr
          hintmask 11101100
          -60 callsubr
        </CharString>
        <CharString name="imacron">
          32 callgsubr
          1197 -20 9 callgsubr
          604 -9 callsubr
          217 -888 -96 callgsubr
        </CharString>
        <CharString name="iogonek">
          -454 -360 63 callsubr
          1108 232 hstem
          213 4 callgsubr
          206 -10 -91 callgsubr
          -29 1234 -10 callsubr
          -60 callsubr
        </CharString>
        <CharString name="itilde">
          32 callgsubr
          1069 243 9 callgsubr
          43 1079 -78 callgsubr
          214 -898 -96 callgsubr
        </CharString>
        <CharString name="j">
          71 callgsubr
          1416 232 hstemhm
          165 45 callgsubr
          hintmask 11100000
          165 11 callgsubr
          hintmask 11010000
          36 -1136 -26 callgsubr
        </CharString>
        <CharString name="jcircumflex">
          71 callgsubr
          1880 -20 hstem
          201 4 callgsubr
          193 -97 callgsubr
          8 -1263 -18 callgsubr
          endchar
        </CharString>
        <CharString name="k">
          40 21 -21 1314 -20 hstem
          192 206 vstem
          192 120 -66 callsubr
        </CharString>
        <CharString name="kcommaaccent">
          40 -13 callsubr
          1314 -20 hstemhm
          191 206 -3 -23 callgsubr
          hintmask 11110100
          394 -291 -38 callgsubr
          hintmask 11110100
          -19 callsubr
          hintmask 11111010
          -203 411 -66 callsubr
        </CharString>
        <CharString name="kgreenlandic">
          100 21 -21 868 -20 hstemhm
          209 206 -206 358 hintmask 11010000
          209 120 -18 callsubr
          vvcurveto
          hintmask 11100000
          -58 callgsubr
          19 16 34 16 -46 callsubr
          277 hlineto
          hintmask 11010000
          84 152 -29 47 vvcurveto
          3 -1 4 -3 7 vhcurveto
          -524 hlineto
          -3 -7 0 -2 -3 -43 173 11 -76 vvcurveto
          endchar
        </CharString>
        <CharString name="l">
          64 callgsubr
          198 4 callgsubr
          312 1369 -29 callsubr
          -54 callgsubr
          -111 12 -38 64 108 vvcurveto
          1142 vlineto
          endchar
        </CharString>
        <CharString name="lacute">
          -463 21 -21 1993 -20 hstem
          197 4 callgsubr
          658 1865 -107 callsubr
          -347 -496 -64 callsubr
        </CharString>
        <CharString name="lcaron">
          64 callgsubr
          197 186 384 333 vstem
          765 797 -74 callsubr
          -454 572 -64 callsubr
        </CharString>
        <CharString name="lcommaaccent">
          -463 -13 callsubr
          1376 -20 hstemhm
          123 -23 callgsubr
          -244 186 hintmask 11111000
          123 31 callgsubr
          hintmask 11110100
          -87 callsubr
          hintmask 11111000
          -19 callsubr
          189 1660 -29 callsubr
          hintmask 11110010
          -69 callgsubr
        </CharString>
        <CharString name="ldot">
          -184 21 -21 607 296 473 -20 hstem
          198 186 97 306 vstem
          481 755 -9 callgsubr
          -169 614 -64 callsubr
        </CharString>
        <CharString name="less">
          66 callsubr
          479 18 rmoveto
          29 16 24 27 75 -278 338 -51 71 hvcurveto
          107 135 170 167 70 154 rrcurveto
          38 -40 21 -33 vhcurveto
          -108 -72 -210 -328 -87 -115 339 -494 rcurveline
          -30 21 19 -11 36 hhcurveto
          endchar
        </CharString>
        <CharString name="logicalnot">
          309 307 -21 609 -20 hstem
          141 893 rmoveto
          -12 -42 -20 -32 -46 vvcurveto
          -30 32 48 -1 41 hhcurveto
          813 -428 hlineto
          -8 43 35 -20 46 hhcurveto
          30 30 1 47 40 vvcurveto
          217 vlineto
          89 -2 90 -13 86 vhcurveto
          6 -45 -45 4 -45 hhcurveto
          -1 -244 -245 -1 -245 hhcurveto
          endchar
        </CharString>
        <CharString name="lslash">
          -458 21 -21 1314 -20 hstemhm
          12 390 -207 207 -207 395 hintmask 11001000
          469 702 rmoveto
          99 26 22 8 31 vvcurveto
          26 -17 15 -33 -21 -31 -5 -12 -43 vhcurveto
          -304 -82 rlineto
          -92 -25 -26 -14 -25 vvcurveto
          -29 15 -15 26 20 32 6 14 51 vhcurveto
          29 -495 rmoveto
          hintmask 11100000
          -94 -184 42 -57 27 callgsubr
          560 -5 callsubr
          -38 92 vvcurveto
          1194 vlineto
          -399 -70 rlineto
          -3 -6 -1 -6 -5 vvcurveto
          hintmask 11010000
          48 callgsubr
        </CharString>
        <CharString name="m">
          732 21 -21 915 -20 29 -20 22 -20 hstemhm
          205 187 412 187 410 187 hintmask 10101110
          392 678 rmoveto
          75 66 76 65 104 hhcurveto
          131 35 -98 -143 hvcurveto
          -348 vlineto
          -47 -7 -36 -15 -29 vhcurveto
          -16 -49 -92 3 -33 -21 -8 callsubr
          500 -24 callsubr
          -45 24 -92 4 -11 64 rrcurveto
          -5 26 -1 30 32 vvcurveto
          242 vlineto
          79 0 74 -6 69 vhcurveto
          59 54 87 66 90 hhcurveto
          119 66 -73 -124 hvcurveto
          -397 vlineto
          -33 -2 -29 -6 -25 vhcurveto
          -13 -61 -91 -4 -43 -23 -8 callsubr
          481 -3 callsubr
          34 16 vvcurveto
          -41 23 -84 5 -11 62 rrcurveto
          -5 25 -2 29 31 vvcurveto
          262 vlineto
          68 -3 62 -5 59 vhcurveto
          173 -15 -119 75 -167 hhcurveto
          -141 -80 -65 -94 -86 hvcurveto
          hintmask 10011110
          108 -45 -84 53 -131 hhcurveto
          -142 -89 -60 -95 -89 hvcurveto
          hintmask 11001110
          -9 144 rlineto
          -61 hlineto
          -279 -68 -3 -34 rlineto
          0 137 -36 28 -53 vhcurveto
          -502 vlineto
          -32 -4 -29 -7 -25 vhcurveto
          -13 -64 -97 -1 -36 -21 23 callsubr
          16 callsubr
          493 -24 callsubr
          -46 24 -90 1 -10 66 rrcurveto
          -4 27 -2 31 36 vvcurveto
          endchar
        </CharString>
        <CharString name="macron">
          -264 1323 -21 128 -20 hstem
          691 1302 -49 callsubr
          endchar
        </CharString>
        <CharString name="minus">
          109 526 -21 130 -20 hstem
          135 615 rmoveto
          -49 15 -34 42 -27 vhcurveto
          611 hlineto
          70 71 2 16 67 hvcurveto
          48 -17 37 -41 27 vhcurveto
          -664 hlineto
          -50 -58 0 -20 -46 hvcurveto
          endchar
        </CharString>
        <CharString name="mu">
          289 -342 -21 367 -21 897 -20 hstemhm
          248 172 -172 206 426 206 hintmask 11101100
          340 159 rmoveto
          -99 48 66 -77 121 hhcurveto
          123 106 61 92 79 hvcurveto
          20 -154 354 50 rlineto
          2 5 3 8 5 43 -176 -35 84 vvcurveto
          738 vlineto
          -124 -9 -129 -20 -124 -2 rrcurveto
          -2 -5 -1 -5 -5 -53 174 29 -86 vvcurveto
          -516 vlineto
          -84 -61 -99 -58 -105 hhcurveto
          -154 -7 213 109 hvcurveto
          492 vlineto
          -125 -9 -124 -15 -125 -7 rrcurveto
          -1 -5 -2 -6 -6 -47 171 26 -90 vvcurveto
          -856 vlineto
          -77 0 -151 109 vhcurveto
          hintmask 11110100
          58 5 54 47 139 -51 149 -29 133 hvcurveto
          endchar
        </CharString>
        <CharString name="multiply">
          62 232 -21 812 -20 hstem
          141 932 rmoveto
          19 -24 24 -24 31 -31 235 -235 rcurveline
          -235 -235 -29 -29 -24 -26 -19 -24 rlinecurve
          21 -29 42 -42 29 -21 24 19 25 23 31 31 234 234 rcurveline
          235 -235 30 -31 25 -23 25 -19 rlinecurve
          29 21 42 42 21 29 -76 88 -129 124 -103 103 235 235 rcurveline
          31 31 24 24 19 24 -22 29 -42 41 -29 21 -91 -76 -122 -127 -102 -103 -103 103 -122 127 -90 76 -29 -21 -43 -41 -21 -29 rrcurveto
          endchar
        </CharString>
        <CharString name="n">
          26 callsubr
          19 callgsubr
          385 668 -70 callsubr
          1 16 16 vvcurveto
          8 0 8 -1 6 vhcurveto
          -16 callsubr
          44 -1 44 -2 43 vhcurveto
          220 -9 -29 callgsubr
          -11 -54 callsubr
          -1 -6 0 -8 -8 vvcurveto
          -16 1 -16 0 vhcurveto
          -39 callsubr
        </CharString>
        <CharString name="nacute">
          26 callsubr
          637 -20 hstemhm
          199 186 456 185 -185 187 hintmask 11111000
          983 -99 callgsubr
          -598 -747 -70 callsubr
          2 36 -2 18 vhcurveto
          hintmask 11110100
          -16 callsubr
          hintmask 11111000
          44 -1 44 -1 43 vhcurveto
          220 -10 -29 callgsubr
          -3 hlineto
          -8 -54 callsubr
          -3 -18 3 -36 0 vvcurveto
          -39 callsubr
        </CharString>
        <CharString name="ncaron">
          26 callsubr
          562 -20 19 callgsubr
          691 -94 callsubr
          -306 -421 -84 callgsubr
        </CharString>
        <CharString name="ncommaaccent">
          168 -13 callsubr
          926 -20 hstemhm
          199 186 62 -23 callgsubr
          75 187 hintmask 11111101
          447 -291 -47 callsubr
          -62 959 -84 callgsubr
        </CharString>
        <CharString name="nine">
          -17 -346 -21 1268 -20 hstem
          88 200 457 204 vstem
          380 -363 rmoveto
          337 48 232 411 341 vvcurveto
          252 -126 212 -307 -219 -209 -164 -242 -253 173 -141 224 73 78 16 36 76 vhcurveto
          -53 -221 -174 -187 -149 -58 rrcurveto
          -19 -8 -1 -6 -12 vvcurveto
          -23 6 -5 21 12 14 1 3 11 vhcurveto
          -92 851 rmoveto
          228 97 116 112 141 107 -134 -273 -66 -8 -55 -16 -82 vhcurveto
          -37 -64 -63 -18 -57 hhcurveto
          -149 -100 102 219 hvcurveto
          endchar
        </CharString>
        <CharString name="ntilde">
          26 callsubr
          163 243 19 callgsubr
          347 1079 -78 callgsubr
          76 -411 -84 callgsubr
        </CharString>
        <CharString name="numbersign">
          100 -218 -21 1601 -20 hstem
          643 390 rmoveto
          -20 -68 -137 -432 -40 vvcurveto
          -34 25 -55 40 55 26 41 49 11 vhcurveto
          39 180 33 180 45 179 rrcurveto
          21 52 -6 51 hhcurveto
          69 68 10 47 53 -76 10 -67 hvcurveto
          -37 -35 -3 -18 hhcurveto
          48 173 rlineto
          22 43 -5 43 hhcurveto
          65 66 11 52 47 -66 8 -60 hvcurveto
          -33 -30 -2 -17 hhcurveto
          18 58 136 398 39 vvcurveto
          53 -21 29 -56 -66 -16 -29 -58 -9 vhcurveto
          -25 -164 -44 -165 -39 -161 rrcurveto
          -269 hlineto
          17 55 146 409 31 vvcurveto
          52 -6 30 -61 -28 -52 -10 -36 -4 vhcurveto
          -20 -182 -58 -173 -50 -176 rrcurveto
          -19 -40 4 -43 hhcurveto
          -66 -72 -10 -48 -51 60 -10 58 hvcurveto
          35 35 4 21 hhcurveto
          -48 -173 rlineto
          -18 -35 3 -35 hhcurveto
          -62 -66 -9 -48 -51 56 -9 53 hvcurveto
          29 28 3 19 hhcurveto
          -20 -70 -128 -428 -42 vvcurveto
          -34 25 -55 40 54 19 41 47 10 vhcurveto
          40 180 33 181 45 180 rrcurveto
          349 284 rmoveto
          -45 -173 rlineto
          -276 hlineto
          47 173 rlineto
          endchar
        </CharString>
        <CharString name="o">
          45 callsubr
          hstem
          82 2 callgsubr
          vstem
          282 515 -91 callsubr
        </CharString>
        <CharString name="oacute">
          18 callgsubr
          931 -99 callgsubr
          -650 -900 -91 callsubr
        </CharString>
        <CharString name="obreve">
          75 1 -21 879 341 25 callgsubr
          82 200 27 493 30 197 hintmask 11011110
          309 -76 callgsubr
          -84 -801 -93 callsubr
          vhcurveto
          hintmask 10111110
          -63 callsubr
        </CharString>
        <CharString name="ocircumflex">
          45 callsubr
          666 59 callgsubr
          555 -97 callgsubr
          -274 -836 -91 callsubr
        </CharString>
        <CharString name="odieresis">
          45 callsubr
          163 218 hstemhm
          81 200 -55 -15 callsubr
          -53 197 hintmask 11101100
          335 -77 callgsubr
          hintmask 11110010
          -493 -772 -91 callsubr
        </CharString>
        <CharString name="oe">
          584 0 -21 947 -20 22 -20 hstemhm
          87 199 503 177 399 191 hintmask 10111100
          967 590 rmoveto
          154 13 70 116 128 hhcurveto
          117 64 -90 -158 6 hvcurveto
          -24 -10 -29 -4 -31 -1 rrcurveto
          -995 -93 rmoveto
          228 83 128 147 201 72 -207 -258 -168 -50 -181 -175 -222 -56 220 238 vhcurveto
          1270 25 rmoveto
          228 -6 -118 171 -224 hhcurveto
          -141 -104 -52 -121 -84 hvcurveto
          hintmask 11011100
          117 -90 -115 54 -135 hhcurveto
          -277 -175 -237 -238 -283 206 -189 255 128 118 59 116 85 hvcurveto
          -118 81 119 -57 138 hhcurveto
          127 166 77 127 37 hvcurveto
          -8 9 -11 8 -11 5 rrcurveto
          -53 -71 -60 -31 -108 hhcurveto
          -202 -105 144 264 -5 hvcurveto
          endchar
        </CharString>
        <CharString name="ogonek">
          -345 -350 -21 394 -20 hstem
          171 -188 rmoveto
          -119 102 -64 110 76 50 21 36 66 vhcurveto
          -11 80 rlineto
          -16 -36 -38 -14 -40 hhcurveto
          -72 -75 39 80 80 55 23 17 65 hvcurveto
          -111 -20 -93 -66 -125 vvcurveto
          endchar
        </CharString>
        <CharString name="ograve">
          18 callgsubr
          179 -80 callsubr
          102 -900 -91 callsubr
        </CharString>
        <CharString name="ohungarumlaut">
          45 callsubr
          591 59 callgsubr
          1005 1455 -84 callsubr
          -420 -939 -91 callsubr
        </CharString>
        <CharString name="omacron">
          75 54 callsubr
          200 550 197 hintmask 11011000
          856 -9 callsubr
          27 -554 -93 callsubr
          vhcurveto
          hintmask 10111000
          -63 callsubr
        </CharString>
        <CharString name="one">
          -352 21 -21 846 -20 hstemhm
          272 193 vstemhm
          465 833 rmoveto
          9 -7 4 -15 vhcurveto
          -366 hlineto
          70 callsubr
          -54 200 38 -102 vvcurveto
          -580 vlineto
          hintmask 11100000
          -107 -199 53 -59 27 callgsubr
          588 hlineto
          3 10 2 6 3 65 -205 -71 116 vvcurveto
          endchar
        </CharString>
        <CharString name="onehalf">
          795 -60 -21 1491 -20 hstem
          395 30 callgsubr
          rrcurveto
          -35 vlineto
          70 -30 58 28 -113 vvcurveto
          -421 vlineto
          -138 -51 62 -81 -40 vhcurveto
          2 -35 rlineto
          409 hlineto
          2 36 -8 12 -31 -2 -13 1 rlinecurve
          -78 5 -1 58 63 vvcurveto
          1285 -416 rmoveto
          -44 hlineto
          -10 -10 -5 -12 -5 -14 rrcurveto
          -81 -31 -41 -7 -81 hhcurveto
          -209 hlineto
          119 117 281 176 183 vvcurveto
          148 -129 73 -134 -100 -85 -48 -76 -63 vhcurveto
          -1 -5 -13 -18 -11 -20 -8 -21 rlinecurve
          43 -18 rlineto
          61 50 79 64 83 hhcurveto
          80 48 -65 -76 -181 -269 -222 -113 -129 hvcurveto
          4 -43 rlineto
          1 51 50 0 51 102 102 -1 101 hhcurveto
          65 hlineto
          -1093 -122 rmoveto
          166 230 94 287 134 251 126 236 144 228 136 231 rrcurveto
          17 -27 -32 7 -31 hhcurveto
          -108 -74 -60 -177 -61 -114 -509 -954 rcurveline
          -29 -54 -11 -61 -19 -57 31 callsubr
          endchar
        </CharString>
        <CharString name="onequarter">
          858 -60 -21 128 278 1085 -20 hstem
          398 30 callgsubr
          -2 -35 rcurveline
          71 -30 59 28 -113 vvcurveto
          -421 vlineto
          -136 -53 59 -79 -39 vhcurveto
          -35 411 36 vlineto
          -6 12 -32 -2 -12 1 rrcurveto
          -78 5 -1 58 63 vvcurveto
          146 -762 -42 callsubr
          659 -46 callgsubr
          endchar
        </CharString>
        <CharString name="onesuperior">
          -426 413 -21 899 -20 hstemhm
          74 317 vstemhm
          391 1187 rmoveto
          13 3 33 45 vvcurveto
          9 -2 4 -4 vhcurveto
          -310 -85 rlineto
          -3 -5 -1 -4 -4 vvcurveto
          hintmask 11100000
          -42 153 30 -78 vvcurveto
          -612 vlineto
          -80 -152 38 -44 vvcurveto
          -1 1 -4 2 -8 vhcurveto
          466 hlineto
          3 7 1 4 4 48 -157 -56 88 vvcurveto
          endchar
        </CharString>
        <CharString name="ordfeminine">
          -328 567 -21 618 -20 hstem
          70 496 vstem
          439 688 rmoveto
          -34 -40 -56 -35 -54 hhcurveto
          -46 -38 24 50 111 151 23 83 28 hvcurveto
          38 vmoveto
          -118 -40 -251 -14 -166 vvcurveto
          -86 80 -41 77 83 70 46 52 61 vhcurveto
          -52 4 31 -46 56 hhcurveto
          46 59 14 42 25 hvcurveto
          -16 49 rlineto
          -11 -21 -16 -6 -12 hhcurveto
          -37 0 53 93 hvcurveto
          62 6 65 21 vvcurveto
          167 -48 69 -173 -87 -166 -35 -113 -26 26 -55 31 26 54 31 29 vhcurveto
          22 -24 18 23 vvcurveto
          40 79 19 30 105 20 -70 -88 vhcurveto
          endchar
        </CharString>
        <CharString name="ordmasculine">
          -245 568 -21 617 -20 hstem
          209 893 rmoveto
          147 74 79 103 139 63 -174 -137 -128 -82 -78 -98 -106 -93 109 182 vhcurveto
          -137 -32 rmoveto
          -189 154 -125 173 171 149 120 191 190 -148 116 -179 -167 -153 -121 -182 vhcurveto
          endchar
        </CharString>
        <CharString name="oslash">
          75 -93 -21 115 -11 callgsubr
          120 -20 hstem
          82 200 553 194 vstem
          762 698 rmoveto
          53 -99 20 -116 -111 vvcurveto
          -163 -87 -147 -178 -62 -52 36 46 -39 vhcurveto
          106 190 113 186 126 178 rrcurveto
          -408 -479 rmoveto
          -53 93 -19 106 106 vvcurveto
          158 69 178 184 72 58 -30 -58 43 vhcurveto
          -524 -807 rmoveto
          7 -28 14 -41 31 -10 62 23 24 78 26 55 rrcurveto
          -40 63 73 -22 75 hhcurveto
          273 197 205 271 143 -60 137 -117 85 hvcurveto
          30 51 40 47 27 51 -12 32 -31 16 -31 8 -41 -18 -23 -103 -35 -38 rrcurveto
          39 -69 -78 20 -80 hhcurveto
          -264 -203 -202 -264 -147 65 -130 115 -92 hvcurveto
          endchar
        </CharString>
        <CharString name="otilde">
          75 1 -21 879 343 67 callgsubr
          51 callsubr
          hintmask 10111100
          295 1079 -27 callsubr
          24 -564 rmoveto
          hintmask 11001100
          -95 callsubr
          vhcurveto
          hintmask 10111100
          -63 callsubr
        </CharString>
        <CharString name="p">
          123 -357 -21 380 -21 945 -20 hstem
          186 186 515 4 callgsubr
          372 677 rmoveto
          63 65 84 56 92 hhcurveto
          142 132 -116 -252 -220 -84 -143 -171 -166 -94 120 162 hvcurveto
          -272 vmoveto
          -61 71 84 -33 90 hhcurveto
          259 197 199 297 279 -161 170 -226 -139 -95 -76 -96 -86 hvcurveto
          -8 164 -68 -3 -270 -67 rlineto
          -34 vlineto
          8 -3 33 -12 99 -38 26 -47 rlinecurve
          -867 vlineto
          -108 -58 -53 -103 -14 vhcurveto
          -2 callsubr
          527 -3 callsubr
          34 16 vvcurveto
          -123 14 -61 42 128 vvcurveto
          endchar
        </CharString>
        <CharString name="paragraph">
          -7 -203 -21 1527 -20 hstem
          512 323 vstem
          835 1204 rmoveto
          28 47 110 -16 32 29 -2 39 rcurveline
          -468 hlineto
          -249 -264 -70 -298 -293 242 -65 248 hvcurveto
          -689 vlineto
          -43 -199 21 -24 vvcurveto
          -66 291 1444 140 -1444 261 66 vlineto
          24 -169 -22 44 vvcurveto
          endchar
        </CharString>
        <CharString name="parenleft">
          57 callsubr
          666 -208 rmoveto
          -277 167 -110 303 309 vvcurveto
          307 110 309 277 163 vhcurveto
          -53 59 rlineto
          -328 -148 -138 -348 -342 vvcurveto
          -342 139 -348 327 -149 vhcurveto
          endchar
        </CharString>
        <CharString name="parenright">
          57 callsubr
          21 1350 rmoveto
          275 -170 112 -299 -310 vvcurveto
          -313 -113 -293 -274 -173 vhcurveto
          10 -26 22 -18 21 -16 rrcurveto
          327 149 139 348 342 vvcurveto
          342 -139 348 -327 148 vhcurveto
          -21 -16 -22 -17 -10 -26 rrcurveto
          endchar
        </CharString>
        <CharString name="percent">
          736 -117 -21 137 -21 1349 -20 89 -20 hstem
          1502 337 rmoveto
          -179 -48 -117 -100 -113 -53 131 191 192 50 122 100 111 53 -136 -204 vhcurveto
          -467 21 rmoveto
          -206 121 -174 198 vhcurveto
          186 4 115 167 200 65 callsubr
          -189 -118 -172 -205 vhcurveto
          -544 -496 rmoveto
          40 40 44 44 36 72 252 563 264 433 128 224 77 130 rcurveline
          13 -20 -22 15 -51 hhcurveto
          -97 -81 -53 -179 -69 -119 -529 -983 rcurveline
          -28 -48 -27 -46 -26 -48 rrcurveto
          -17 20 29 -13 32 hhcurveto
          -376 1088 rmoveto
          -205 122 -174 198 vhcurveto
          186 3 115 168 199 65 callsubr
          -190 -118 -172 -205 vhcurveto
          468 -21 rmoveto
          -179 -48 -117 -101 -113 -53 132 191 192 50 122 101 111 53 -137 -204 vhcurveto
          endchar
        </CharString>
        <CharString name="period">
          -480 -20 271 hstem
          140 275 vstem
          277 251 rmoveto
          17 callgsubr
        </CharString>
        <CharString name="periodcentered">
          -538 607 296 hstem
          96 306 vstem
          96 755 -9 callgsubr
          endchar
        </CharString>
        <CharString name="plus">
          49 callgsubr
          -50 2 -33 50 -30 vhcurveto
          323 -190 hlineto
          -78 1 -56 6 -49 vhcurveto
          -2 18 19 -1 22 hhcurveto
          20 20 1 2 19 hvcurveto
          7 49 3 57 77 vvcurveto
          190 189 vlineto
          78 57 1 6 49 hvcurveto
          2 18 1 19 21 vvcurveto
          21 -1 20 -2 18 vhcurveto
          7 -49 -58 3 -77 hhcurveto
          -189 191 hlineto
          76 -2 58 -7 48 vhcurveto
          3 -18 -19 0 -21 hhcurveto
          -21 -21 -1 -2 -18 hvcurveto
          -7 -49 -1 -57 -78 vvcurveto
          -189 -191 vlineto
          -93 -47 -4 -17 -44 hvcurveto
          endchar
        </CharString>
        <CharString name="plusminus">
          49 callgsubr
          -51 4 -34 48 -28 vhcurveto
          323 hlineto
          -62 -2 -66 -65 vvcurveto
          -61 2 -60 7 -59 vhcurveto
          -2 20 19 -1 20 hhcurveto
          20 19 1 2 20 hvcurveto
          9 67 2 69 69 57 -1 56 55 vvcurveto
          62 66 -2 65 hhcurveto
          61 60 2 7 59 hvcurveto
          2 19 1 20 19 vvcurveto
          20 -1 19 -2 20 vhcurveto
          9 -67 -69 2 -69 -57 -56 -1 -55 hhcurveto
          60 2 63 63 vvcurveto
          63 -2 63 -9 61 vhcurveto
          3 -19 -20 0 -19 hhcurveto
          -20 -20 -1 -2 -20 hvcurveto
          -8 -58 -2 -62 -61 -65 2 -65 -62 vvcurveto
          -37 -61 3 -63 hhcurveto
          -79 -84 -5 -19 -51 hvcurveto
          endchar
        </CharString>
        <CharString name="q">
          98 -357 -21 377 -11 callgsubr
          22 -20 hstemhm
          84 181 526 186 hintmask 11011100
          791 236 rmoveto
          -87 -88 -74 -36 -81 hhcurveto
          -157 -126 144 238 206 97 152 165 157 90 -94 -135 17 hvcurveto
          1 -810 rmoveto
          -109 -115 -10 -67 -24 vhcurveto
          -15 10 callgsubr
          517 -3 callsubr
          33 16 vvcurveto
          -116 20 -38 59 112 vvcurveto
          1036 vlineto
          17 -5 11 -16 -28 -49 -16 -25 -10 vhcurveto
          -37 vlineto
          hintmask 11101100
          48 -95 -108 28 -116 hhcurveto
          -266 -200 -172 -320 -235 147 -219 245 108 92 45 121 116 hvcurveto
          endchar
        </CharString>
        <CharString name="question">
          -230 -13 249 860 233 hstemhm
          181 249 -205 505 hintmask 11100000
          304 236 rmoveto
          -68 -55 -58 -67 -66 56 -58 67 67 59 56 68 68 -58 57 -68 hvcurveto
          34 122 rmoveto
          39 vlineto
          hintmask 11010000
          252 392 -36 357 vvcurveto
          191 -212 168 -194 -105 -151 -35 -115 -41 32 -42 44 vhcurveto
          88 31 122 89 hhcurveto
          124 117 -108 -126 hvcurveto
          -228 -368 -66 -114 vvcurveto
          -74 25 -71 7 -73 vhcurveto
          endchar
        </CharString>
        <CharString name="questiondown">
          -230 -13 233 860 249 hstemhm
          68 505 -205 249 hintmask 11010000
          494 1080 rmoveto
          68 55 58 67 66 -56 58 -67 -67 -59 -56 -68 -68 58 -57 68 hvcurveto
          -34 -122 rmoveto
          -39 vlineto
          hintmask 11100000
          -252 -392 36 -357 vvcurveto
          -191 212 -168 194 105 151 35 115 41 -32 42 -44 vhcurveto
          -88 -31 -122 -89 hhcurveto
          -124 -117 108 126 hvcurveto
          228 368 66 114 vvcurveto
          74 -25 71 -7 73 vhcurveto
          endchar
        </CharString>
        <CharString name="quotedbl">
          -288 -13 callgsubr
          hstem
          113 204 113 204 vstem
          519 753 rmoveto
          63 -2 52 417 32 vvcurveto
          64 -38 61 callgsubr
          -63 56 -308 33 -76 vhcurveto
          -316 hmoveto
          54 -1 60 355 93 vvcurveto
          64 -38 61 callgsubr
          -61 58 -315 32 -71 vhcurveto
          endchar
        </CharString>
        <CharString name="quotedblbase">
          -147 -214 28 callsubr
          87 320 71 320 vstem
          135 -235 -44 callsubr
          427 -56 -44 callsubr
          endchar
        </CharString>
        <CharString name="quotedblleft">
          -74 813 28 callsubr
          107 320 105 319 vstem
          379 1327 rmoveto
          -2 callgsubr
          72 -85 108 83 57 56 74 62 -35 38 -70 13 vhcurveto
          -42 7 -25 19 -19 27 rrcurveto
          104 94 31 85 6 callsubr
          425 hmoveto
          -2 callgsubr
          73 -85 107 84 55 56 74 62 -34 38 -70 13 vhcurveto
          -42 7 -26 19 -18 27 rrcurveto
          104 94 31 85 6 callsubr
          endchar
        </CharString>
        <CharString name="quotedblright">
          -68 814 28 callsubr
          114 320 112 319 vstem
          162 793 rmoveto
          47 callgsubr
          -108 -83 -56 -57 -72 -62 34 -40 70 -12 vhcurveto
          43 49 callsubr
          -95 -30 -85 -48 vhcurveto
          6 -26 15 -17 16 -14 rrcurveto
          431 hmoveto
          47 callgsubr
          -107 -84 -55 -57 -72 -62 34 -40 70 -12 vhcurveto
          42 49 callsubr
          -95 -30 -84 55 callgsubr
        </CharString>
        <CharString name="quoteleft">
          -492 813 28 callsubr
          110 320 vstem
          382 1327 rmoveto
          -26 callsubr
        </CharString>
        <CharString name="quoteright">
          -492 814 28 callsubr
          117 320 vstem
          165 793 rmoveto
          173 32 99 153 145 vvcurveto
          121 -72 84 -108 -83 -57 -57 -72 -62 35 -40 70 -12 vhcurveto
          42 49 callsubr
          -94 -30 -85 55 callgsubr
        </CharString>
        <CharString name="quotesinglbase">
          -464 -214 28 callsubr
          147 320 vstem
          195 -235 -44 callsubr
          endchar
        </CharString>
        <CharString name="quotesingle">
          -666 -13 callgsubr
          hstem
          83 203 vstem
          172 753 rmoveto
          56 -1 58 354 94 vvcurveto
          64 -37 61 callgsubr
          -62 57 -310 32 -75 vhcurveto
          endchar
        </CharString>
        <CharString name="r">
          58 callgsubr
          hstemhm
          201 187 hintmask 11010000
          388 633 -31 callsubr
          hintmask 10110000
          -16 -33 callsubr
          -1 -3 0 -7 -8 vvcurveto
          -16 1 -20 0 vhcurveto
          -23 callsubr
        </CharString>
        <CharString name="racute">
          -250 -58 0 114 194 endchar
        </CharString>
        <CharString name="rcaron">
          58 callgsubr
          572 -20 hstemhm
          200 187 hintmask 11011000
          497 -94 callsubr
          -110 -456 -31 callsubr
          -3 hlineto
          hintmask 10111000
          -37 callgsubr
        </CharString>
        <CharString name="rcommaaccent">
          -250 -13 callsubr
          692 229 -5 -20 hstemhm
          200 187 -134 -23 callgsubr
          hintmask 11110010
          253 31 callgsubr
          hintmask 11110001
          -87 callsubr
          hintmask 11110010
          -19 callsubr
          hintmask 11110100
          134 924 -31 callsubr
          -3 hlineto
          hintmask 11101100
          -37 callgsubr
        </CharString>
        <CharString name="registered">
          471 -2 -21 1047 290 hstem
          1350 627 rmoveto
          -322 -254 -264 -324 -358 -252 272 353 330 257 253 329 355 247 -273 -349 vhcurveto
          85 19 rmoveto
          378 -307 290 -374 -371 -310 -293 -375 -375 308 -294 372 380 302 285 384 vhcurveto
          -805 372 rmoveto
          4 22 23 2 22 hhcurveto
          111 102 -45 -126 -159 -157 -12 -123 -2 hvcurveto
          71 -39 rmoveto
          77 -136 84 -133 85 -131 rrcurveto
          199 hlineto
          32 -30 -11 -7 20 vhcurveto
          -70 20 -154 275 -47 75 rrcurveto
          110 22 116 55 128 vvcurveto
          163 -186 49 -132 vhcurveto
          -361 hlineto
          -1 -24 rlineto
          46 -20 55 -13 -61 vvcurveto
          -602 vlineto
          -68 -61 2 -48 -17 vhcurveto
          2 -25 rlineto
          366 hlineto
          1 25 rlineto
          -43 12 -72 -2 62 vvcurveto
          306 vlineto
          endchar
        </CharString>
        <CharString name="ring">
          -345 1131 -21 384 -20 hstem
          151 390 vstem
          346 1421 -71 callsubr
          endchar
        </CharString>
        <CharString name="s">
          -229 -22 callsubr
          hstem
          659 853 -64 callgsubr
          -146 -69 119 132 -27 vhcurveto
          -11 -11 -1 -4 -31 hvcurveto
          -244 vlineto
          -44 73 21 callgsubr
          -55 callgsubr
          131 72 -109 -120 34 vhcurveto
          7 callgsubr
        </CharString>
        <CharString name="sacute">
          -229 -5 callgsubr
          786 -99 callgsubr
          -127 -562 -60 callgsubr
        </CharString>
        <CharString name="scaron">
          -229 -22 callsubr
          562 -20 hstem
          494 -94 callsubr
          164 -236 -60 callgsubr
        </CharString>
        <CharString name="scedilla">
          -229 39 callgsubr
          931 -20 hstemhm
          473 163 -163 255 hintmask 10111000
          451 -5 -88 callgsubr
          207 858 -73 callsubr
          hintmask 11010100
          40 callsubr
          -65 callgsubr
        </CharString>
        <CharString name="scommaaccent">
          -229 -629 -20 callsubr
          946 -20 hstemhm
          250 319 -319 478 -437 278 hintmask 11111000
          250 -311 -42 callgsubr
          hintmask 11110010
          -87 callsubr
          hintmask 11111000
          -19 callsubr
          408 1164 -65 callsubr
          hintmask 11110100
          -65 callgsubr
        </CharString>
        <CharString name="section">
          -180 -222 253 1103 226 hstem
          234 1043 rmoveto
          169 -197 256 -323 -268 vvcurveto
          -51 -10 -51 -23 -46 vhcurveto
          -2 3 rlineto
          -111 280 -326 127 355 vvcurveto
          56 16 69 31 46 vhcurveto
          -39 30 rmoveto
          -50 -98 -33 -108 -110 -413 493 -141 -233 vvcurveto
          -91 -102 -28 -74 vhcurveto
          -217 60 180 -97 hhcurveto
          -40 -30 -23 -42 -153 211 -35 116 116 135 70 131 34 -10 33 -15 30 hvcurveto
          53 93 33 105 107 449 -483 167 182 vvcurveto
          83 80 34 72 vhcurveto
          116 65 -162 68 hhcurveto
          25 40 16 31 150 -198 29 -112 -124 -112 -75 -133 -27 4 -27 10 -25 hvcurveto
          endchar
        </CharString>
        <CharString name="semicolon">
          -442 -247 -21 1036 271 hstemhm
          157 276 -276 311 hintmask 11100000
          294 1039 rmoveto
          24 callsubr
          -161 -1307 rmoveto
          hintmask 11010000
          179 4 156 101 208 vvcurveto
          172 -87 94 -105 -86 -55 -59 -78 -64 36 -44 62 -24 callgsubr
          -115 -21 -104 -34 vhcurveto
          -28 8 -17 9 -15 vhcurveto
          endchar
        </CharString>
        <CharString name="seven">
          -180 -313 -21 851 350 hstem
          457 -334 rmoveto
          87 387 112 406 176 356 -15 52 rcurveline
          -733 hlineto
          -10 -11 -23 -335 rlineto
          -1 5 9 -3 6 hhcurveto
          79 -73 206 12 179 hvcurveto
          432 28 -189 -286 -158 -478 -94 -333 rlinecurve
          endchar
        </CharString>
        <CharString name="six">
          -42 4 -21 1268 -20 hstem
          83 204 457 200 vstem
          652 1247 rmoveto
          -337 -48 -232 -411 -341 vvcurveto
          -252 126 -212 307 219 209 164 242 253 -173 141 -224 -73 -78 -16 -36 -76 vhcurveto
          53 221 174 186 149 59 rrcurveto
          19 7 1 7 12 vvcurveto
          23 -6 5 -21 -12 -14 -1 -3 -11 vhcurveto
          92 -851 rmoveto
          -228 -97 -116 -112 -141 -107 134 273 66 8 55 16 82 vhcurveto
          37 64 63 18 57 hhcurveto
          149 100 -102 -219 hvcurveto
          endchar
        </CharString>
        <CharString name="slash">
          -363 -49 -21 1472 -20 hstem
          655 1378 rmoveto
          17 -24 -27 7 -29 hhcurveto
          -61 -32 -49 -210 -27 -71 -369 -980 rcurveline
          -16 -42 -13 -43 -45 vvcurveto
          -16 1 -17 4 -16 vhcurveto
          28 hlineto
          16 16 1 4 16 hvcurveto
          23 50 21 52 18 52 143 418 213 458 116 413 rrcurveto
          endchar
        </CharString>
        <CharString name="space">
          -497 endchar
        </CharString>
        <CharString name="sterling">
          202 -11 171 -171 321 591 309 hstemhm
          65 425 -337 337 46 callsubr
          262 175 hintmask 10100110
          501 574 rmoveto
          228 hlineto
          5 8 1 14 20 vvcurveto
          17 -1 17 -5 16 vhcurveto
          -228 hlineto
          -4 73 -7 74 74 vvcurveto
          101 36 176 132 53 41 -39 -54 vhcurveto
          -28 -20 -25 -30 vvcurveto
          -58 45 -29 47 51 52 34 70 146 -156 59 -124 -205 -167 -131 -214 -66 7 -67 3 -66 vhcurveto
          -9 -12 1 -14 hhcurveto
          hintmask 01101010
          -42 -55 -6 -40 -42 65 -6 47 hvcurveto
          15 13 1 9 hhcurveto
          65 -286 rlineto
          13 -45 -46 9 -47 hhcurveto
          hintmask 10110010
          -93 -71 -53 -97 -95 69 -76 97 85 73 52 68 47 hvcurveto
          -54 91 110 -66 109 hhcurveto
          200 7 165 153 12 hvcurveto
          2 -5 -8 3 -6 -34 -12 -152 -157 hhcurveto
          -74 -104 53 29 -69 hvcurveto
          7 23 13 65 29 vvcurveto
          -268 -286 rmoveto
          -50 -23 39 46 29 24 18 28 44 51 -29 -21 37 hvcurveto
          -44 -19 -42 -38 -50 hhcurveto
          endchar
        </CharString>
        <CharString name="t">
          -366 38 callgsubr
          hstem
          186 187 vstem
          622 815 -28 callgsubr
          -40 -25 vhcurveto
          -64 -99 -55 -85 -144 -58 rrcurveto
          -44 149 -498 vlineto
          20 callgsubr
          110 70 32 23 48 8 callgsubr
        </CharString>
        <CharString name="t_t">
          159 4 -21 1123 -20 hstem
          175 206 340 206 vstem
          32 809 rmoveto
          143 -475 hlineto
          -10 callgsubr
          340 -475 vlineto
          -10 callgsubr
          211 59 -216 182 vlineto
          48 -15 8 -9 -37 -26 -150 -88 -155 vhcurveto
          -304 182 hlineto
          48 -15 8 -9 -43 -61 -192 -76 -216 vhcurveto
          endchar
        </CharString>
        <CharString name="tbar">
          -380 38 callgsubr
          hstemhm
          28 346 -187 187 -187 443 hintmask 11101000
          623 815 -40 callsubr
          hintmask 11100100
          256 -413 rmoveto
          128 vlineto
          hintmask 11110000
          -602 -128 hlineto
          endchar
        </CharString>
        <CharString name="tcaron">
          -366 38 callgsubr
          hstem
          185 187 515 333 vstem
          885 570 -74 callsubr
          -264 245 -40 callsubr
          endchar
        </CharString>
        <CharString name="tcommaaccent">
          -366 39 callgsubr
          904 64 callsubr
          36 163 hintmask 10111110
          386 -5 -88 callgsubr
          235 820 -51 callgsubr
          hintmask 11011110
          -251 47 -86 192 118 71 37 18 39 8 callgsubr
        </CharString>
        <CharString name="thorn">
          98 -357 -21 381 -21 944 -20 470 -20 hstem
          166 186 510 4 callgsubr
          352 677 rmoveto
          62 64 85 57 93 hhcurveto
          130 138 -103 -270 -218 -92 -139 -165 -213 -40 115 158 hvcurveto
          -304 vmoveto
          -33 71 79 -20 90 hhcurveto
          247 209 184 315 261 -169 184 -211 -131 -102 -71 -91 -83 hvcurveto
          612 vlineto
          -72 -7 -93 -27 -93 -26 -93 -26 rlinecurve
          -2 -11 0 -12 -11 vvcurveto
          27 -29 112 -17 28 -45 rrcurveto
          -1311 vlineto
          -41 -8 -37 -14 -31 vhcurveto
          -14 -56 -96 5 -29 -22 23 callsubr
          -16 2 -18 vhcurveto
          526 hlineto
          1 18 1 16 16 vvcurveto
          -45 24 -113 -7 -15 69 rrcurveto
          -8 27 -3 32 39 vvcurveto
          endchar
        </CharString>
        <CharString name="three">
          -146 -334 305 930 -20 hstemhm
          16 175 387 244 -200 200 hintmask 11110000
          353 -278 rmoveto
          0 callsubr
          218 228 112 246 251 -158 112 -237 vhcurveto
          155 13 150 111 167 vvcurveto
          155 -134 68 -139 -122 -130 -54 -98 -76 vhcurveto
          -3 -16 rlineto
          -11 8 -11 9 -5 vhcurveto
          39 103 69 62 119 hhcurveto
          88 54 -43 -90 -165 -217 -102 -133 -44 hvcurveto
          45 -52 rlineto
          8 33 33 5 34 hhcurveto
          hintmask 11101000
          177 72 -145 -158 -161 -98 -138 -171 hvcurveto
          endchar
        </CharString>
        <CharString name="threequarters">
          895 -60 -21 128 278 80 228 694 -20 103 -20 hstemhm
          477 199 -165 165 hintmask 11111100
          643 -77 -42 callsubr
          559 -46 callgsubr
          -1220 699 -39 callgsubr
          hintmask 11111010
          -33 callgsubr
        </CharString>
        <CharString name="threesuperior">
          -274 372 228 317 -20 397 -20 hstemhm
          484 199 -165 165 hintmask 11110000
          404 917 -39 callgsubr
          hintmask 11101000
          -33 callgsubr
        </CharString>
        <CharString name="tilde">
          85 1121 243 hstem
          285 1131 -78 callgsubr
          endchar
        </CharString>
        <CharString name="trademark">
          900 1301 -20 hstem
          824 1289 rmoveto
          -1 -25 rlineto
          101 -39 19 43 -122 vvcurveto
          -461 vlineto
          -148 -25 57 -101 -42 vhcurveto
          1 -24 rlineto
          302 hlineto
          1 24 rlineto
          -90 31 -36 -37 137 vvcurveto
          449 4 vlineto
          292 -604 rlineto
          33 hlineto
          285 643 rlineto
          -501 vlineto
          -131 -27 53 -94 -40 vhcurveto
          1 -24 rlineto
          389 hlineto
          1 24 -36 15 -73 -10 -8 50 rlinecurve
          -11 66 -3 93 95 99 3 101 75 vvcurveto
          138 22 -48 98 38 vhcurveto
          -1 25 rlineto
          -265 hlineto
          -249 -570 -275 570 rlineto
          -1035 -192 rmoveto
          23 -1 rlineto
          89 28 69 57 94 24 23 -1 21 hhcurveto
          -557 vlineto
          -161 -32 82 -85 -53 vhcurveto
          -24 386 vlineto
          1 24 rlineto
          -91 49 -26 -74 156 vvcurveto
          558 64 vlineto
          148 -12 -25 -120 64 hvcurveto
          23 1 -24 204 -82 -11 rlineto
          -505 hlineto
          -13 -44 11 -34 hhcurveto
          endchar
        </CharString>
        <CharString name="two">
          21 -21 902 -20 hstem
          446 212 vstem
          230 84 rmoveto
          135 113 293 266 184 vvcurveto
          167 -140 88 -154 -82 -155 -37 -74 -47 vhcurveto
          -2 -12 13 -20 rlineto
          26 71 44 42 83 hhcurveto
          104 53 -70 -100 -188 -254 -297 -127 -134 hvcurveto
          11 -38 rlineto
          578 hlineto
          17 256 -14 3 rlineto
          -62 56 -156 -6 -131 hvcurveto
          endchar
        </CharString>
        <CharString name="twosuperior">
          403 -21 22 -21 915 -20 hstemhm
          458 181 hintmask 10110000
          231 469 rmoveto
          130 154 278 213 214 vvcurveto
          176 -138 72 -160 -87 -118 -41 -75 -51 vhcurveto
          -1 -4 -2 -4 -4 vvcurveto
          -8 6 -8 7 -3 vhcurveto
          23 82 53 53 94 hhcurveto
          103 31 -91 -88 -224 -243 -231 -126 -171 hvcurveto
          11 -40 rlineto
          hintmask 01110000
          1 57 58 0 57 hhcurveto
          hintmask 10110000
          115 115 -1 115 hhcurveto
          hintmask 01110000
          14 1 17 272 rlineto
          1 -4 -6 2 -5 hhcurveto
          -58 50 -154 -12 -132 hvcurveto
          endchar
        </CharString>
        <CharString name="u">
          22 callsubr
          924 -20 hstem
          192 186 438 4 callgsubr
          1160 85 rmoveto
          -81 14 -77 13 89 vvcurveto
          703 vlineto
          -360 -26 rlineto
          -49 vlineto
          47 -5 108 -20 11 -57 rrcurveto
          -81 callgsubr
          rlineto
          -50 vlineto
          49 -5 98 -20 11 -57 rrcurveto
          -90 callsubr
        </CharString>
        <CharString name="uacute">
          17 callsubr
          968 -99 callgsubr
          191 -1330 -101 callgsubr
        </CharString>
        <CharString name="ubreve">
          22 callsubr
          1336 -20 hstemhm
          192 186 -32 493 -23 186 hintmask 11010000
          346 -76 callgsubr
          757 -1231 rmoveto
          hintmask 11101000
          -105 callsubr
        </CharString>
        <CharString name="ucircumflex">
          22 callsubr
          1592 -25 callgsubr
          592 -97 callgsubr
          567 -1266 -101 callgsubr
        </CharString>
        <CharString name="udieresis">
          22 callsubr
          1089 218 hstemhm
          191 186 -114 -15 callsubr
          -106 186 hintmask 11011000
          372 -77 callgsubr
          348 -1202 rmoveto
          hintmask 11100100
          -105 callsubr
        </CharString>
        <CharString name="ugrave">
          17 callsubr
          216 -80 callsubr
          943 -1330 -101 callgsubr
        </CharString>
        <CharString name="uhungarumlaut">
          22 callsubr
          1517 -25 callgsubr
          1042 1455 -84 callsubr
          421 -1369 -101 callgsubr
        </CharString>
        <CharString name="umacron">
          22 callsubr
          1217 -25 callgsubr
          893 -9 callsubr
          868 -984 -101 callgsubr
        </CharString>
        <CharString name="underscore">
          -101 -126 -21 98 -20 hstem
          893 -129 rmoveto
          41 -21 23 -37 16 vhcurveto
          -639 hlineto
          -49 -58 0 -19 -45 hvcurveto
          -44 19 -19 39 -16 vhcurveto
          666 hlineto
          42 49 2 16 34 hvcurveto
          endchar
        </CharString>
        <CharString name="uni00AD">
          -264 412 -21 139 -20 hstem
          586 391 rmoveto
          39 33 0 3 27 hvcurveto
          4 18 0 20 26 vvcurveto
          24 0 22 -4 20 vhcurveto
          4 -28 -32 2 -39 hhcurveto
          -365 hlineto
          -38 -31 -1 -4 -28 hvcurveto
          -4 -19 0 -21 -24 vvcurveto
          -38 0 -17 31 -15 vhcurveto
          endchar
        </CharString>
        <CharString name="uni021A">
          359 -13 callsubr
          1310 -20 hstemhm
          540 319 -273 215 hintmask 11111000
          540 31 callgsubr
          -87 callgsubr
          -92 -61 -72 -76 vhcurveto
          hintmask 11110100
          46 532 -57 callsubr
        </CharString>
        <CharString name="uni021B">
          -366 -629 -21 191 -20 480 -21 919 64 callsubr
          -146 278 hintmask 11111100
          185 -311 -38 callgsubr
          hintmask 11111100
          -19 callsubr
          436 1126 -52 callgsubr
          hintmask 11111010
          19 callsubr
          hintmask 11111100
          12 callgsubr
        </CharString>
        <CharString name="uni030F">
          69 callgsubr
          496 1027 rmoveto
          23 -47 230 -304 40 -34 rrcurveto
          12 12 4 10 8 hvcurveto
          -8 48 -129 317 -37 49 rrcurveto
          -52 -54 -17 -26 -45 hvcurveto
          -304 1 rmoveto
          22 -46 220 -316 29 -24 rrcurveto
          13 14 5 11 7 hvcurveto
          -4 28 -123 352 -27 32 rrcurveto
          -52 -53 -18 -24 -46 hvcurveto
          endchar
        </CharString>
        <CharString name="uni0311">
          35 callgsubr
          667 rmoveto
          57 hlineto
          83 37 65 33 88 hhcurveto
          81 83 -30 -86 24 hvcurveto
          58 hlineto
          152 -93 95 -153 -158 -85 -93 -154 -4 vhcurveto
          endchar
        </CharString>
        <CharString name="uni0326">
          -43 callgsubr
        </CharString>
        <CharString name="uniFB00">
          204 21 -21 1068 229 1 callsubr
          290 290 32 callsubr
          190 173 hintmask 11011010
          62 809 rmoveto
          143 -699 hlineto
          hintmask 11100110
          -75 callgsubr
          374 -699 vlineto
          -75 callgsubr
          211 59 -211 79 vlineto
          276 44 33 72 47 27 -8 -31 vhcurveto
          -19 -14 -21 -27 vvcurveto
          -45 28 -37 59 69 31 44 52 99 -127 34 -131 -87 -88 -24 -65 -60 vhcurveto
          64 -40 -136 25 -109 hhcurveto
          hintmask 11010110
          -156 -215 -72 -260 hvcurveto
          -97 -143 vlineto
          723 hmoveto
          -374 79 hlineto
          276 105 33 71 vhcurveto
          hintmask 11101010
          48 66 38 callsubr
          -45 28 -37 59 7 7 0 1 7 vhcurveto
          hintmask 11100110
          -7 -29 -3 -35 -40 vvcurveto
          endchar
        </CharString>
        <CharString name="uniFB01">
          183 37 callsubr
          408 206 hintmask 11011000
          780 18 callsubr
          -200 -211 -72 -260 vhcurveto
          6 callgsubr
          hintmask 11101000
          -48 callgsubr
          endchar
        </CharString>
        <CharString name="uniFB02">
          183 33 callsubr
          406 208 hintmask 11011000
          818 126 rmoveto
          -95 -184 42 -56 vvcurveto
          -7 1 -2 3 -8 -7 callgsubr
          -30 84 vvcurveto
          502 vlineto
          147 0 167 1 187 vhcurveto
          85 -45 89 -365 -200 -211 -72 -260 vhcurveto
          6 callgsubr
          hintmask 11101000
          -21 callgsubr
          169 25 -47 -81 vhcurveto
          -32 -4 -37 -43 vvcurveto
          endchar
        </CharString>
        <CharString name="uniFB03">
          768 37 callsubr
          330 255 32 callsubr
          408 206 hintmask 11011010
          1365 18 callsubr
          -111 -113 -22 -63 -80 vhcurveto
          62 -46 -32 callgsubr
          379 -699 vlineto
          -48 callgsubr
          -575 -236 rmoveto
          -379 4 callsubr
          -34 51 -5 54 callgsubr
        </CharString>
        <CharString name="uniFB04">
          769 33 callsubr
          330 256 32 callsubr
          406 208 hintmask 11011010
          1404 126 rmoveto
          -75 -111 11 -49 -19 vhcurveto
          -9 -4 rlineto
          -10 -5 -5 -7 -10 vvcurveto
          -7 1 -2 3 -8 -7 callgsubr
          -38 92 vvcurveto
          989 vlineto
          169 -290 19 -119 -110 -114 -22 -64 -80 vhcurveto
          63 -47 -32 callgsubr
          380 -699 vlineto
          -21 callgsubr
          171 31 -37 -63 vhcurveto
          -39 -12 -46 -55 vvcurveto
          -612 -148 rmoveto
          -380 4 callsubr
          -35 52 -4 54 callgsubr
        </CharString>
        <CharString name="uogonek">
          155 -380 63 callsubr
          924 -25 callgsubr
          499 -30 -91 callgsubr
          660 115 -101 callgsubr
        </CharString>
        <CharString name="uring">
          22 callsubr
          1473 -20 hstem
          191 186 20 390 28 4 callgsubr
          592 1380 -71 callsubr
          567 -1368 -101 callgsubr
        </CharString>
        <CharString name="v">
          -67 3 -21 917 -20 hstem
          813 706 rmoveto
          51 115 64 -3 47 30 rrcurveto
          18 0 16 -2 17 vhcurveto
          -372 hlineto
          0 -1 -16 -17 vvcurveto
          -8 0 -9 1 -6 vhcurveto
          79 -19 47 -19 4 -50 rrcurveto
          -27 -13 -42 -15 -37 vhcurveto
          -172 -419 -204 503 rlineto
          -3 10 -2 9 8 vvcurveto
          50 62 17 67 18 vhcurveto
          15 -4 22 -1 17 vhcurveto
          -450 -52 hlineto
          73 -34 20 27 48 -116 306 -736 rcurveline
          -4 7 10 -2 13 hhcurveto
          12 10 2 4 8 hvcurveto
          endchar
        </CharString>
        <CharString name="w">
          398 1 62 callsubr
          hstem
          850 356 vstem
          318 726 rmoveto
          -4 12 -1 11 9 vvcurveto
          55 51 21 50 17 vhcurveto
          16 0 15 -1 17 vhcurveto
          -412 hlineto
          -2 -49 84 -18 23 -54 31 -79 rlinecurve
          279 -713 rlineto
          -4 7 11 -2 14 hhcurveto
          13 10 2 4 8 hvcurveto
          241 610 227 -610 rlineto
          -4 8 10 -2 13 hhcurveto
          13 10 2 4 7 hvcurveto
          270 728 20 54 79 70 59 8 rlinecurve
          0 0 24 29 vvcurveto
          -351 hlineto
          -1 -9 -1 -9 -9 vvcurveto
          -9 1 -8 1 -7 vhcurveto
          77 -23 44 5 -76 vvcurveto
          -27 -9 -29 -10 -26 vhcurveto
          -156 -421 -163 447 rlineto
          -10 27 -8 24 19 vvcurveto
          57 65 2 50 24 vhcurveto
          16 -1 15 -1 17 vhcurveto
          -442 hlineto
          -2 -48 94 -5 51 -77 23 -81 rlinecurve
          -183 -445 -185 476 rlineto
          -1 3 0 1 3 vvcurveto
          endchar
        </CharString>
        <CharString name="x">
          -28 21 -21 899 -20 hstem
          171 152 rmoveto
          -57 -65 -83 -20 -34 -19 rrcurveto
          -17 2 -31 0 vhcurveto
          383 hlineto
          0 1 15 15 vvcurveto
          8 0 7 -1 6 vhcurveto
          -59 12 -56 14 36 vvcurveto
          30 26 49 30 33 vhcurveto
          136 151 156 -211 rlineto
          17 -19 8 -17 -14 vvcurveto
          -40 -74 -4 -44 -23 vhcurveto
          -16 1 -32 0 vhcurveto
          477 -3 callsubr
          33 14 vvcurveto
          -73 28 -23 9 -59 75 -270 342 rcurveline
          206 252 54 66 73 14 41 17 rlinecurve
          16 -1 33 0 vhcurveto
          -370 -51 hlineto
          60 -9 41 -30 -35 vvcurveto
          -18 -10 -20 -21 -26 vhcurveto
          -122 -149 -140 187 rlineto
          -5 13 -4 7 11 vvcurveto
          32 39 25 49 15 vhcurveto
          15 -1 33 0 vhcurveto
          -443 hlineto
          0 -1 -33 -15 vvcurveto
          30 -15 61 -15 38 -49 267 -341 rcurveline
          endchar
        </CharString>
        <CharString name="y">
          41 callgsubr
          hstem
          465 hmoveto
          -53 callgsubr
          -1 -16 -17 vvcurveto
          -8 0 -9 1 -6 -52 callsubr
          -52 hlineto
          70 -29 24 39 64 -145 rrcurveto
          endchar
        </CharString>
        <CharString name="yacute">
          41 callgsubr
          664 -20 hstem
          861 -99 callgsubr
          -396 -1415 -59 callgsubr
        </CharString>
        <CharString name="ydieresis">
          41 callgsubr
          190 72 callgsubr
          156 -15 callsubr
          vstem
          265 -77 callgsubr
          -239 -1287 -59 callgsubr
        </CharString>
        <CharString name="yen">
          304 0 307 -97 277 689 -20 hstemhm
          249 506 -446 446 46 callsubr
          hintmask 01110000
          370 302 rmoveto
          -99 -1 -22 -18 -29 vvcurveto
          -27 17 -17 197 vhcurveto
          hintmask 01100100
          77 -80 hlineto
          hintmask 10101000
          -116 -231 30 callsubr
          670 hlineto
          3 9 1 5 3 56 -233 -52 103 vvcurveto
          hintmask 01110000
          86 240 vlineto
          39 54 11 44 hvcurveto
          hintmask 10110000
          20 -24 22 -53 vhcurveto
          -256 86 251 hlineto
          52 29 22 19 hvcurveto
          hintmask 01110000
          45 -74 8 -29 vhcurveto
          -229 93 hlineto
          266 460 29 50 49 17 72 12 rlinecurve
          33 5 58 16 17 vvcurveto
          5 -1 7 -3 7 vhcurveto
          -496 25 callsubr
          -5 1 -4 3 -2 vhcurveto
          59 -45 125 6 -49 vvcurveto
          -7 -2 -6 -4 -7 vhcurveto
          -214 -410 -230 410 rlineto
          -3 7 -2 6 6 51 189 8 40 vvcurveto
          5 -1 6 -3 7 vhcurveto
          -626 25 callsubr
          -13 195 -82 19 -34 vhcurveto
          hintmask 01100100
          280 -500 rlineto
          -43 -77 vlineto
          hintmask 10110000
          -197 -17 -7 -28 -51 55 -10 85 hvcurveto
          hintmask 10100100
          44 51 3 1 56 hvcurveto
          -92 vlineto
          endchar
        </CharString>
        <CharString name="z">
          5 callsubr
          46 -20 hstemhm
          hintmask 01110000
          823 840 rmoveto
          55 vlineto
          -1 -35 3 1 -19 hvcurveto
          -21 callsubr
          45 -2 63 45 36 111 90 11 rlinecurve
          9 38 43 0 44 hhcurveto
          169 hlineto
          -577 -805 14 -33 rlineto
          608 hlineto
          hintmask 10110000
          -48 callsubr
          rrcurveto
          -15 -51 -55 -11 -65 hhcurveto
          -194 hlineto
          endchar
        </CharString>
        <CharString name="zacute">
          5 callsubr
          664 -20 hstemhm
          hintmask 01110000
          816 -99 callgsubr
          6 -575 -71 callgsubr
          hintmask 10110000
          -55 callsubr
          endchar
        </CharString>
        <CharString name="zcaron">
          5 callsubr
          589 -20 hstemhm
          hintmask 01110000
          525 -61 callsubr
          hintmask 10110000
          -55 callsubr
          endchar
        </CharString>
        <CharString name="zdotaccent">
          5 callsubr
          190 218 hstemhm
          331 219 hintmask 01111000
          440 -17 callgsubr
          383 -447 -71 callgsubr
          hintmask 10111000
          -55 callsubr
          endchar
        </CharString>
        <CharString name="zero">
          91 4 62 callsubr
          hstem
          84 205 550 205 vstem
          557 846 rmoveto
          175 107 -225 -208 -181 -80 -168 -187 -183 -100 212 203 187 84 180 184 hvcurveto
          9 -863 rmoveto
          319 159 230 228 230 -161 231 -321 -319 -159 -230 -228 -230 159 -231 323 hvcurveto
          endchar
        </CharString>
      <CharString index="0">
        rmoveto
        -2 -19 -1 -16 -16 vvcurveto
        69 -25 124 -10 15 -77 rrcurveto
        7 -35 3 -39 -41 vvcurveto
        -482 vlineto
        -48 3 -47 4 -46 vhcurveto
        -249 26 204 -178 340 hhcurveto
        284 260 132 357 27 hvcurveto
        5 47 2 49 50 vvcurveto
        413 vlineto
        49 6 42 10 37 vhcurveto
        21 84 140 -11 49 27 rrcurveto
        16 -1 17 -1 19 vhcurveto
        -539 hlineto
        -1 -19 0 -17 -15 vvcurveto
        74 -26 132 -4 17 -87 rrcurveto
        7 -39 4 -43 -46 vvcurveto
        -393 vlineto
        -48 -3 -45 -4 -45 vhcurveto
        -277 -22 -196 -116 -204 hhcurveto
        -231 -167 132 227 -23 hvcurveto
        -5 50 -3 51 54 vvcurveto
        427 vlineto
        47 4 40 8 35 vhcurveto
        17 83 135 -3 68 25 rrcurveto
        16 -1 17 -1 19 vhcurveto
        endchar
      </CharString>
      <CharString index="1">
        rmoveto
        45 81 112 195 36 90 rrcurveto
        8 -5 -12 5 -19 hhcurveto
        -63 -40 -75 -102 -91 -109 -67 72 rcurveline
        -69 73 -59 76 -59 30 rrcurveto
        -19 -12 -5 -8 -5 hvcurveto
        9 -22 11 -21 12 -22 60 -116 77 -159 56 -46 rrcurveto
        49 48 9 11 40 hvcurveto
        return
      </CharString>
      <CharString index="2">
        -45 callgsubr
        153 -407 rmoveto
        4 -12 1 -11 -10 vvcurveto
        -71 -86 -32 -82 -25 -40 callgsubr
        -44 24 -90 7 -39 93 rlinecurve
        -459 1101 rlineto
        47 -61 -50 0 -45 hhcurveto
        -9 -13 -1 -24 -9 -56 -374 -958 rcurveline
        -16 -42 -14 -36 -16 -32 -36 -74 -84 -4 -40 -33 1 -52 rcurveline
        471 57 hlineto
        -99 21 -92 19 78 vvcurveto
        47 25 64 19 52 vhcurveto
        72 194 rlineto
        451 hlineto
        endchar
      </CharString>
      <CharString index="3">
        -125 -27 91 139 hvcurveto
        337 327 vlineto
        131 50 -93 -89 33 hvcurveto
        57 3 rlineto
        429 vlineto
        -57 2 rlineto
        -130 -68 -1 -46 -184 hhcurveto
        -288 406 hlineto
        38 1 34 3 31 vhcurveto
        7 34 49 2 50 hhcurveto
        140 150 2 -30 110 hvcurveto
        89 -25 7 -135 54 -52 -22 callgsubr
        -12 1 -13 -37 -38 -10 -33 hhcurveto
        -1020 16 callgsubr
        63 -25 122 -10 17 -79 rlinecurve
        7 -35 4 -36 -42 vvcurveto
        -757 vlineto
        -44 -4 -39 -8 -33 vhcurveto
        -21 -88 -119 20 -61 -34 2 -49 rcurveline
        1026 hlineto
        return
      </CharString>
      <CharString index="4">
        rmoveto
        138 140 1 86 30 vhcurveto
        17 -2 35 0 vhcurveto
        -663 10 callsubr
        -36 -15 vvcurveto
        50 -30 130 14 20 -66 rrcurveto
        19 -35 7 -46 -58 vvcurveto
        -752 vlineto
        -62 -4 -47 -18 -37 vhcurveto
        -19 -68 -127 13 -54 -25 23 callsubr
        -36 0 vhcurveto
        664 -3 callsubr
        37 16 vvcurveto
        -74 27 -137 -7 -13 93 rrcurveto
        -4 29 -2 31 34 vvcurveto
        endchar
      </CharString>
      <CharString index="5">
        rmoveto
        -68 -69 -77 -39 -72 hhcurveto
        -83 -41 53 74 106 96 45 246 84 hvcurveto
        59 vmoveto
        -382 -99 -157 -56 -181 vvcurveto
        -112 85 -86 145 111 108 48 101 93 vhcurveto
        -84 5 56 -65 94 hhcurveto
        70 55 18 125 75 hvcurveto
        -42 45 rlineto
        -38 -30 -33 -31 -25 hhcurveto
        -24 -17 28 78 hvcurveto
        336 vlineto
        62 -4 59 -6 54 vhcurveto
        return
      </CharString>
      <CharString index="6">
        rmoveto
        -105 callsubr
      </CharString>
      <CharString index="7">
        rmoveto
        102 -93 185 -172 69 -61 rrcurveto
        -14 16 14 -6 10 hhcurveto
        15 8 11 15 9 -4 11 -7 10 hvcurveto
        -83 110 -139 187 -65 87 rrcurveto
        24 -18 -22 10 -21 hhcurveto
        -42 -39 -42 -40 -17 6 -16 15 -13 hvcurveto
        return
      </CharString>
      <CharString index="8">
        1415 -107 callsubr
        return
      </CharString>
      <CharString index="9">
        -59 104 195 -44 151 hhcurveto
        269 211 131 239 157 -90 94 -185 114 hvcurveto
        -207 127 -235 99 140 vvcurveto
        104 114 71 133 141 128 -68 -131 41 vhcurveto
        11 -34 14 -44 13 -24 rrcurveto
        19 21 1 1 22 hvcurveto
        -13 283 rlineto
        60 -116 -138 33 -127 hhcurveto
        -253 -197 -118 -218 -79 26 -63 49 -54 hvcurveto
        139 -155 311 -119 118 -115 rrcurveto
        51 -50 15 -45 -43 vvcurveto
        -127 -122 -83 -150 -173 -144 93 146 -40 vhcurveto
        -10 35 -13 46 -15 24 rrcurveto
        -18 -20 0 -2 -21 hvcurveto
        endchar
      </CharString>
      <CharString index="10">
        1351 -106 callsubr
        return
      </CharString>
      <CharString index="11">
        rmoveto
        -98 -128 -9 -44 -38 callsubr
        508 hlineto
        1 17 1 16 17 vvcurveto
        -29 21 -103 -3 -12 67 rrcurveto
        -7 24 -3 28 33 vvcurveto
        692 vlineto
        -59 -6 -277 -80 rlineto
        -1 -13 -1 -11 -11 vvcurveto
        29 -34 93 2 30 -52 rrcurveto
        endchar
      </CharString>
      <CharString index="12">
        -81 callsubr
        -75 callsubr
        return
      </CharString>
      <CharString index="13">
        rmoveto
        -97 callsubr
        return
      </CharString>
      <CharString index="14">
        -94 callgsubr
        -62 callgsubr
      </CharString>
      <CharString index="15">
        rmoveto
        91 -6 10 -25 42 -59 rrcurveto
        -300 194 120 -268 256 hhcurveto
        50 58 8 16 68 hvcurveto
        1 56 -44 12 -108 29 -81 98 rlinecurve
        -113 137 -126 169 -115 148 rrcurveto
        226 33 138 124 166 vvcurveto
        196 -170 122 -319 11 vhcurveto
        2 -76 -77 2 -75 hhcurveto
        -432 10 callsubr
        -36 -16 vvcurveto
        55 -25 121 -8 18 -77 rrcurveto
        7 -32 5 -35 -39 vvcurveto
        -758 vlineto
        -54 -4 -47 -16 -38 vhcurveto
        -17 -73 -118 -4 callgsubr
        633 -3 callsubr
        35 17 vvcurveto
        -59 29 -128 -14 -16 82 rrcurveto
        -9 30 -4 33 39 vvcurveto
        385 vlineto
        591 vmoveto
        66 62 -2 -2 57 hvcurveto
        211 -10 101 -104 -151 vvcurveto
        -151 -92 -83 -199 -12 vhcurveto
        -64 -4 -68 -3 -74 -2 rrcurveto
        endchar
      </CharString>
      <CharString index="16">
        rmoveto
        -62 -44 -49 -66 -78 vvcurveto
        -114 95 -69 117 70 43 14 43 79 vhcurveto
        -11 80 rlineto
        -17 -37 -38 -13 -39 hhcurveto
        -66 -81 34 85 26 8 26 13 25 hvcurveto
        14 29 25 15 12 47 -34 -6 -31 -7 -28 -10 rrcurveto
        return
      </CharString>
      <CharString index="17">
        -232 -209 -192 -287 -278 185 -189 255 130 167 64 121 50 hvcurveto
        -29 28 rlineto
        -48 -78 -79 -24 -86 hhcurveto
        -183 -156 114 262 9 0 10 1 10 hvcurveto
        endchar
      </CharString>
      <CharString index="18">
        -102 callsubr
        hintmask 11101100
        -59 callsubr
        return
      </CharString>
      <CharString index="19">
        rmoveto
        -83 hlineto
        -47 -175 rlineto
        83 -4 69 -26 -74 vvcurveto
        -53 -50 -35 -59 -26 -28 6 14 -28 vhcurveto
        -13 -57 rlineto
        -22 51 40 -10 45 hhcurveto
        124 107 68 111 69 -48 67 -113 16 hvcurveto
        -7 32 -17 73 0 vvcurveto
        return
      </CharString>
      <CharString index="20">
        -128 -125 27 -52 vvcurveto
        -31 19 -7 23 84 152 84 181 174 -81 48 -85 return
      </CharString>
      <CharString index="21">
        95 124 -11 0 hvcurveto
        63 353 rlineto
        0 -42 2 -18 vhcurveto
        -26 -27 -26 -53 -22 -47 -66 -120 -80 -19 -145 -1 -148 -1 rcurveline
        -43 -39 2 5 -34 hvcurveto
        -86 19 -15 99 111 vvcurveto
        728 vlineto
        38 2 37 8 33 vhcurveto
        15 81 136 -8 71 29 rrcurveto
        17 -1 35 0 vhcurveto
        -675 10 callsubr
        -36 -15 vvcurveto
        93 -30 109 7 17 -81 rrcurveto
        7 -34 4 -37 -42 vvcurveto
        endchar
      </CharString>
      <CharString index="22">
        rmoveto
        124 86 14 82 31 vhcurveto
        16 -2 36 0 vhcurveto
        -600 10 callsubr
        -35 -17 vvcurveto
        54 -23 110 12 24 -68 rrcurveto
        20 -55 8 -59 -58 vvcurveto
        -104 -4 -82 -8 -68 vhcurveto
        -49 -79 -81 -16 -107 hhcurveto
        -319 -217 260 353 328 221 247 309 127 119 -39 -111 93 hvcurveto
        32 -38 29 -88 37 -32 rrcurveto
        17 20 1 2 21 hvcurveto
        -30 302 rlineto
        return
      </CharString>
      <CharString index="23">
        -70 callsubr
        2 36 -2 18 vhcurveto
        -16 callsubr
        44 -1 44 -1 43 vhcurveto
        220 -10 -29 callgsubr
        -3 hlineto
        -8 -54 callsubr
        -3 -18 3 -36 0 vvcurveto
        -39 callsubr
      </CharString>
      <CharString index="24">
        -41 callsubr
        -35 callgsubr
        hvcurveto
        -77 callsubr
      </CharString>
      <CharString index="25">
        rmoveto
        150 17 83 124 134 hhcurveto
        121 63 -94 -155 9 hvcurveto
        -21 -10 -26 -5 -27 -1 rrcurveto
        272 -68 rmoveto
        9 vlineto
        27 -4 29 -7 29 vhcurveto
        return
      </CharString>
      <CharString index="26">
        5 -28 3 -33 -43 vvcurveto
        -423 vlineto
        -86 -87 -86 -36 -89 hhcurveto
        -135 -41 92 250 hvcurveto
        464 vlineto
        -352 -26 return
      </CharString>
      <CharString index="27">
        rmoveto
        419 180 -271 -345 -257 -158 -275 -346 -37 -41 1 2 -37 hvcurveto
        -115 5 -33 81 105 vvcurveto
        954 vlineto
        -215 -1006 rmoveto
        -138 -127 0 -97 -29 vhcurveto
        return
      </CharString>
      <CharString index="28">
        1816 -100 callgsubr
        return
      </CharString>
      <CharString index="29">
        -72 callgsubr
        2 callsubr
        -57 callgsubr
        return
      </CharString>
      <CharString index="30">
        1287 -95 callgsubr
        return
      </CharString>
      <CharString index="31">
        1316 -96 callsubr
        return
      </CharString>
      <CharString index="32">
        -83 -160 39 -49 vvcurveto
        -1 1 -6 3 -10 21 callsubr
        3 10 1 6 1 49 -178 -39 83 vvcurveto
        699 return
      </CharString>
      <CharString index="33">
        -68 callgsubr
        -89 callsubr
        endchar
      </CharString>
      <CharString index="34">
        -80 callgsubr
        -72 callsubr
      </CharString>
      <CharString index="35">
        rmoveto
        63 11 25 43 43 78 128 -116 112 hhcurveto
        98 60 83 158 3 hvcurveto
        -38 hlineto
        return
      </CharString>
      <CharString index="36">
        rmoveto
        -1 55 rlineto
        0 -35 3 -19 1 vhcurveto
        -21 callsubr
        20 -1 rlineto
        25 hlineto
        63 44 36 111 90 11 38 9 43 -2 44 2 rrcurveto
        169 hlineto
        -38 -53 -528 -760 3 -25 rlineto
        608 hlineto
        return
      </CharString>
      <CharString index="37">
        1688 -95 callgsubr
        return
      </CharString>
      <CharString index="38">
        -54 callgsubr
        -36 23 -96 0 -10 67 rrcurveto
        -5 28 -2 32 34 vvcurveto
        1142 vlineto
        endchar
      </CharString>
      <CharString index="39">
        -51 callsubr
        -61 callgsubr
        return
      </CharString>
      <CharString index="40">
        61 49 48 61 60 -49 49 -61 hvcurveto
        return
      </CharString>
      <CharString index="41">
        rmoveto
        77 115 113 29 48 20 rrcurveto
        20 callsubr
        -500 3 callsubr
        84 -26 81 -15 -65 vvcurveto
        -38 -21 -50 -30 -46 vhcurveto
        -209 -339 -273 430 -7 11 -6 23 1 11 rlinecurve
        59 83 35 78 14 vhcurveto
        20 callsubr
        -620 hlineto
        -1 -19 0 -17 -15 vvcurveto
        49 -11 114 -52 35 -54 39 callsubr
        -40 -5 -36 -9 -30 vhcurveto
        -18 -83 -135 -4 callgsubr
        646 -3 callsubr
        36 16 vvcurveto
        -51 24 -135 -7 -17 77 rrcurveto
        -9 29 -5 33 38 vvcurveto
        337 vlineto
        endchar
      </CharString>
      <CharString index="42">
        -55 callgsubr
        87 84 -51 -91 29 vhcurveto
        9 -27 17 -37 11 -23 rrcurveto
        7 callgsubr
      </CharString>
      <CharString index="43">
        rmoveto
        47 -74 -94 26 -104 hhcurveto
        -165 -131 -83 -159 -111 57 -72 96 -60 hvcurveto
        178 -112 149 -33 -113 vvcurveto
        -81 -74 -52 -96 return
      </CharString>
      <CharString index="44">
        49 91 41 68 95 83 -58 -112 4 vhcurveto
        1 -24 0 -25 -24 vvcurveto
        endchar
      </CharString>
      <CharString index="45">
        415 -313 264 -374 -344 -348 -232 -458 vhcurveto
        endchar
      </CharString>
      <CharString index="46">
        -193 632 rmoveto
        130 71 88 90 105 83 -89 -166 -131 -48 -92 -112 -131 -58 117 143 vhcurveto
        653 254 rmoveto
        0 -24 4 -23 -91 -126 -19 0 vhcurveto
        return
      </CharString>
      <CharString index="47">
        -65 callsubr
        -65 callgsubr
      </CharString>
      <CharString index="48">
        rmoveto
        -53 callgsubr
        -2 -37 2 -19 -52 callsubr
        hlineto
        -1 -52 71 -29 24 39 64 -145 rlinecurve
        endchar
      </CharString>
      <CharString index="49">
        1 callgsubr
        250 -323 rlineto
        11 -12 2 -8 -3 -50 -117 25 -37 vvcurveto
        -2 2 -4 3 -6 vhcurveto
        495 hlineto
        3 4 0 5 4 vvcurveto
        28 -148 21 -28 32 5 callgsubr
        return
      </CharString>
      <CharString index="50">
        -80 -120 110 -112 hhcurveto
        -96 -60 -70 -163 -4 hvcurveto
        return
      </CharString>
      <CharString index="51">
        -107 -227 53 -59 27 callgsubr
        670 hlineto
        3 10 2 6 3 64 -237 -74 115 vvcurveto
        536 90 vlineto
        359 -526 rlineto
        13 -17 4 -11 -4 -69 -174 34 -50 vvcurveto
        -3 1 -3 5 -11 vhcurveto
        684 hlineto
        3 5 1 6 7 vvcurveto
        38 -204 30 -40 44 vhcurveto
        -488 654 408 388 28 23 46 21 68 15 rlinecurve
        73 16 69 18 19 vvcurveto
        -4 18 rlineto
        -544 hlineto
        -3 -9 -2 -5 -4 vvcurveto
        return
      </CharString>
      <CharString index="52">
        183 136 87 170 124 -73 75 -142 76 hvcurveto
        -119 63 -150 59 104 vvcurveto
        81 55 40 81 return
      </CharString>
      <CharString index="53">
        -314 1 -313 -314 vvcurveto
        -32 -3 -29 -5 -27 vhcurveto
        -12 -66 -101 2 -39 -26 23 callsubr
        16 callsubr
        492 -24 callsubr
        return
      </CharString>
      <CharString index="54">
        -129 -41 -45 -128 -82 -64 1 71 -75 hhcurveto
        -54 -45 -38 -55 -72 66 -44 88 132 72 94 134 54 hvcurveto
        355 874 34 120 70 -15 45 36 rlinecurve
        18 -1 33 0 vhcurveto
        -367 hlineto
        0 return
      </CharString>
      <CharString index="55">
        -51 callgsubr
        29 callsubr
        return
      </CharString>
      <CharString index="56">
        -28 callgsubr
        -7 -4 vhcurveto
        -74 -113 -50 -98 -160 -64 rrcurveto
        -44 149 -498 vlineto
        return
      </CharString>
      <CharString index="57">
        1480 -78 callgsubr
        return
      </CharString>
      <CharString index="58">
        rmoveto
        -11 -224 -27 -40 -164 -74 15 -58 rcurveline
        237 26 136 114 293 vvcurveto
        793 vlineto
        -68 -7 -280 -79 return
      </CharString>
      <CharString index="59">
        -75 callgsubr
        408 -683 vlineto
        -94 -185 42 -57 vvcurveto
        -3 1 -5 3 -9 -7 callgsubr
        -38 92 vvcurveto
        748 -614 79 vlineto
        276 117 33 99 140 24 -61 -33 3 vhcurveto
        -8 -15 -6 -16 -27 vvcurveto
        return
      </CharString>
      <CharString index="60">
        rmoveto
        0 -3 -35 -17 vvcurveto
        64 -23 134 0 18 -79 rrcurveto
        8 -33 4 -37 -43 vvcurveto
        -968 vlineto
        -209 -13 -109 -66 vhcurveto
        -79 20 129 -105 hhcurveto
        -55 -34 -37 -48 -68 73 -58 127 184 163 131 372 hvcurveto
        874 vlineto
        42 5 36 9 33 vhcurveto
        20 76 137 -5 56 25 rrcurveto
        15 -1 36 0 vhcurveto
        return
      </CharString>
      <CharString index="61">
        402 rmoveto
        263 391 rlineto
        -391 vlineto
        280 -74 rmoveto
        9 37 14 41 6 38 rrcurveto
        17 -7 -12 2 -10 hhcurveto
        -35 -36 18 -23 -110 hhcurveto
        518 vlineto
        -47 -47 -4 -2 -46 hvcurveto
        -366 -521 5 -68 rlineto
        351 -96 hlineto
        -61 -84 4 -41 -15 vhcurveto
        -36 400 37 vlineto
        -39 12 -86 1 58 vvcurveto
        96 vlineto
        return
      </CharString>
      <CharString index="62">
        rmoveto
        183 492 197 -492 rlineto
        return
      </CharString>
      <CharString index="63">
        hvcurveto
        -27 -331 rlineto
        -2 21 16 -1 16 hhcurveto
        25 35 29 57 26 48 60 110 68 2 153 1 return
      </CharString>
      <CharString index="64">
        -302 -556 -3 callgsubr
        316 -20 hstemhm
        207 -23 callgsubr
        hintmask 11110000
        207 -238 -42 callgsubr
        hintmask 11101000
        -87 callsubr
        hintmask 11110000
        -19 callsubr
        endchar
      </CharString>
      <CharString index="65">
        rmoveto
        -81 57 -67 109 vhcurveto
        return
      </CharString>
      <CharString index="66">
        rmoveto
        -150 -129 -6 -96 -33 vhcurveto
        -18 1 -17 1 -17 vhcurveto
        662 hlineto
        2 19 0 17 16 vvcurveto
        -156 20 -70 18 151 vvcurveto
        987 return
      </CharString>
      <CharString index="67">
        -11 callsubr
        582 29 callgsubr
        return
      </CharString>
      <CharString index="68">
        rmoveto
        108 11 90 77 113 vvcurveto
        117 -97 59 -108 -88 -105 -40 -74 -52 vhcurveto
        -1 -4 -2 -4 -4 vvcurveto
        -9 3 -10 10 vhcurveto
        76 55 75 86 hhcurveto
        73 32 -36 -71 -99 -170 -82 -81 -39 hvcurveto
        -3 -2 -3 -2 -3 -1 34 -38 rcurveline
        5 24 25 4 25 hhcurveto
        return
      </CharString>
      <CharString index="69">
        -42 callgsubr
        hintmask 11111010
        -87 callsubr
        return
      </CharString>
      <CharString index="70">
        -13 -33 callsubr
        -2 -8 2 -46 0 vvcurveto
        -23 callsubr
      </CharString>
      <CharString index="71">
        40 -85 -80 34 -90 hhcurveto
        -265 -199 -209 -300 -261 181 -173 227 120 102 55 108 94 hvcurveto
        return
      </CharString>
      <CharString index="72">
        -415 303 -251 391 162 208 52 82 147 return
      </CharString>
      <CharString index="73">
        150 -19 -111 60 -185 hhcurveto
        return
      </CharString>
      <CharString index="74">
        132 54 -108 -118 -121 -72 -102 -129 -29 -91 18 39 hvcurveto
        20 15 19 23 vvcurveto
        35 -34 32 -34 -42 -36 -37 -42 -121 177 -28 92 159 189 85 183 166 -114 111 -165 vhcurveto
        endchar
      </CharString>
      <CharString index="75">
        -137 23 -108 hhcurveto
        -155 -246 -72 -260 hvcurveto
        6 callgsubr
        hintmask 11100110
        -75 callgsubr
        return
      </CharString>
      <CharString index="76">
        -15 callgsubr
        308 187 return
      </CharString>
      <CharString index="77">
        hvcurveto
        -22 -35 -29 -36 -25 -34 -780 -1076 rcurveline
        4 -43 rlineto
        897 hlineto
        return
      </CharString>
      <CharString index="78">
        -112 107 -191 hhcurveto
        -139 -118 -79 -92 -68 hvcurveto
        return
      </CharString>
      <CharString index="79">
        rmoveto
        84 -251 211 vlineto
        29 -11 10 -12 -11 -12 -8 return
      </CharString>
      <CharString index="80">
        330 21 -21 1324 -20 return
      </CharString>
      <CharString index="81">
        -49 callgsubr
        rlineto
        -35 vlineto
        1 3 -1 -1 2 hvcurveto
        29 -9 99 -32 28 -44 rrcurveto
        endchar
      </CharString>
      <CharString index="82">
        -20 hstem
        191 186 438 4 callgsubr
        return
      </CharString>
      <CharString index="83">
        -10 vhcurveto
        53 -9 30 -25 19 -45 rrcurveto
        -130 return
      </CharString>
      <CharString index="84">
        319 -278 278 return
      </CharString>
      <CharString index="85">
        52 2 rcurveline
        311 vlineto
        3 -12 return
      </CharString>
      <CharString index="86">
        -75 callgsubr
        406 vlineto
        59 vmoveto
        -406 79 hlineto
        276 117 33 99 return
      </CharString>
      <CharString index="87">
        -51 1 -21 592 354 return
      </CharString>
      <CharString index="88">
        vvcurveto
        1177 vlineto
        -72 -7 -282 -68 -1 callsubr
        141 -46 29 -45 vhcurveto
        endchar
      </CharString>
      <CharString index="89">
        -49 callgsubr
        -1 -35 rlineto
        0 131 -36 32 -51 vhcurveto
        return
      </CharString>
      <CharString index="90">
        1287 -62 callsubr
        return
      </CharString>
      <CharString index="91">
        53 callgsubr
        -49 callsubr
        return
      </CharString>
      <CharString index="92">
        hstemhm
        82 15 callsubr
        200 return
      </CharString>
      <CharString index="93">
        21 -14 callsubr
        return
      </CharString>
      <CharString index="94">
        1302 -20 return
      </CharString>
      <CharString index="95">
        -14 callgsubr
        hstem
        return
      </CharString>
      <CharString index="96">
        -21 946 -20 return
      </CharString>
      <CharString index="97">
        -278 124 -73 165 108 53 46 36 26 vhcurveto
        -8 16 rlineto
        8 -5 -6 9 -8 -2 -58 -44 -65 hhcurveto
        -96 -22 65 214 hvcurveto
        476 return
      </CharString>
      <CharString index="98">
        rmoveto
        -81 69 -67 84 85 68 73 75 76 -68 72 -85 -85 -68 -72 -76 vhcurveto
        return
      </CharString>
      <CharString index="99">
        -128 -4 49 179 hvcurveto
        501 vlineto
        return
      </CharString>
      <CharString index="100">
        vhcurveto
        561 -5 callsubr
        return
      </CharString>
      <CharString index="101">
        -21 33 -21 1312 -20 return
      </CharString>
      <CharString index="102">
        -22 callsubr
        637 -20 hstem
        return
      </CharString>
      <CharString index="103">
        16 -51 -29 rrcurveto
        -17 2 -35 0 vhcurveto
        return
      </CharString>
      <CharString index="104">
        -21 191 -20 return
      </CharString>
      <CharString index="105">
        -173 -31 -99 -154 -144 vvcurveto
        -121 return
      </CharString>
      <CharString index="106">
        -20 -31 callgsubr
        hintmask 11110100
        return
      </CharString>
      <CharString index="107">
        -20 hstem
        243 53 callsubr
        return
      </CharString>
      <CharString index="108">
        46 -152 -28 84 vvcurveto
        304 65 vlineto
        return
      </CharString>
      <CharString index="109">
        200 550 197 return
      </CharString>
      <CharString index="110">
        -315 hlineto
        -35 -97 9 -54 -59 96 12 39 hvcurveto
        312 hlineto
        36 99 -14 56 56 -99 -6 -36 hvcurveto
        return
      </CharString>
      <CharString index="111">
        186 vstem
        return
      </CharString>
      <CharString index="112">
        vhcurveto
        -334 428 296 252 return
      </CharString>
      <CharString index="113">
        -97 -143 -59 143 -699 vlineto
        return
      </CharString>
      <CharString index="114">
        14 19 0 1 14 hvcurveto
        endchar
      </CharString>
      <CharString index="115">
        62 callgsubr
        19 callsubr
        12 callgsubr
      </CharString>
      <CharString index="116">
        hstem
        219 4 callgsubr
        return
      </CharString>
      <CharString index="117">
        2 16 callsubr
        return
      </CharString>
      <CharString index="118">
        1224 rmoveto
        -65 51 -51 64 65 51 51 65 64 -51 52 -65 -64 -51 -52 -64 vhcurveto
        return
      </CharString>
      <CharString index="119">
        -8 callgsubr
        endchar
      </CharString>
      <CharString index="120">
        -7 callsubr
        637 -20 hstem
        99 -4 callsubr
        vstem
        return
      </CharString>
      <CharString index="121">
        402 -34 callsubr
        return
      </CharString>
      <CharString index="122">
        vvcurveto
        -3 1 -5 3 return
      </CharString>
      <CharString index="123">
        hlineto
        -2 -51 return
      </CharString>
      <CharString index="124">
        42 callgsubr
        77 61 64 72 73 -61 62 -77 hvcurveto
        endchar
      </CharString>
      <CharString index="125">
        75 1 -21 946 -20 637 59 callgsubr
        return
      </CharString>
      <CharString index="126">
        hstem
        199 186 456 187 vstem
        return
      </CharString>
      <CharString index="127">
        -251 47 -86 192 return
      </CharString>
      <CharString index="128">
        122 -28 109 hhcurveto
        return
      </CharString>
      <CharString index="129">
        10 -21 32 -21 return
      </CharString>
      <CharString index="130">
        603 -5 -21 return
      </CharString>
      <CharString index="131">
        42 callgsubr
        76 62 64 72 73 -62 62 -76 hvcurveto
        return
      </CharString>
      <CharString index="132">
        -274 -20 410 -20 hstemhm
        return
      </CharString>
      <CharString index="133">
        44 callgsubr
        vstem
        return
      </CharString>
      <CharString index="134">
        15 callgsubr
        -9 vhcurveto
        return
      </CharString>
      <CharString index="135">
        hstemhm
        270 215 return
      </CharString>
      <CharString index="136">
        hlineto
        2 52 return
      </CharString>
      <CharString index="137">
        1295 rmoveto
        4 -11 -11 2 -12 hhcurveto
        -77 -37 -83 -20 -85 -10 return
      </CharString>
      <CharString index="138">
        -291 -42 callgsubr
        return
      </CharString>
      <CharString index="139">
        -447 21 -21 return
      </CharString>
      <CharString index="140">
        -426 -21 69 -20 393 -21 36 -21 1338 -20 hstemhm
        return
      </CharString>
      <CharString index="141">
        -21 1108 232 hstemhm
        177 45 callgsubr
        return
      </CharString>
</ttFont>
